<svg width="420" height="421" viewBox="0 0 420 421" fill="none" xmlns="http://www.w3.org/2000/svg">
<path d="M77.8177 266.897L65.3605 267.133L59.0521 267.225C56.9437 267.267 54.8269 267.259 52.7101 267.275H52.3405V266.897L52.2985 256.288V255.868H52.7185L65.2765 255.919C69.4597 255.927 73.6513 256.011 77.8345 256.053H78.0697V256.28C78.0529 258.077 77.9941 259.867 77.9605 261.639L77.8177 266.897ZM77.8177 266.897L77.7001 261.538C77.6581 259.774 77.6077 258.019 77.5909 256.28L77.8177 256.507C73.6345 256.549 69.4429 256.641 65.2597 256.641L52.7017 256.691L53.1217 256.271L53.0797 266.881L52.7017 266.503C54.7765 266.519 56.8429 266.511 58.9177 266.553L65.1589 266.645L77.8177 266.897Z" fill="#EBEBEB"/>
<path d="M63.8064 280.279L51.3492 280.514L45.0408 280.606C42.9324 280.648 40.8156 280.64 38.6988 280.648H38.3292V280.27L38.2872 269.661V269.241H38.7072L51.2484 269.3C55.4316 269.3 59.6232 269.392 63.8064 269.434H64.0416V269.661C64.0248 271.459 63.966 273.248 63.9324 275.02L63.8064 280.279ZM63.8064 280.279L63.6888 274.92C63.6468 273.156 63.5964 271.4 63.5796 269.661L63.8064 269.888C59.6232 269.93 55.4316 270.022 51.2484 270.022L38.6904 270.073L39.1104 269.653L39.0684 280.262L38.6904 279.884C40.7652 279.901 42.8316 279.892 44.9064 279.926L51.1476 280.018L63.8064 280.279Z" fill="#EBEBEB"/>
<path d="M63.8064 50.6562L51.3492 50.8914L45.0408 50.9838C42.9324 51.0258 40.8156 51.0174 38.6988 51.0342H38.3292V50.6562L38.2872 40.047V39.627H38.7072L51.2652 39.6774C55.4484 39.6858 59.64 39.7698 63.8232 39.8118H64.0584V40.0386C64.0416 41.8362 63.9828 43.6254 63.9492 45.3978L63.8064 50.6562ZM63.8064 50.6562L63.6888 45.297C63.6468 43.533 63.5964 41.7774 63.5796 40.0386L63.8064 40.2654C59.6232 40.3074 55.4316 40.3998 51.2484 40.3998L38.6904 40.4502L39.1104 40.0302L39.0684 50.6394L38.6904 50.2614C40.7652 50.2782 42.8316 50.2698 44.9064 50.3118L51.1476 50.4042L63.8064 50.6562Z" fill="#EBEBEB"/>
<path d="M381.31 50.6562L368.852 50.8914L362.536 50.9838C360.427 51.0258 358.31 51.0174 356.194 51.0342H355.824V50.6562L355.782 40.047V39.627H356.202L368.76 39.6774C372.943 39.6858 377.135 39.7698 381.318 39.8118H381.553V40.0386C381.536 41.8362 381.478 43.6254 381.444 45.3978L381.31 50.6562ZM381.31 50.6562L381.192 45.297C381.15 43.533 381.1 41.7774 381.083 40.0386L381.31 40.2654C377.126 40.3074 372.935 40.3998 368.752 40.3998L356.194 40.4502L356.614 40.0302L356.572 50.6394L356.194 50.2614C358.268 50.2782 360.335 50.2698 362.41 50.3118L368.651 50.4042L381.31 50.6562Z" fill="#EBEBEB"/>
<path d="M367.298 64.0376L354.841 64.2728L348.524 64.3652C346.416 64.4072 344.299 64.3988 342.182 64.4072H341.813V64.0292L341.771 53.42V53H342.191L354.749 53.0504C358.932 53.0504 363.124 53.1428 367.307 53.1848H367.542V53.4116C367.525 55.2092 367.466 56.9984 367.433 58.7708L367.298 64.0376ZM367.298 64.0376L367.181 58.6784C367.139 56.9144 367.088 55.1588 367.072 53.42L367.298 53.6468C363.115 53.6888 358.924 53.7812 354.74 53.7812L342.182 53.8316L342.602 53.4116L342.56 64.0208L342.182 63.6428C344.257 63.6596 346.324 63.6512 348.398 63.6932L354.64 63.7856L367.298 64.0376Z" fill="#EBEBEB"/>
<path d="M302.98 188.189L290.522 188.425L284.214 188.517C282.106 188.559 279.989 188.551 277.872 188.567H277.502V188.189L277.46 177.58V177.16H277.88L290.438 177.211C294.622 177.219 298.813 177.303 302.996 177.345H303.232V177.572C303.215 179.369 303.156 181.159 303.122 182.931L302.98 188.189ZM302.98 188.189L302.862 182.83C302.82 181.066 302.77 179.311 302.753 177.572L302.98 177.799C298.796 177.841 294.605 177.933 290.422 177.933L277.864 177.983L278.284 177.563L278.242 188.173L277.864 187.795C279.938 187.811 282.005 187.803 284.08 187.837L290.321 187.929L302.98 188.189Z" fill="#EBEBEB"/>
<path d="M288.968 201.57L276.511 201.805L270.203 201.898C268.094 201.94 265.978 201.931 263.861 201.948H263.491V201.57L263.449 190.961V190.541H263.869L276.427 190.591C280.61 190.6 284.802 190.684 288.985 190.726H289.22V190.953C289.204 192.75 289.145 194.539 289.111 196.312L288.968 201.57ZM288.968 201.57L288.851 196.211C288.809 194.447 288.758 192.691 288.742 190.953L288.968 191.179C284.785 191.221 280.594 191.314 276.41 191.314L263.852 191.364L264.272 190.944L264.23 201.553L263.852 201.175C265.927 201.192 267.994 201.184 270.068 201.217L276.31 201.31L288.968 201.57Z" fill="#EBEBEB"/>
<path d="M275.016 188.189L262.559 188.425L256.242 188.517C254.134 188.559 252.017 188.551 249.9 188.567H249.53V188.189L249.488 177.58V177.16H249.908L262.466 177.211C266.65 177.219 270.841 177.303 275.024 177.345H275.26V177.572C275.243 179.369 275.184 181.159 275.15 182.931L275.016 188.189ZM275.016 188.189L274.898 182.83C274.865 181.066 274.806 179.311 274.789 177.572L275.016 177.799C270.833 177.841 266.641 177.933 262.458 177.933L249.9 177.983L250.32 177.563L250.278 188.173L249.9 187.795C251.975 187.811 254.041 187.803 256.116 187.837L262.357 187.929L275.016 188.189Z" fill="#EBEBEB"/>
<path d="M381.31 280.279L368.852 280.514L362.536 280.606C360.427 280.648 358.31 280.64 356.194 280.648H355.824V280.27L355.782 269.661V269.241H356.202L368.76 269.292C372.943 269.292 377.135 269.384 381.318 269.426H381.553V269.653C381.536 271.45 381.478 273.24 381.444 275.012L381.31 280.279ZM381.31 280.279L381.192 274.92C381.15 273.156 381.1 271.4 381.083 269.661L381.31 269.888C377.126 269.93 372.935 270.022 368.752 270.022L356.194 270.073L356.614 269.653L356.572 280.262L356.194 279.884C358.268 279.901 360.335 279.892 362.41 279.926L368.651 280.018L381.31 280.279Z" fill="#EBEBEB"/>
<path d="M167.941 82.2147L155.484 82.4499L149.176 82.5423C147.067 82.5843 144.95 82.5759 142.834 82.5927H142.464V82.2147L142.422 71.6055V71.1855H142.842L155.4 71.2359C159.583 71.2359 163.775 71.3283 167.958 71.3703H168.193V71.5971C168.176 73.3947 168.118 75.1839 168.084 76.9563L167.941 82.2147ZM167.941 82.2147L167.824 76.8555C167.782 75.0915 167.731 73.3359 167.714 71.5971L167.941 71.8239C163.758 71.8659 159.566 71.9583 155.383 71.9583L142.825 72.0087L143.245 71.5887L143.203 82.1979L142.825 81.8199C144.9 81.8367 146.966 81.8283 149.041 81.8703L155.282 81.9627L167.941 82.2147Z" fill="#EBEBEB"/>
<path d="M355.513 152.515L360.461 144.543L358.016 143.031C357.302 142.586 356.908 141.771 356.983 140.931C357.025 140.469 357.042 139.999 357.025 139.528C357.008 138.688 357.445 137.899 358.193 137.504L360.721 136.143L356.286 127.869L353.758 129.23C353.018 129.625 352.12 129.558 351.431 129.079C351.044 128.81 350.65 128.566 350.238 128.34C349.499 127.936 349.037 127.164 349.062 126.315L349.154 123.442L339.78 123.148L339.696 126.03C339.671 126.878 339.15 127.609 338.386 127.97C338.176 128.071 337.974 128.172 337.772 128.281C337.571 128.39 337.369 128.508 337.176 128.625C336.454 129.062 335.563 129.087 334.849 128.642L332.388 127.122L327.44 135.093L329.885 136.614C330.599 137.059 330.994 137.874 330.918 138.714C330.876 139.176 330.859 139.646 330.876 140.108C330.893 140.948 330.456 141.729 329.708 142.132L327.18 143.493L331.615 151.767L334.144 150.406C334.883 150.012 335.782 150.079 336.47 150.558C336.857 150.826 337.252 151.07 337.663 151.288C338.402 151.692 338.864 152.464 338.839 153.313L338.747 156.194L348.121 156.488L348.214 153.607C348.239 152.767 348.76 152.036 349.516 151.675C349.726 151.574 349.927 151.473 350.137 151.364C350.339 151.255 350.54 151.137 350.734 151.02C351.456 150.583 352.355 150.558 353.077 151.003L355.513 152.515ZM347.567 146.593C343.829 148.6 339.175 147.198 337.168 143.451C335.16 139.713 336.563 135.051 340.301 133.044C344.039 131.036 348.701 132.447 350.708 136.185C352.724 139.932 351.313 144.594 347.567 146.593Z" fill="#EBEBEB"/>
<path d="M85.2852 242.848L90.2328 234.876L87.7884 233.364C87.0744 232.919 86.6796 232.104 86.7552 231.264C86.7972 230.802 86.814 230.332 86.7972 229.861C86.7804 229.021 87.2172 228.232 87.9648 227.837L90.4932 226.476L86.058 218.202L83.5296 219.563C82.7904 219.958 81.8916 219.891 81.2028 219.412C80.8164 219.143 80.4216 218.899 80.01 218.673C79.2708 218.269 78.8088 217.497 78.834 216.648L78.9264 213.775L69.552 213.481L69.468 216.363C69.4428 217.211 68.922 217.942 68.1576 218.303C67.9476 218.404 67.746 218.505 67.5444 218.614C67.3428 218.723 67.1412 218.841 66.948 218.958C66.2256 219.395 65.3352 219.42 64.6212 218.975L62.16 217.455L57.2124 225.426L59.6568 226.947C60.3708 227.392 60.7656 228.207 60.69 229.047C60.648 229.509 60.6312 229.979 60.648 230.441C60.6648 231.281 60.228 232.062 59.4804 232.465L56.952 233.826L61.3872 242.1L63.9156 240.739C64.6548 240.345 65.5536 240.412 66.2424 240.891C66.6288 241.159 67.0236 241.403 67.4352 241.621C68.1744 242.025 68.6364 242.797 68.6112 243.646L68.5188 246.527L77.8932 246.821L77.9856 243.94C78.0108 243.1 78.5316 242.369 79.2876 242.008C79.4976 241.907 79.6992 241.806 79.9092 241.697C80.1108 241.588 80.3124 241.47 80.5056 241.353C81.228 240.916 82.1268 240.891 82.8492 241.336L85.2852 242.848ZM77.3472 236.926C73.6092 238.933 68.9556 237.531 66.948 233.784C64.9404 230.046 66.3432 225.384 70.0812 223.377C73.8192 221.369 78.4812 222.78 80.4888 226.518C82.4964 230.265 81.0852 234.918 77.3472 236.926Z" fill="#EBEBEB"/>
<path d="M181.331 90.1612L178.046 84.466L176.308 85.474C175.795 85.768 175.165 85.7428 174.67 85.4152C174.392 85.2388 174.115 85.0708 173.821 84.9196C173.292 84.6508 172.956 84.1216 172.956 83.5336V81.5176H166.379V83.5336C166.379 84.1216 166.043 84.6508 165.514 84.9196C165.22 85.0708 164.934 85.2304 164.665 85.4152C164.17 85.7344 163.54 85.768 163.027 85.474L161.288 84.466L158.004 90.1612L159.751 91.1692C160.264 91.4632 160.549 92.026 160.516 92.6224C160.507 92.782 160.507 92.9416 160.507 93.1096C160.507 93.2692 160.507 93.4288 160.516 93.5968C160.549 94.1848 160.264 94.7476 159.751 95.0416L157.996 96.058L161.28 101.753L163.027 100.745C163.54 100.451 164.17 100.476 164.665 100.804C164.934 100.98 165.22 101.148 165.514 101.291C166.043 101.56 166.379 102.089 166.379 102.677V104.693H172.956V102.677C172.956 102.089 173.292 101.56 173.821 101.291C174.115 101.14 174.392 100.98 174.67 100.804C175.165 100.476 175.795 100.451 176.308 100.745L178.055 101.753L181.339 96.058L179.592 95.05C179.08 94.756 178.802 94.1932 178.828 93.6052C178.836 93.4456 178.836 93.2776 178.836 93.118C178.836 92.9584 178.836 92.7988 178.828 92.6308C178.794 92.0428 179.08 91.48 179.592 91.1776L181.331 90.1612ZM175.048 93.1012C175.048 96.0748 172.637 98.4856 169.663 98.4856C166.69 98.4856 164.279 96.0748 164.279 93.1012C164.279 90.1276 166.69 87.7168 169.663 87.7168C172.637 87.7168 175.048 90.1276 175.048 93.1012Z" fill="#EBEBEB"/>
<path d="M74.6256 255.725C63.6468 266.469 61.8072 283.101 64.1172 297.658C64.176 297.986 64.6884 297.902 64.6884 297.591C64.6884 294.273 64.5876 290.989 64.596 287.713C64.6548 287.561 64.7052 287.419 64.764 287.276C67.6284 285.193 70.266 282.841 71.8956 279.615C73.7268 276.011 74.4492 271.946 75.852 268.174C75.978 267.813 75.6 267.922 75.348 268.107C68.67 273.029 66.5448 278.33 64.6296 285.411C64.722 281.732 64.9992 278.061 65.7888 274.382C67.2336 267.662 70.0896 261.001 74.9112 256.011C75.096 255.826 74.8104 255.532 74.6256 255.725Z" fill="#263238"/>
<path d="M76.6835 256.977C78.5735 257.044 79.7579 260.06 81.2279 260.942C82.0091 261.412 82.7651 261.379 83.3111 260.614C84.7727 258.581 82.7651 256.07 80.8835 254.659C82.2275 255.213 83.3447 256.187 84.7979 256.456C85.6799 256.616 86.3603 256.288 86.5619 255.398C87.2003 252.626 83.7227 251.391 81.3287 251.332C82.4879 250.526 85.8059 248.342 84.0419 247.267C82.2527 246.183 78.3635 249.316 77.0951 250.349C75.2303 251.861 73.0043 254.129 72.9203 256.498C72.8111 259.262 75.2303 257.557 76.6835 256.977Z" fill="#2C71F6"/>
<path opacity="0.1" d="M76.6835 256.977C78.5735 257.044 79.7579 260.06 81.2279 260.942C82.0091 261.412 82.7651 261.379 83.3111 260.614C84.7727 258.581 82.7651 256.07 80.8835 254.659C82.2275 255.213 83.3447 256.187 84.7979 256.456C85.6799 256.616 86.3603 256.288 86.5619 255.398C87.2003 252.626 83.7227 251.391 81.3287 251.332C82.4879 250.526 85.8059 248.342 84.0419 247.267C82.2527 246.183 78.3635 249.316 77.0951 250.349C75.2303 251.861 73.0043 254.129 72.9203 256.498C72.8111 259.262 75.2303 257.557 76.6835 256.977Z" fill="#202020"/>
<path d="M76.1376 257.448C78.5484 256.347 83.1936 257.927 83.5884 257.019C84.3864 255.163 80.682 253.886 78.6828 253.634C80.5224 253.139 84.0588 252.341 83.9496 250.56C83.8152 248.393 78.5316 250.257 75.8604 252.307C72.492 254.886 72.5172 257.381 73.0716 257.885C73.8276 258.565 75.7428 257.624 76.1376 257.448Z" fill="#2C71F6"/>
<path d="M49.6188 254.659C61.0008 264.983 63.4704 281.522 61.7148 296.163C61.6644 296.499 61.152 296.424 61.1436 296.113C61.0176 292.803 60.9924 289.511 60.858 286.243C60.7908 286.092 60.7404 285.957 60.6732 285.806C57.7332 283.832 55.0116 281.581 53.256 278.423C51.2904 274.886 50.4084 270.854 48.8712 267.141C48.7284 266.789 49.1148 266.881 49.3752 267.049C56.238 271.719 58.5648 276.927 60.7488 283.933C60.522 280.262 60.102 276.6 59.1696 272.954C57.4728 266.293 54.3648 259.749 49.35 254.945C49.1568 254.777 49.4256 254.483 49.6188 254.659Z" fill="#263238"/>
<path d="M47.6112 255.994C45.7296 256.129 44.6544 259.195 43.218 260.127C42.462 260.623 41.6976 260.623 41.1264 259.875C39.5892 257.893 41.496 255.314 43.3188 253.835C41.9916 254.44 40.9164 255.457 39.48 255.784C38.6064 255.977 37.9092 255.675 37.674 254.793C36.9264 252.046 40.362 250.677 42.7476 250.526C41.5632 249.77 38.1612 247.703 39.8832 246.561C41.6304 245.41 45.6372 248.392 46.9476 249.375C48.8712 250.82 51.1812 252.995 51.3576 255.356C51.5592 258.128 49.0812 256.515 47.6112 255.994Z" fill="#2C71F6"/>
<path opacity="0.1" d="M47.6112 255.994C45.7296 256.129 44.6544 259.195 43.218 260.127C42.462 260.623 41.6976 260.623 41.1264 259.875C39.5892 257.893 41.496 255.314 43.3188 253.835C41.9916 254.44 40.9164 255.457 39.48 255.784C38.6064 255.977 37.9092 255.675 37.674 254.793C36.9264 252.046 40.362 250.677 42.7476 250.526C41.5632 249.77 38.1612 247.703 39.8832 246.561C41.6304 245.41 45.6372 248.392 46.9476 249.375C48.8712 250.82 51.1812 252.995 51.3576 255.356C51.5592 258.128 49.0812 256.515 47.6112 255.994Z" fill="#202020"/>
<path d="M48.174 256.439C45.7212 255.431 41.1432 257.187 40.7148 256.288C39.8412 254.457 43.5036 253.045 45.4944 252.718C43.638 252.289 40.0764 251.626 40.1184 249.845C40.1688 247.669 45.5196 249.333 48.2664 251.281C51.7272 253.734 51.8028 256.229 51.2652 256.75C50.526 257.464 48.5772 256.599 48.174 256.439Z" fill="#2C71F6"/>
<path d="M61.2612 281.925C62.1012 287.368 63.1428 292.988 64.7976 298.246C64.9572 298.725 65.6628 298.599 65.5956 298.087C64.848 293.055 63.4872 288.124 62.7396 283.093C61.9836 278.002 61.572 272.845 61.866 267.695C62.3448 259.22 64.6464 250.207 70.1736 243.571C70.2912 243.411 70.0392 243.193 69.9132 243.335C58.842 256.246 60.606 272.072 60.6144 273.491C59.0436 268.149 57.4308 262.017 51.5004 256.582C51.2484 256.347 51.0468 256.456 51.0888 256.859C52.1472 266.771 54.9024 271.946 60.648 277.246C60.8076 278.817 61.0092 280.379 61.2612 281.925Z" fill="#263238"/>
<path d="M70.266 245.058C72.2568 244.176 75.0036 246.712 76.9776 246.88C78.0192 246.973 78.792 246.561 78.9768 245.494C79.464 242.647 76.1292 241.051 73.4664 240.538C75.138 240.438 76.7928 240.883 78.4308 240.438C79.422 240.16 79.968 239.48 79.7328 238.447C79.002 235.246 74.7684 235.717 72.2568 236.859C73.0548 235.44 75.3984 231.5 73.0212 231.273C70.6272 231.055 68.1576 236.254 67.3596 237.968C66.1836 240.48 65.016 243.949 66.1164 246.452C67.3932 249.367 69.048 246.385 70.266 245.058Z" fill="#2C71F6"/>
<path opacity="0.1" d="M70.266 245.058C72.2568 244.176 75.0036 246.712 76.9776 246.88C78.0192 246.973 78.792 246.561 78.9768 245.494C79.464 242.647 76.1292 241.051 73.4664 240.538C75.138 240.438 76.7928 240.883 78.4308 240.438C79.422 240.16 79.968 239.48 79.7328 238.447C79.002 235.246 74.7684 235.717 72.2568 236.859C73.0548 235.44 75.3984 231.5 73.0212 231.273C70.6272 231.055 68.1576 236.254 67.3596 237.968C66.1836 240.48 65.016 243.949 66.1164 246.452C67.3932 249.367 69.048 246.385 70.266 245.058Z" fill="#202020"/>
<path d="M69.93 245.814C71.8788 243.462 77.49 242.765 77.4396 241.614C77.3304 239.279 72.8448 239.825 70.644 240.573C72.3072 239.128 75.5664 236.524 74.5584 234.735C73.332 232.551 68.7876 237.145 67.0404 240.615C64.848 244.991 66.1248 247.561 66.948 247.805C68.0988 248.141 69.6108 246.201 69.93 245.814Z" fill="#2C71F6"/>
<path d="M53.97 284.907L49.0896 322.22H78.8004C78.1872 318.91 72.66 284.865 72.66 284.865L53.97 284.907Z" fill="#2C71F6"/>
<path d="M36.4308 322.338L79.8252 322.136L123.22 322.061L210 321.918L296.78 322.061L340.175 322.136L383.569 322.338L340.175 322.548L296.78 322.624L210 322.758L123.22 322.615L79.8252 322.548L36.4308 322.338Z" fill="#263238"/>
<path d="M210 395.401C279.152 395.401 335.21 387.473 335.21 377.694C335.21 367.914 279.152 359.986 210 359.986C140.848 359.986 84.7896 367.914 84.7896 377.694C84.7896 387.473 140.848 395.401 210 395.401Z" fill="#EBEBEB"/>
<path d="M132.359 191.742L127.142 171.221L85.9488 181.688L80.5056 160.268L113.425 85.2473L129.755 81.0977L145.631 143.56L158.81 140.208L164.296 161.78L151.116 165.131L156.332 185.652L132.359 191.742ZM104.135 154.11L124.505 148.936L117.768 122.426L104.135 154.11Z" fill="#263238"/>
<path d="M250.337 123.24C250.337 130.044 249.304 136.302 247.246 142.014C245.179 147.735 242.348 152.682 238.745 156.849C235.141 161.024 230.891 164.266 225.994 166.584C221.096 168.903 215.762 170.062 210 170.062C204.229 170.062 198.87 168.903 193.931 166.584C188.983 164.266 184.708 161.024 181.104 156.849C177.5 152.674 174.686 147.726 172.679 142.014C170.671 136.294 169.663 130.036 169.663 123.24C169.663 116.436 170.671 110.178 172.679 104.466C174.686 98.746 177.492 93.7984 181.104 89.632C184.708 85.4572 188.983 82.1896 193.931 79.8208C198.878 77.452 204.229 76.2676 210 76.2676C215.771 76.2676 221.105 77.452 225.994 79.8208C230.882 82.1896 235.133 85.4656 238.745 89.632C242.348 93.8068 245.188 98.7544 247.246 104.466C249.304 110.178 250.337 116.436 250.337 123.24ZM225.456 123.24C225.456 116.033 224.011 110.178 221.13 105.701C218.24 101.216 214.536 98.9812 210 98.9812C205.262 98.9812 201.474 101.224 198.643 105.701C195.804 110.187 194.393 116.033 194.393 123.24C194.393 130.456 195.804 136.277 198.643 140.704C201.474 145.139 205.262 147.348 210 147.348C214.536 147.348 218.24 145.131 221.13 140.704C224.011 136.277 225.456 130.456 225.456 123.24Z" fill="#263238"/>
<path d="M294.706 187.786L298.091 166.887L256.133 160.092L259.669 138.277L319.738 82.5596L336.37 85.256L326.063 148.878L339.486 151.053L335.924 173.019L322.501 170.844L319.116 191.743L294.706 187.786ZM283.802 142.032L304.55 145.392L308.927 118.386L283.802 142.032Z" fill="#263238"/>
<path d="M175.291 61.3657C173.527 61.3657 171.923 61.0213 170.486 60.3325C169.05 59.6437 167.815 58.7281 166.79 57.5857C165.757 56.4433 164.959 55.1329 164.396 53.6629C163.834 52.1929 163.548 50.6893 163.548 49.1521C163.548 47.5477 163.85 46.0105 164.447 44.5405C165.043 43.0705 165.875 41.7685 166.925 40.6345C167.975 39.5005 169.226 38.6017 170.671 37.9381C172.116 37.2745 173.695 36.9385 175.392 36.9385C177.131 36.9385 178.727 37.2913 180.163 38.0053C181.6 38.7193 182.826 39.6517 183.842 40.8025C184.859 41.9533 185.648 43.2721 186.22 44.7421C186.782 46.2121 187.068 47.7073 187.068 49.2193C187.068 50.8237 186.774 52.3609 186.186 53.8141C185.598 55.2757 184.783 56.5609 183.742 57.6781C182.7 58.7953 181.457 59.6941 180.012 60.3577C178.559 61.0297 176.98 61.3657 175.291 61.3657ZM168.294 49.1521C168.294 50.1937 168.454 51.2017 168.773 52.1761C169.092 53.1505 169.546 54.0073 170.15 54.7549C170.747 55.5025 171.486 56.0989 172.36 56.5525C173.233 57.0061 174.216 57.2329 175.325 57.2329C176.459 57.2329 177.458 56.9977 178.324 56.5357C179.197 56.0737 179.928 55.4521 180.533 54.6877C181.129 53.9149 181.583 53.0497 181.894 52.0921C182.196 51.1345 182.356 50.1517 182.356 49.1605C182.356 48.1189 182.188 47.1109 181.86 46.1365C181.532 45.1621 181.07 44.3053 180.466 43.5577C179.869 42.8101 179.13 42.2137 178.256 41.7769C177.383 41.3401 176.408 41.1133 175.325 41.1133C174.191 41.1133 173.191 41.3485 172.301 41.8105C171.419 42.2725 170.68 42.8857 170.092 43.6417C169.504 44.3977 169.058 45.2629 168.748 46.2205C168.454 47.1781 168.294 48.1525 168.294 49.1521Z" fill="#263238"/>
<path d="M198.433 61.5339C196.988 61.5339 195.686 61.2819 194.527 60.7863C193.376 60.2907 192.394 59.6187 191.596 58.7703C190.789 57.9219 190.176 56.9475 189.748 55.8387C189.319 54.7299 189.101 53.5623 189.101 52.3443C189.101 51.1011 189.319 49.9251 189.748 48.8163C190.176 47.7075 190.798 46.7331 191.596 45.8847C192.402 45.0363 193.376 44.3643 194.527 43.8687C195.678 43.3731 196.98 43.1211 198.433 43.1211C199.878 43.1211 201.18 43.3731 202.322 43.8687C203.465 44.3643 204.439 45.0363 205.237 45.8847C206.044 46.7331 206.657 47.7075 207.085 48.8163C207.514 49.9251 207.732 51.1011 207.732 52.3443C207.732 53.5623 207.514 54.7299 207.085 55.8387C206.657 56.9475 206.044 57.9219 205.254 58.7703C204.464 59.6187 203.49 60.2907 202.339 60.7863C201.18 61.2903 199.878 61.5339 198.433 61.5339ZM193.78 52.3443C193.78 53.1339 193.897 53.8563 194.132 54.4947C194.368 55.1415 194.695 55.6959 195.115 56.1747C195.535 56.6535 196.022 57.0147 196.594 57.2751C197.156 57.5355 197.77 57.6615 198.425 57.6615C199.08 57.6615 199.693 57.5355 200.256 57.2751C200.819 57.0147 201.314 56.6451 201.734 56.1747C202.154 55.6959 202.482 55.1331 202.717 54.4779C202.952 53.8227 203.07 53.1003 203.07 52.3023C203.07 51.5295 202.952 50.8239 202.717 50.1687C202.482 49.5135 202.154 48.9507 201.734 48.4719C201.314 47.9931 200.827 47.6319 200.256 47.3715C199.693 47.1111 199.08 46.9851 198.425 46.9851C197.77 46.9851 197.156 47.1195 196.594 47.3883C196.031 47.6571 195.535 48.0351 195.115 48.5055C194.695 48.9843 194.368 49.5471 194.132 50.2023C193.897 50.8575 193.78 51.5715 193.78 52.3443Z" fill="#263238"/>
<path d="M221.432 61.5345C220.03 61.5345 218.812 61.2237 217.77 60.6021C216.728 59.9805 215.914 59.1405 215.326 58.0737V68.4225H210.781V43.4157H214.754V46.4733C215.41 45.4317 216.258 44.6169 217.3 44.0121C218.341 43.4157 219.542 43.1133 220.895 43.1133C222.096 43.1133 223.205 43.3569 224.221 43.8441C225.238 44.3313 226.12 44.9865 226.85 45.8097C227.59 46.6329 228.161 47.6073 228.581 48.7245C229.001 49.8417 229.211 51.0261 229.211 52.2693C229.211 53.5545 229.018 54.7725 228.631 55.8981C228.245 57.0321 227.707 58.0149 227.018 58.8465C226.33 59.6865 225.506 60.3417 224.557 60.8121C223.608 61.2993 222.566 61.5345 221.432 61.5345ZM219.912 57.6705C220.592 57.6705 221.214 57.5277 221.794 57.2253C222.373 56.9313 222.86 56.5365 223.272 56.0409C223.675 55.5453 223.994 54.9657 224.221 54.3105C224.448 53.6553 224.557 52.9749 224.557 52.2777C224.557 51.5301 224.431 50.8329 224.188 50.1945C223.936 49.5477 223.591 48.9933 223.154 48.5145C222.709 48.0357 222.197 47.6661 221.592 47.3973C220.996 47.1285 220.34 46.9941 219.643 46.9941C219.215 46.9941 218.77 47.0697 218.316 47.2125C217.862 47.3637 217.442 47.5653 217.056 47.8425C216.67 48.1113 216.325 48.4305 216.023 48.7917C215.72 49.1529 215.485 49.5477 215.326 49.9761V54.1509C215.737 55.1673 216.359 56.0157 217.19 56.6793C218.03 57.3345 218.938 57.6705 219.912 57.6705Z" fill="#263238"/>
<path d="M239.014 61.5343C237.518 61.5343 236.065 61.2991 234.637 60.8203C233.209 60.3415 231.991 59.6695 230.975 58.7875L232.672 55.9399C233.755 56.7127 234.814 57.2923 235.847 57.6871C236.88 58.0819 237.896 58.2835 238.921 58.2835C239.828 58.2835 240.534 58.1155 241.055 57.7711C241.576 57.4351 241.836 56.9479 241.836 56.3095C241.836 55.6711 241.534 55.2091 240.92 54.9151C240.307 54.6211 239.316 54.2851 237.938 53.8987C236.788 53.5795 235.805 53.2771 234.99 52.9831C234.175 52.6891 233.52 52.3531 233.024 51.9835C232.529 51.6139 232.168 51.1771 231.941 50.6983C231.714 50.2111 231.605 49.6315 231.605 48.9511C231.605 48.0439 231.781 47.2291 232.134 46.5067C232.487 45.7843 232.974 45.1627 233.612 44.6587C234.242 44.1463 234.99 43.7599 235.838 43.4911C236.687 43.2223 237.611 43.0879 238.602 43.0879C239.938 43.0879 241.189 43.2811 242.348 43.6675C243.516 44.0539 244.583 44.6755 245.557 45.5323L243.726 48.2791C242.819 47.5987 241.945 47.1031 241.097 46.7839C240.248 46.4647 239.408 46.3051 238.568 46.3051C237.796 46.3051 237.157 46.4647 236.636 46.7839C236.116 47.1031 235.855 47.6071 235.855 48.3127C235.855 48.6319 235.914 48.8923 236.04 49.0939C236.166 49.2955 236.359 49.4803 236.636 49.6399C236.905 49.7995 237.266 49.9507 237.703 50.1019C238.148 50.2531 238.694 50.4043 239.35 50.5639C240.568 50.8831 241.618 51.1939 242.491 51.5131C243.365 51.8323 244.07 52.1935 244.625 52.5967C245.179 52.9999 245.582 53.4703 245.851 54.0079C246.112 54.5371 246.238 55.1755 246.238 55.9231C246.238 57.6619 245.591 59.0395 244.306 60.0475C242.987 61.0303 241.231 61.5343 239.014 61.5343Z" fill="#263238"/>
<path d="M250.043 52.1345V36.8633H254.587V52.1345H250.043ZM250.043 61.1981V56.0741H254.587V61.1981H250.043Z" fill="#263238"/>
<path d="M227.304 264.134H197.476V266.578H227.304V264.134Z" fill="#37474F"/>
<path d="M227.304 267.309H197.476V269.753H227.304V267.309Z" fill="#37474F"/>
<path d="M227.304 270.492H197.476V272.937H227.304V270.492Z" fill="#37474F"/>
<path d="M227.304 273.676H197.476V276.12H227.304V273.676Z" fill="#37474F"/>
<path d="M227.304 276.859H197.476V279.304H227.304V276.859Z" fill="#37474F"/>
<path d="M240.223 340.355H183.506V342.8H240.223V340.355Z" fill="#37474F"/>
<path d="M240.223 343.539H183.506V345.983H240.223V343.539Z" fill="#37474F"/>
<path d="M240.223 346.723H183.506V349.167H240.223V346.723Z" fill="#37474F"/>
<path d="M240.223 349.906H183.506V352.351H240.223V349.906Z" fill="#37474F"/>
<path d="M240.223 353.09H183.506V355.534H240.223V353.09Z" fill="#37474F"/>
<path d="M158.617 243.932C158.642 243.605 146.202 239.438 146.202 239.438L146.933 196.691L163.43 193.154L158.617 243.932Z" fill="#2C71F6"/>
<path opacity="0.2" d="M158.617 243.932C158.642 243.605 146.202 239.438 146.202 239.438L146.933 196.691L163.43 193.154L158.617 243.932Z" fill="#202020"/>
<path d="M272.572 260.706C272.656 260.387 285.776 260.757 285.776 260.757L299.796 220.369L285.524 211.373L272.572 260.706Z" fill="#2C71F6"/>
<path opacity="0.2" d="M272.572 260.706C272.656 260.387 285.776 260.757 285.776 260.757L299.796 220.369L285.524 211.373L272.572 260.706Z" fill="#202020"/>
<path d="M156.223 259.674C156.223 259.674 160.835 190.542 164.884 167.803C164.884 167.803 248.396 174.12 293.479 191.348C293.479 191.348 270.236 272.097 269.035 276.104C269.035 276.104 210.227 264.512 156.223 259.674Z" fill="#2C71F6"/>
<path opacity="0.1" d="M230.765 177.026C229.404 185.351 228.035 193.675 226.615 201.983L222.314 226.914L222.079 226.561L250.06 233.206L264.037 236.591L277.998 240.043L263.962 236.902L249.942 233.693L221.936 227.149L221.651 227.082L221.701 226.796L226.162 201.89C227.657 193.608 229.202 185.317 230.765 177.026Z" fill="#202020"/>
<path opacity="0.1" d="M227.699 181.772C227.716 182.537 227.102 183.318 226.229 183.393C225.809 183.435 225.347 183.301 225.002 182.999C224.658 182.696 224.448 182.234 224.448 181.772C224.448 181.302 224.658 180.84 225.002 180.546C225.347 180.243 225.809 180.109 226.229 180.151C227.102 180.227 227.716 181.016 227.699 181.772ZM227.699 181.772C227.699 181.386 227.522 181.008 227.237 180.764C226.951 180.521 226.573 180.42 226.229 180.462C225.523 180.546 225.07 181.176 225.078 181.772C225.07 182.369 225.523 182.999 226.229 183.083C226.573 183.125 226.951 183.024 227.237 182.78C227.522 182.537 227.69 182.159 227.699 181.772Z" fill="#202020"/>
<path opacity="0.1" d="M226.229 192.062C226.246 192.827 225.632 193.608 224.759 193.684C224.339 193.726 223.877 193.591 223.532 193.289C223.188 192.986 222.978 192.524 222.978 192.062C222.978 191.592 223.188 191.13 223.532 190.836C223.877 190.534 224.339 190.399 224.759 190.441C225.641 190.517 226.246 191.298 226.229 192.062ZM226.229 192.062C226.229 191.676 226.052 191.298 225.767 191.054C225.481 190.811 225.103 190.71 224.759 190.752C224.053 190.836 223.6 191.466 223.608 192.062C223.6 192.659 224.053 193.289 224.759 193.373C225.103 193.415 225.481 193.314 225.767 193.07C226.052 192.827 226.229 192.449 226.229 192.062Z" fill="#202020"/>
<path opacity="0.1" d="M224.423 202.932C224.44 203.697 223.826 204.478 222.953 204.554C222.533 204.596 222.071 204.461 221.726 204.159C221.382 203.856 221.172 203.394 221.172 202.932C221.172 202.47 221.382 202 221.726 201.706C222.071 201.404 222.533 201.269 222.953 201.311C223.835 201.378 224.44 202.168 224.423 202.932ZM224.423 202.932C224.423 202.546 224.246 202.168 223.961 201.924C223.675 201.681 223.297 201.58 222.953 201.622C222.247 201.706 221.794 202.336 221.802 202.932C221.794 203.529 222.247 204.159 222.953 204.243C223.297 204.285 223.675 204.184 223.961 203.94C224.246 203.697 224.423 203.319 224.423 202.932Z" fill="#202020"/>
<path opacity="0.1" d="M222.617 213.802C222.634 214.566 222.02 215.347 221.147 215.423C220.727 215.465 220.265 215.33 219.92 215.028C219.576 214.726 219.366 214.264 219.366 213.802C219.366 213.331 219.576 212.869 219.92 212.575C220.265 212.273 220.727 212.138 221.147 212.18C222.029 212.248 222.634 213.037 222.617 213.802ZM222.617 213.802C222.617 213.415 222.44 213.037 222.155 212.794C221.869 212.55 221.491 212.449 221.147 212.491C220.441 212.575 219.988 213.205 219.996 213.802C219.988 214.398 220.441 215.028 221.147 215.112C221.491 215.154 221.869 215.053 222.155 214.81C222.44 214.558 222.617 214.18 222.617 213.802Z" fill="#202020"/>
<path opacity="0.1" d="M228.774 231.131C228.791 231.895 228.178 232.676 227.304 232.752C226.884 232.794 226.422 232.659 226.078 232.357C225.733 232.055 225.523 231.593 225.523 231.131C225.523 230.66 225.733 230.198 226.078 229.904C226.422 229.602 226.884 229.467 227.304 229.509C228.178 229.585 228.791 230.366 228.774 231.131ZM228.774 231.131C228.774 230.744 228.598 230.366 228.312 230.123C228.026 229.879 227.648 229.778 227.304 229.82C226.598 229.904 226.145 230.534 226.153 231.131C226.145 231.727 226.598 232.357 227.304 232.441C227.648 232.483 228.026 232.382 228.312 232.139C228.598 231.895 228.766 231.517 228.774 231.131Z" fill="#202020"/>
<path opacity="0.1" d="M239.03 233.634C239.047 234.398 238.434 235.179 237.56 235.255C237.14 235.297 236.678 235.162 236.334 234.86C235.99 234.558 235.78 234.096 235.78 233.634C235.78 233.163 235.99 232.701 236.334 232.407C236.678 232.105 237.14 231.97 237.56 232.012C238.442 232.088 239.047 232.869 239.03 233.634ZM239.03 233.634C239.03 233.247 238.854 232.869 238.568 232.626C238.283 232.382 237.905 232.281 237.56 232.323C236.855 232.407 236.401 233.037 236.41 233.634C236.401 234.23 236.855 234.86 237.56 234.944C237.905 234.986 238.283 234.885 238.568 234.642C238.854 234.398 239.03 234.02 239.03 233.634Z" fill="#202020"/>
<path opacity="0.1" d="M249.287 236.137C249.304 236.902 248.69 237.683 247.817 237.759C247.397 237.801 246.935 237.666 246.59 237.364C246.246 237.062 246.036 236.6 246.036 236.137C246.036 235.667 246.246 235.205 246.59 234.911C246.935 234.609 247.397 234.474 247.817 234.516C248.699 234.592 249.304 235.373 249.287 236.137ZM249.287 236.137C249.287 235.751 249.11 235.373 248.825 235.13C248.539 234.886 248.161 234.785 247.817 234.827C247.111 234.911 246.658 235.541 246.666 236.137C246.658 236.734 247.111 237.364 247.817 237.448C248.161 237.49 248.539 237.389 248.825 237.146C249.119 236.902 249.287 236.524 249.287 236.137Z" fill="#202020"/>
<path opacity="0.1" d="M259.552 238.64C259.568 239.405 258.955 240.186 258.082 240.262C257.662 240.304 257.2 240.169 256.855 239.867C256.511 239.564 256.301 239.102 256.301 238.64C256.301 238.17 256.511 237.708 256.855 237.414C257.2 237.112 257.662 236.977 258.082 237.019C258.955 237.095 259.568 237.876 259.552 238.64ZM259.552 238.64C259.552 238.254 259.375 237.876 259.09 237.632C258.804 237.389 258.426 237.288 258.082 237.33C257.376 237.414 256.922 238.044 256.931 238.64C256.922 239.237 257.376 239.867 258.082 239.951C258.426 239.993 258.804 239.892 259.09 239.648C259.375 239.405 259.543 239.027 259.552 238.64Z" fill="#202020"/>
<path opacity="0.1" d="M269.808 241.253C269.766 242.017 269.094 242.748 268.22 242.757C267.792 242.765 267.347 242.597 267.028 242.269C266.708 241.942 266.54 241.471 266.574 241.001C266.616 240.539 266.851 240.094 267.221 239.817C267.59 239.539 268.061 239.447 268.481 239.514C269.329 239.665 269.875 240.497 269.808 241.253ZM269.808 241.253C269.833 240.867 269.69 240.48 269.43 240.211C269.161 239.951 268.792 239.817 268.447 239.833C267.742 239.859 267.238 240.455 267.196 241.051C267.137 241.639 267.548 242.311 268.246 242.446C268.582 242.513 268.968 242.437 269.27 242.219C269.573 242.001 269.774 241.639 269.808 241.253Z" fill="#202020"/>
<path opacity="0.1" d="M220.811 224.663C220.828 225.427 220.214 226.209 219.341 226.284C218.921 226.326 218.459 226.192 218.114 225.889C217.77 225.587 217.56 225.125 217.56 224.663C217.56 224.201 217.77 223.73 218.114 223.436C218.459 223.134 218.921 223 219.341 223.042C220.223 223.117 220.828 223.907 220.811 224.663ZM220.811 224.663C220.811 224.276 220.634 223.899 220.349 223.655C220.063 223.411 219.685 223.31 219.341 223.352C218.635 223.436 218.182 224.066 218.19 224.663C218.182 225.259 218.635 225.889 219.341 225.973C219.685 226.015 220.063 225.915 220.349 225.671C220.634 225.427 220.811 225.049 220.811 224.663Z" fill="#202020"/>
<path opacity="0.2" d="M203.532 242.677C213.271 233.921 214.067 218.928 205.311 209.189C196.554 199.451 181.561 198.655 171.823 207.411C162.084 216.167 161.288 231.16 170.044 240.899C178.801 250.637 193.794 251.434 203.532 242.677Z" fill="#202020"/>
<path d="M205.457 231.778C209.175 221.955 204.227 210.978 194.404 207.26C184.582 203.542 173.605 208.491 169.887 218.313C166.169 228.136 171.117 239.113 180.94 242.831C190.762 246.549 201.739 241.6 205.457 231.778Z" fill="#263238"/>
<path d="M186.533 218.052L182.088 217.332L181.368 221.776L185.813 222.496L186.533 218.052Z" fill="#2C71F6"/>
<path d="M182.803 212.886L178.359 212.166L177.639 216.61L182.083 217.33L182.803 212.886Z" fill="#2C71F6"/>
<path d="M200.585 215.767L196.141 215.047L195.421 219.491L199.865 220.211L200.585 215.767Z" fill="#2C71F6"/>
<path d="M179.94 230.568L175.495 229.848L174.775 234.292L179.22 235.012L179.94 230.568Z" fill="#2C71F6"/>
<path d="M197.722 233.448L193.278 232.729L192.558 237.173L197.002 237.893L197.722 233.448Z" fill="#2C71F6"/>
<path d="M185.106 226.838L180.661 226.118L179.942 230.562L184.386 231.282L185.106 226.838Z" fill="#2C71F6"/>
<path d="M190.263 223.167L185.818 222.447L185.098 226.892L189.543 227.612L190.263 223.167Z" fill="#2C71F6"/>
<path d="M195.42 219.488L190.976 218.768L190.256 223.212L194.7 223.932L195.42 219.488Z" fill="#2C71F6"/>
<path d="M194.005 228.28L189.561 227.561L188.841 232.005L193.285 232.725L194.005 228.28Z" fill="#2C71F6"/>
<path d="M269.662 249.998C277.962 239.868 276.479 224.927 266.349 216.626C256.219 208.326 241.278 209.809 232.977 219.939C224.677 230.069 226.16 245.01 236.29 253.311C246.42 261.611 261.361 260.128 269.662 249.998Z" fill="#2C71F6"/>
<path opacity="0.2" d="M269.662 249.998C277.962 239.868 276.479 224.927 266.349 216.626C256.219 208.326 241.278 209.809 232.977 219.939C224.677 230.069 226.16 245.01 236.29 253.311C246.42 261.611 261.361 260.128 269.662 249.998Z" fill="#202020"/>
<path opacity="0.2" d="M274.394 240.462C274.285 240.933 274.159 241.378 274.025 241.831L227.8 231.97C227.909 231.146 228.06 230.323 228.253 229.483C231.277 216.74 244.062 208.87 256.813 211.894C269.548 214.934 277.418 227.719 274.394 240.462Z" fill="#202020"/>
<path d="M258.647 252.529C268.338 248.48 272.912 237.342 268.863 227.651C264.814 217.959 253.676 213.385 243.984 217.434C234.293 221.483 229.719 232.622 233.768 242.313C237.817 252.004 248.956 256.578 258.647 252.529Z" fill="#263238"/>
<path d="M256.105 224.59L251.724 223.549L246.541 245.361L250.921 246.402L256.105 224.59Z" fill="#2C71F6"/>
<path d="M275.772 240.017L227.22 228.475C230.404 215.069 243.86 206.786 257.267 209.97C270.665 213.162 278.956 226.61 275.772 240.017Z" fill="#2C71F6"/>
<path opacity="0.2" d="M275.772 240.017L227.22 228.475C230.404 215.069 243.86 206.786 257.267 209.97C270.665 213.162 278.956 226.61 275.772 240.017Z" fill="#202020"/>
<path opacity="0.1" d="M210.059 249.073C210.185 247.174 210.882 245.251 212.251 243.73C212.932 242.966 213.83 242.361 214.83 242C215.83 241.63 216.913 241.563 217.938 241.655C218.98 241.781 220.046 242.143 220.92 242.806C221.777 243.478 222.424 244.352 222.81 245.301C223.6 247.183 223.692 249.19 223.306 251.055C222.986 249.19 222.508 247.384 221.634 245.897C220.769 244.402 219.391 243.47 217.762 243.327C216.09 243.117 214.469 243.571 213.158 244.671C211.84 245.771 210.84 247.359 210.059 249.073Z" fill="#202020"/>
<path d="M162.725 200.706C162.918 198.169 163.204 195.649 163.447 193.121C163.716 190.601 163.993 188.072 164.304 185.561C164.598 183.041 164.926 180.529 165.245 178.009C165.564 175.489 165.925 172.986 166.261 170.466L166.354 169.794L167.034 169.836C172.502 170.18 177.962 170.626 183.414 171.18C186.144 171.457 188.866 171.776 191.579 172.129C194.292 172.516 197.014 172.877 199.71 173.372L183.313 172.356L166.933 171.298L167.706 170.668C167.336 173.179 166.992 175.691 166.597 178.194C166.211 180.697 165.824 183.209 165.413 185.712C165.01 188.215 164.573 190.718 164.136 193.213C163.657 195.716 163.237 198.22 162.725 200.706Z" fill="white"/>
<path d="M166.664 219.875C167.219 216.826 168.596 213.928 170.461 211.399C170.923 210.761 171.452 210.173 171.956 209.568C172.502 209.005 173.074 208.451 173.636 207.896C174.25 207.401 174.871 206.905 175.501 206.426C176.173 205.998 176.828 205.561 177.509 205.15C178.223 204.805 178.937 204.452 179.659 204.125L181.91 203.344L184.246 202.865C185.027 202.747 185.825 202.73 186.606 202.663C189.764 202.579 192.881 203.26 195.737 204.41C192.696 203.839 189.664 203.528 186.682 203.814C183.7 204.091 180.81 204.982 178.223 206.443C175.61 207.863 173.309 209.828 171.352 212.113C169.411 214.406 167.807 217.002 166.664 219.875Z" fill="white"/>
<path d="M232.084 226.275C233.05 223.335 234.822 220.647 237.014 218.404C237.56 217.842 238.165 217.329 238.745 216.8C239.366 216.313 240.005 215.851 240.643 215.38C241.324 214.969 242.004 214.566 242.693 214.179C243.415 213.852 244.129 213.507 244.86 213.196C245.616 212.953 246.372 212.701 247.136 212.474L249.472 212.012L251.849 211.861C252.638 211.852 253.428 211.945 254.218 211.995C257.359 212.348 260.35 213.448 263.021 214.986C260.089 214.003 257.132 213.272 254.134 213.138C251.143 213.003 248.153 213.482 245.389 214.574C242.609 215.624 240.047 217.254 237.804 219.236C235.561 221.244 233.604 223.596 232.084 226.275Z" fill="white"/>
<path d="M158.878 302.27C152.804 302.27 139.507 300.9 130.948 289.896C120.002 275.818 123.959 248.812 124.127 247.661L128.881 248.384C128.839 248.644 125.068 274.499 134.744 286.94C144.203 299.103 161.364 297.356 161.54 297.339L162.078 302.118C161.885 302.144 160.709 302.27 158.878 302.27Z" fill="#2C71F6"/>
<path opacity="0.4" d="M158.878 302.27C152.804 302.27 139.507 300.9 130.948 289.896C120.002 275.818 123.959 248.812 124.127 247.661L128.881 248.384C128.839 248.644 125.068 274.499 134.744 286.94C144.203 299.103 161.364 297.356 161.54 297.339L162.078 302.118C161.885 302.144 160.709 302.27 158.878 302.27Z" fill="white"/>
<path d="M130.284 251.659C129.419 251.659 128.528 251.584 127.63 251.441C119.608 250.139 116.063 245.343 114.492 241.546C112.921 237.741 112.56 233.138 113.417 227.862L123.589 229.509C123.06 232.776 123.211 235.649 124.026 237.615C124.606 239.009 125.723 240.689 129.284 241.269C130.914 241.529 132.67 241.395 134.518 238.614C135.937 236.472 136.794 233.549 137.096 231.701L147.269 233.348C147.034 234.801 146.034 239.891 143.111 244.309C139.91 249.114 135.425 251.659 130.284 251.659Z" fill="#2C71F6"/>
<path d="M168.924 316.028C168.907 315.81 160.306 314.432 160.306 314.432L156.131 286.368L166.547 282.252L168.924 316.028Z" fill="#2C71F6"/>
<path opacity="0.2" d="M168.924 316.028C168.907 315.81 160.306 314.432 160.306 314.432L156.131 286.368L166.547 282.252L168.924 316.028Z" fill="#202020"/>
<path d="M253.932 316.079C253.957 315.861 262.584 314.677 262.584 314.677L267.38 286.713L257.057 282.37L253.932 316.079Z" fill="#2C71F6"/>
<path opacity="0.2" d="M253.932 316.079C253.957 315.861 262.584 314.677 262.584 314.677L267.38 286.713L257.057 282.37L253.932 316.079Z" fill="#202020"/>
<path d="M165.345 275.978C165.345 275.978 234.889 273.004 258.376 276.919C258.376 276.919 251.479 344.211 251.101 345.513C251.101 345.513 181.927 345.328 171.116 345.513C171.116 345.522 165.261 300.775 165.345 275.978Z" fill="#2C71F6"/>
<path opacity="0.2" d="M186.472 294.424C186.472 294.424 224.431 292.929 237.258 294.903C237.258 294.903 233.495 328.831 233.285 329.494C233.285 329.494 195.518 329.402 189.622 329.494C189.622 329.486 187.026 306.26 186.472 294.424Z" fill="#202020"/>
<path opacity="0.2" d="M191.654 329.469C190.789 329.469 190.092 329.478 189.613 329.486C189.613 329.486 187.026 306.26 186.463 294.416C186.463 294.416 187.328 294.382 188.832 294.332L191.654 329.469Z" fill="#202020"/>
<path d="M202.852 302.791C200.726 302.119 198.458 303.303 197.786 305.428C197.114 307.562 198.299 309.821 200.424 310.493C202.549 311.165 204.817 309.981 205.489 307.856C206.161 305.731 204.985 303.463 202.852 302.791ZM205.019 307.713C204.431 309.586 202.44 310.619 200.575 310.031C198.71 309.443 197.669 307.453 198.257 305.579C198.845 303.715 200.836 302.673 202.709 303.261C204.574 303.849 205.607 305.84 205.019 307.713ZM202.852 302.791C200.726 302.119 198.458 303.303 197.786 305.428C197.114 307.562 198.299 309.821 200.424 310.493C202.549 311.165 204.817 309.981 205.489 307.856C206.161 305.731 204.985 303.463 202.852 302.791ZM205.019 307.713C204.431 309.586 202.44 310.619 200.575 310.031C198.71 309.443 197.669 307.453 198.257 305.579C198.845 303.715 200.836 302.673 202.709 303.261C204.574 303.849 205.607 305.84 205.019 307.713ZM202.852 302.791C200.726 302.119 198.458 303.303 197.786 305.428C197.114 307.562 198.299 309.821 200.424 310.493C202.549 311.165 204.817 309.981 205.489 307.856C206.161 305.731 204.985 303.463 202.852 302.791ZM205.019 307.713C204.431 309.586 202.44 310.619 200.575 310.031C198.71 309.443 197.669 307.453 198.257 305.579C198.845 303.715 200.836 302.673 202.709 303.261C204.574 303.849 205.607 305.84 205.019 307.713ZM204.204 298.523C199.718 297.112 194.939 299.607 193.527 304.084C192.116 308.57 194.603 313.349 199.088 314.761C203.565 316.172 208.345 313.685 209.765 309.2C211.168 304.723 208.681 299.943 204.204 298.523ZM206.094 308.049C205.321 310.502 202.7 311.871 200.239 311.098C197.786 310.325 196.417 307.705 197.19 305.243C197.963 302.791 200.592 301.421 203.045 302.194C205.498 302.967 206.867 305.596 206.094 308.049ZM205.489 307.856C206.161 305.731 204.977 303.463 202.852 302.791C200.726 302.119 198.458 303.303 197.786 305.428C197.114 307.562 198.299 309.821 200.424 310.493C202.558 311.165 204.817 309.989 205.489 307.856ZM205.019 307.713C204.431 309.586 202.44 310.619 200.575 310.031C198.71 309.443 197.669 307.453 198.257 305.579C198.845 303.715 200.836 302.673 202.709 303.261C204.574 303.849 205.607 305.84 205.019 307.713ZM202.852 302.791C200.726 302.119 198.458 303.303 197.786 305.428C197.114 307.562 198.299 309.821 200.424 310.493C202.549 311.165 204.817 309.981 205.489 307.856C206.161 305.731 204.985 303.463 202.852 302.791ZM205.019 307.713C204.431 309.586 202.44 310.619 200.575 310.031C198.71 309.443 197.669 307.453 198.257 305.579C198.845 303.715 200.836 302.673 202.709 303.261C204.574 303.849 205.607 305.84 205.019 307.713ZM202.852 302.791C200.726 302.119 198.458 303.303 197.786 305.428C197.114 307.562 198.299 309.821 200.424 310.493C202.549 311.165 204.817 309.981 205.489 307.856C206.161 305.731 204.985 303.463 202.852 302.791ZM205.019 307.713C204.431 309.586 202.44 310.619 200.575 310.031C198.71 309.443 197.669 307.453 198.257 305.579C198.845 303.715 200.836 302.673 202.709 303.261C204.574 303.849 205.607 305.84 205.019 307.713Z" fill="#2C71F6"/>
<path d="M200.752 314.921L197.627 313.93L197.106 316.198L199.878 317.071L200.752 314.921Z" fill="#2C71F6"/>
<path d="M195.14 311.997L193.628 309.091L191.654 310.317L193.007 312.904L195.14 311.997Z" fill="#2C71F6"/>
<path d="M193.242 305.958L194.225 302.842L191.965 302.312L191.083 305.093L193.242 305.958Z" fill="#2C71F6"/>
<path d="M196.165 300.347L199.072 298.843L197.837 296.869L195.258 298.213L196.165 300.347Z" fill="#2C71F6"/>
<path d="M202.196 298.448L205.321 299.431L205.842 297.171L203.07 296.298L202.196 298.448Z" fill="#2C71F6"/>
<path d="M207.807 301.371L209.319 304.277L211.293 303.043L209.949 300.464L207.807 301.371Z" fill="#2C71F6"/>
<path d="M209.706 307.411L208.723 310.528L210.983 311.057L211.865 308.276L209.706 307.411Z" fill="#2C71F6"/>
<path d="M206.783 313.014L203.885 314.526L205.111 316.5L207.69 315.156L206.783 313.014Z" fill="#2C71F6"/>
<path d="M216.586 314.668C215.326 313.845 213.646 314.206 212.822 315.466C211.999 316.726 212.36 318.406 213.62 319.229C214.88 320.052 216.56 319.691 217.384 318.431C218.19 317.171 217.837 315.491 216.586 314.668ZM217.098 318.246C216.376 319.355 214.897 319.666 213.797 318.943C212.688 318.221 212.377 316.743 213.1 315.642C213.822 314.533 215.3 314.223 216.401 314.945C217.501 315.667 217.82 317.146 217.098 318.246ZM216.586 314.668C215.326 313.845 213.646 314.206 212.822 315.466C211.999 316.726 212.36 318.406 213.62 319.229C214.88 320.052 216.56 319.691 217.384 318.431C218.19 317.171 217.837 315.491 216.586 314.668ZM217.098 318.246C216.376 319.355 214.897 319.666 213.797 318.943C212.688 318.221 212.377 316.743 213.1 315.642C213.822 314.533 215.3 314.223 216.401 314.945C217.501 315.667 217.82 317.146 217.098 318.246ZM216.586 314.668C215.326 313.845 213.646 314.206 212.822 315.466C211.999 316.726 212.36 318.406 213.62 319.229C214.88 320.052 216.56 319.691 217.384 318.431C218.19 317.171 217.837 315.491 216.586 314.668ZM217.098 318.246C216.376 319.355 214.897 319.666 213.797 318.943C212.688 318.221 212.377 316.743 213.1 315.642C213.822 314.533 215.3 314.223 216.401 314.945C217.501 315.667 217.82 317.146 217.098 318.246ZM218.224 312.148C215.569 310.417 212.024 311.173 210.294 313.819C208.572 316.474 209.32 320.019 211.966 321.749C214.612 323.471 218.165 322.723 219.895 320.069C221.626 317.423 220.878 313.87 218.224 312.148ZM217.728 318.658C216.779 320.111 214.83 320.523 213.385 319.582C211.932 318.641 211.52 316.684 212.47 315.239C213.419 313.786 215.368 313.374 216.812 314.323C218.266 315.264 218.677 317.213 217.728 318.658ZM217.375 318.431C218.19 317.171 217.837 315.491 216.586 314.668C215.326 313.845 213.646 314.206 212.822 315.466C211.999 316.726 212.36 318.406 213.62 319.229C214.872 320.044 216.552 319.691 217.375 318.431ZM217.098 318.246C216.376 319.355 214.897 319.666 213.797 318.943C212.688 318.221 212.377 316.743 213.1 315.642C213.822 314.533 215.3 314.223 216.401 314.945C217.501 315.667 217.82 317.146 217.098 318.246ZM216.586 314.668C215.326 313.845 213.646 314.206 212.822 315.466C211.999 316.726 212.36 318.406 213.62 319.229C214.88 320.052 216.56 319.691 217.384 318.431C218.19 317.171 217.837 315.491 216.586 314.668ZM217.098 318.246C216.376 319.355 214.897 319.666 213.797 318.943C212.688 318.221 212.377 316.743 213.1 315.642C213.822 314.533 215.3 314.223 216.401 314.945C217.501 315.667 217.82 317.146 217.098 318.246ZM216.586 314.668C215.326 313.845 213.646 314.206 212.822 315.466C211.999 316.726 212.36 318.406 213.62 319.229C214.88 320.052 216.56 319.691 217.384 318.431C218.19 317.171 217.837 315.491 216.586 314.668ZM217.098 318.246C216.376 319.355 214.897 319.666 213.797 318.943C212.688 318.221 212.377 316.743 213.1 315.642C213.822 314.533 215.3 314.223 216.401 314.945C217.501 315.667 217.82 317.146 217.098 318.246Z" fill="#DBDBDB"/>
<path d="M213.024 322.152L211.176 320.951L210.428 322.32L212.075 323.387L213.024 322.152Z" fill="#DBDBDB"/>
<path d="M209.916 319.237L209.462 317.087L207.959 317.524L208.362 319.447L209.916 319.237Z" fill="#DBDBDB"/>
<path d="M209.773 314.987L210.974 313.139L209.605 312.392L208.538 314.03L209.773 314.987Z" fill="#DBDBDB"/>
<path d="M212.688 311.879L214.838 311.417L214.402 309.922L212.478 310.325L212.688 311.879Z" fill="#DBDBDB"/>
<path d="M216.938 311.736L218.786 312.938L219.534 311.568L217.896 310.493L216.938 311.736Z" fill="#DBDBDB"/>
<path d="M220.046 314.643L220.508 316.802L222.004 316.357L221.6 314.441L220.046 314.643Z" fill="#DBDBDB"/>
<path d="M220.189 318.901L218.988 320.749L220.357 321.497L221.432 319.851L220.189 318.901Z" fill="#DBDBDB"/>
<path d="M217.283 322.01L215.124 322.463L215.569 323.967L217.484 323.564L217.283 322.01Z" fill="#DBDBDB"/>
<path d="M256.696 337.683L259.375 338.188L267.019 286.418L263.97 285.855L256.696 337.683Z" fill="#2C71F6"/>
<path d="M233.285 329.485L237.258 294.894L263.97 285.855C263.97 285.855 256.696 338.246 256.696 337.683L233.285 329.485Z" fill="#2C71F6"/>
<path opacity="0.4" d="M233.285 329.485L237.258 294.894L263.97 285.855C263.97 285.855 256.696 338.246 256.696 337.683L233.285 329.485Z" fill="white"/>
<path d="M168.538 296.297C168.101 293.432 167.866 290.543 167.689 287.653C167.605 286.208 167.572 284.755 167.538 283.31C167.513 281.866 167.488 280.412 167.53 278.968L167.538 278.59L167.908 278.573C173.216 278.287 178.517 277.943 183.826 277.708C189.134 277.447 194.443 277.204 199.752 277.044C194.46 277.523 189.16 277.934 183.859 278.312C178.559 278.724 173.258 279.026 167.958 279.388L168.336 278.984L168.311 283.31L168.361 287.636C168.37 289.081 168.395 290.526 168.437 291.971L168.538 296.297Z" fill="white"/>
<path d="M240.979 295.406C242.634 294.617 244.314 293.886 246.019 293.214C247.716 292.525 249.43 291.87 251.16 291.274C252.89 290.686 254.629 290.106 256.402 289.61C258.166 289.115 259.946 288.653 261.769 288.359L262.214 288.283L262.13 288.712C261.71 290.954 261.274 293.189 260.753 295.415C260.946 293.138 261.223 290.879 261.517 288.619L261.887 288.972C260.123 289.392 258.376 289.888 256.628 290.4C254.881 290.921 253.142 291.467 251.412 292.038L240.979 295.406Z" fill="white"/>
<path opacity="0.1" d="M180.096 276.12L180.55 284.772L180.936 293.424L181.6 310.737L182.12 328.057L182.33 336.709L182.473 345.378L182.02 336.726L181.642 328.074L180.97 310.762L180.449 293.441L180.239 284.781L180.096 276.12Z" fill="#202020"/>
<path opacity="0.1" d="M177.618 281.337C177.786 282.084 177.341 282.966 176.501 283.218C176.098 283.344 175.619 283.302 175.216 283.076C174.821 282.849 174.527 282.437 174.434 281.984C174.342 281.53 174.451 281.034 174.728 280.673C175.006 280.312 175.434 280.085 175.854 280.043C176.736 279.934 177.484 280.589 177.618 281.337ZM177.618 281.337C177.542 280.959 177.299 280.623 176.971 280.438C176.644 280.253 176.249 280.236 175.93 280.337C175.258 280.556 174.93 281.27 175.056 281.849C175.165 282.437 175.736 282.966 176.442 282.908C176.786 282.882 177.139 282.706 177.366 282.412C177.601 282.118 177.694 281.715 177.618 281.337Z" fill="#202020"/>
<path opacity="0.1" d="M178.214 291.711C178.382 292.458 177.937 293.34 177.097 293.592C176.694 293.718 176.215 293.676 175.812 293.45C175.417 293.223 175.123 292.811 175.031 292.358C174.938 291.904 175.048 291.408 175.325 291.047C175.602 290.686 176.03 290.459 176.45 290.417C177.332 290.308 178.08 290.963 178.214 291.711ZM178.214 291.711C178.139 291.333 177.895 290.997 177.568 290.812C177.24 290.627 176.845 290.61 176.526 290.711C175.854 290.93 175.526 291.644 175.652 292.223C175.762 292.811 176.333 293.34 177.038 293.282C177.383 293.256 177.736 293.08 177.962 292.786C178.198 292.492 178.29 292.089 178.214 291.711Z" fill="#202020"/>
<path opacity="0.1" d="M178.592 302.723C178.76 303.47 178.315 304.352 177.475 304.604C177.072 304.73 176.593 304.688 176.19 304.461C175.795 304.235 175.501 303.823 175.409 303.369C175.316 302.916 175.426 302.42 175.711 302.059C175.988 301.698 176.417 301.471 176.837 301.429C177.71 301.32 178.458 301.967 178.592 302.723ZM178.592 302.723C178.517 302.345 178.273 302.009 177.946 301.824C177.618 301.639 177.223 301.622 176.904 301.723C176.232 301.941 175.904 302.655 176.03 303.235C176.14 303.823 176.711 304.352 177.416 304.293C177.761 304.268 178.114 304.092 178.34 303.798C178.576 303.504 178.668 303.101 178.592 302.723Z" fill="#202020"/>
<path opacity="0.1" d="M178.97 313.735C179.138 314.483 178.693 315.365 177.853 315.617C177.45 315.743 176.971 315.701 176.568 315.474C176.173 315.247 175.879 314.836 175.787 314.382C175.694 313.929 175.804 313.433 176.089 313.072C176.366 312.711 176.795 312.484 177.215 312.442C178.088 312.333 178.836 312.979 178.97 313.735ZM178.97 313.735C178.895 313.357 178.651 313.021 178.324 312.837C177.996 312.652 177.601 312.635 177.282 312.736C176.61 312.954 176.282 313.668 176.408 314.248C176.518 314.836 177.089 315.365 177.794 315.306C178.139 315.281 178.492 315.105 178.718 314.811C178.954 314.517 179.046 314.113 178.97 313.735Z" fill="#202020"/>
<path opacity="0.1" d="M179.348 324.74C179.516 325.487 179.071 326.369 178.231 326.621C177.828 326.747 177.349 326.705 176.946 326.478C176.551 326.252 176.257 325.84 176.165 325.386C176.072 324.933 176.182 324.437 176.459 324.076C176.736 323.715 177.164 323.488 177.584 323.446C178.466 323.345 179.214 323.992 179.348 324.74ZM179.348 324.74C179.273 324.362 179.029 324.026 178.702 323.841C178.374 323.656 177.979 323.639 177.66 323.74C176.988 323.958 176.66 324.672 176.786 325.252C176.896 325.84 177.467 326.369 178.172 326.31C178.517 326.285 178.87 326.109 179.096 325.815C179.332 325.529 179.424 325.118 179.348 324.74Z" fill="#202020"/>
<path opacity="0.1" d="M179.726 335.751C179.894 336.499 179.449 337.381 178.609 337.633C178.206 337.759 177.727 337.717 177.324 337.49C176.929 337.263 176.635 336.852 176.543 336.398C176.45 335.944 176.56 335.449 176.837 335.088C177.114 334.726 177.542 334.5 177.962 334.458C178.844 334.357 179.592 335.004 179.726 335.751ZM179.726 335.751C179.651 335.373 179.407 335.037 179.08 334.852C178.752 334.668 178.357 334.651 178.038 334.752C177.366 334.97 177.038 335.684 177.164 336.264C177.274 336.852 177.845 337.381 178.55 337.322C178.895 337.288 179.248 337.12 179.474 336.826C179.71 336.532 179.802 336.129 179.726 335.751Z" fill="#202020"/>
<path d="M183.124 352.589L143.75 364.521L145.144 369.119L184.518 357.187L183.124 352.589Z" fill="#2C71F6"/>
<path opacity="0.4" d="M183.124 352.589L143.75 364.521L145.144 369.119L184.518 357.187L183.124 352.589Z" fill="white"/>
<path d="M164.286 356.744L159.707 358.2L161.871 365.005L166.45 363.548L164.286 356.744Z" fill="#2C71F6"/>
<path d="M144.841 375.862L134.677 331.863L104.009 339.138L119.112 382.02L144.841 375.862Z" fill="#2C71F6"/>
<path d="M151.645 373.628L144.841 375.862L134.677 331.863L144.463 334.198L151.645 373.628Z" fill="#2C71F6"/>
<path opacity="0.2" d="M151.645 373.628L144.841 375.862L134.677 331.863L144.463 334.198L151.645 373.628Z" fill="#202020"/>
<path d="M183.842 360.104C186.723 360.104 189.059 357.768 189.059 354.887C189.059 352.006 186.723 349.671 183.842 349.671C180.961 349.671 178.626 352.006 178.626 354.887C178.626 357.768 180.961 360.104 183.842 360.104Z" fill="#2C71F6"/>
<path d="M237.551 352.467L236.148 357.062L275.498 369.076L276.901 364.481L237.551 352.467Z" fill="#2C71F6"/>
<path opacity="0.4" d="M237.551 352.467L236.148 357.062L275.498 369.076L276.901 364.481L237.551 352.467Z" fill="white"/>
<path d="M256.418 356.632L254.239 363.432L258.814 364.898L260.993 358.099L256.418 356.632Z" fill="#2C71F6"/>
<path d="M275.822 375.829L286.07 331.847L316.73 339.188L301.535 382.037L275.822 375.829Z" fill="#2C71F6"/>
<path d="M269.018 373.578L275.822 375.829L286.07 331.847L276.284 334.157L269.018 373.578Z" fill="#2C71F6"/>
<path opacity="0.2" d="M269.018 373.578L275.822 375.829L286.07 331.847L276.284 334.157L269.018 373.578Z" fill="#202020"/>
<path d="M231.638 354.762C231.63 357.643 233.965 359.987 236.846 359.995C239.728 360.003 242.071 357.668 242.08 354.787C242.088 351.906 239.753 349.562 236.872 349.554C233.99 349.545 231.647 351.872 231.638 354.762Z" fill="#2C71F6"/>
<path d="M271.034 300.489C271.16 300.371 283.802 288.645 298.679 292.652C313.891 296.759 326.458 319.675 326.575 319.901L330.8 317.617C330.254 316.6 317.15 292.652 299.922 288.007C282.4 283.286 268.304 296.432 267.708 296.995L271.034 300.489Z" fill="#2C71F6"/>
<path opacity="0.4" d="M271.034 300.489C271.16 300.371 283.802 288.645 298.679 292.652C313.891 296.759 326.458 319.675 326.575 319.901L330.8 317.617C330.254 316.6 317.15 292.652 299.922 288.007C282.4 283.286 268.304 296.432 267.708 296.995L271.034 300.489Z" fill="white"/>
<path d="M320.981 342.977L330.095 338.163C329.221 336.509 328.146 333.661 327.986 331.091C327.785 327.764 329.104 326.588 330.565 325.824C333.757 324.135 335.664 324.807 336.966 325.572C338.789 326.647 340.645 328.856 342.191 331.779L351.305 326.966C348.81 322.245 345.752 318.785 342.208 316.693C338.671 314.61 332.951 312.913 325.76 316.71C320.158 319.667 317.302 324.992 317.713 331.712C318.024 337.013 320.292 341.675 320.981 342.977Z" fill="#2C71F6"/>
<path d="M272.958 284.437C274.932 283.076 276.956 281.791 278.981 280.514C281.005 279.229 283.063 278.011 285.121 276.784C287.188 275.575 289.254 274.374 291.354 273.223L294.504 271.501C295.571 270.955 296.621 270.384 297.704 269.854C296.722 270.543 295.714 271.19 294.714 271.854L291.682 273.777C289.657 275.054 287.599 276.28 285.541 277.507C283.475 278.716 281.408 279.918 279.3 281.069C277.208 282.228 275.108 283.37 272.958 284.437Z" fill="#263238"/>
<path d="M267.725 304.093C270.556 305.706 273.235 307.52 275.873 309.393C278.502 311.283 281.098 313.224 283.534 315.374C280.703 313.761 278.023 311.947 275.386 310.074C272.765 308.184 270.169 306.243 267.725 304.093Z" fill="#263238"/>
<path d="M272.37 301.674C274.554 302.337 276.704 303.085 278.846 303.849C280.997 304.605 283.114 305.42 285.239 306.235C287.356 307.067 289.472 307.907 291.564 308.797L294.697 310.141C295.73 310.62 296.78 311.065 297.805 311.569C296.713 311.241 295.638 310.872 294.554 310.527L291.337 309.402C289.187 308.646 287.07 307.831 284.945 307.016C282.828 306.185 280.711 305.345 278.62 304.454C276.52 303.564 274.428 302.665 272.37 301.674Z" fill="#263238"/>
<path d="M278.569 286.285C280.661 285.739 282.769 285.285 284.878 284.848C286.986 284.403 289.103 284.017 291.228 283.63C293.353 283.269 295.478 282.908 297.612 282.606L300.812 282.16C301.888 282.043 302.954 281.9 304.03 281.808C302.988 282.085 301.93 282.312 300.88 282.572L297.721 283.244C295.613 283.689 293.496 284.076 291.371 284.462C289.246 284.823 287.12 285.184 284.987 285.487C282.853 285.789 280.72 286.083 278.569 286.285Z" fill="#263238"/>
<path d="M228.161 299.364C228.514 297.667 229.085 296.004 229.824 294.433C230.563 292.854 231.462 291.342 232.596 289.998C233.73 288.67 235.133 287.494 236.821 286.848C238.501 286.218 240.433 286.226 242.122 286.898C243.827 287.562 245.179 288.998 245.902 290.653C246.28 291.476 246.515 292.358 246.616 293.265C246.7 294.172 246.666 295.105 246.305 296.012C246.12 296.457 245.834 296.902 245.381 297.205C245.162 297.356 244.885 297.448 244.625 297.49C244.364 297.524 244.096 297.516 243.785 297.415C243.222 297.18 242.945 296.726 242.701 296.314C242.483 295.894 242.315 295.458 242.206 295.021C241.735 293.265 241.685 291.484 241.769 289.72C242.021 286.209 242.945 282.698 244.835 279.674C245.792 278.179 246.985 276.81 248.48 275.802C249.95 274.794 251.672 274.096 253.428 273.895C254.293 273.685 255.184 273.702 256.066 273.66C256.511 273.609 256.948 273.718 257.384 273.744C257.821 273.802 258.266 273.794 258.695 273.92C260.442 274.231 262.08 274.936 263.609 275.785C265.129 276.667 266.49 277.792 267.725 279.01C268.951 280.245 270.068 281.598 270.967 283.084C268.985 280.254 266.423 277.792 263.407 276.138C261.887 275.348 260.282 274.701 258.594 274.441C258.182 274.323 257.746 274.348 257.326 274.298C256.897 274.29 256.477 274.189 256.057 274.248C255.209 274.306 254.352 274.306 253.529 274.525C251.832 274.76 250.261 275.44 248.884 276.39C247.498 277.339 246.372 278.649 245.473 280.077C243.692 282.967 242.819 286.377 242.6 289.771C242.508 291.468 242.55 293.198 242.97 294.802C243.172 295.575 243.533 296.44 244.062 296.684C244.129 296.692 244.171 296.726 244.255 296.726C244.339 296.718 244.423 296.734 244.507 296.718C244.667 296.692 244.818 296.65 244.952 296.55C245.23 296.373 245.448 296.071 245.591 295.718C245.885 295.004 245.944 294.156 245.868 293.341C245.784 292.518 245.574 291.703 245.238 290.947C244.574 289.435 243.398 288.133 241.87 287.494C240.349 286.848 238.568 286.797 236.998 287.343C235.41 287.914 234.041 289.006 232.907 290.266C230.622 292.82 229.076 296.029 228.161 299.364Z" fill="#263238"/>
<path d="M150.545 321.128C151.36 319.599 152.544 318.281 153.938 317.231C155.324 316.189 156.929 315.374 158.642 314.979C160.348 314.568 162.187 314.559 163.892 315.08C165.606 315.593 167.143 316.592 168.378 317.869C169.621 319.146 170.545 320.7 171.184 322.346C171.805 324.001 172.183 325.765 172.049 327.579C171.956 328.47 171.78 329.427 171.074 330.2C170.722 330.578 170.184 330.83 169.663 330.839C169.159 330.83 168.68 330.755 168.218 330.511C167.756 330.276 167.387 329.856 167.177 329.402C166.967 328.94 166.883 328.461 166.858 327.991C166.824 327.05 167.026 326.16 167.303 325.303C167.866 323.598 168.79 322.069 169.873 320.675C170.957 319.289 172.242 318.045 173.678 317.021C176.526 314.954 180.146 313.803 183.683 314.265C185.43 314.501 187.16 315.005 188.689 315.895C190.235 316.752 191.57 317.953 192.654 319.314C193.746 320.683 194.594 322.229 195.241 323.833C195.896 325.437 196.375 327.117 196.61 328.831C195.905 325.463 194.519 322.195 192.318 319.591C191.226 318.289 189.907 317.172 188.412 316.382C186.934 315.567 185.27 315.122 183.599 314.937C180.239 314.568 176.828 315.643 174.115 317.651C171.41 319.641 169.193 322.422 168.076 325.563C167.815 326.345 167.63 327.168 167.656 327.957C167.672 328.739 167.95 329.495 168.58 329.814C168.874 329.982 169.277 330.049 169.63 330.057C169.974 330.049 170.276 329.915 170.512 329.663C170.999 329.15 171.209 328.31 171.284 327.512C171.419 325.874 171.074 324.177 170.486 322.607C169.89 321.036 169.008 319.566 167.866 318.339C166.723 317.113 165.287 316.155 163.699 315.635C162.112 315.105 160.373 315.063 158.718 315.416C155.434 316.13 152.368 318.197 150.545 321.128Z" fill="#263238"/>
<path d="M111.678 118.277C111.586 114.825 110.846 111.339 109.242 108.306C108.436 106.803 107.369 105.417 105.966 104.484C104.563 103.577 102.824 103.199 101.195 103.468C99.5568 103.728 98.1036 104.711 97.0956 106.021C96.5832 106.677 96.1884 107.416 95.9112 108.189C95.6424 108.961 95.4912 109.801 95.6088 110.566C95.6676 110.944 95.802 111.297 96.0288 111.532C96.138 111.658 96.2724 111.733 96.4236 111.801C96.4908 111.843 96.5832 111.843 96.6588 111.868C96.7428 111.885 96.7932 111.859 96.8604 111.868C97.4316 111.759 97.9944 111.003 98.3724 110.305C99.1704 108.844 99.624 107.172 99.9348 105.501C100.531 102.157 100.498 98.6379 99.456 95.4039C98.9268 93.7995 98.1456 92.2707 97.02 91.0107C95.9028 89.7591 94.542 88.7259 92.9544 88.0875C92.2068 87.6759 91.3752 87.4743 90.5688 87.2139C90.1656 87.0543 89.7372 87.0543 89.3172 86.9619C88.8972 86.9031 88.4772 86.7855 88.0572 86.7939C86.352 86.6427 84.6384 86.8947 82.9836 87.2979C79.6656 88.1799 76.5912 89.9607 73.9872 92.2371C75.2136 91.0023 76.6164 89.9607 78.1032 89.0535C79.5984 88.1631 81.186 87.3903 82.8744 86.9031C84.5628 86.4495 86.3268 86.1555 88.0908 86.2731C88.536 86.2479 88.9644 86.3655 89.4096 86.4159C89.8464 86.4999 90.2916 86.4999 90.7116 86.6511C91.56 86.9031 92.4336 87.0963 93.2232 87.5079C94.878 88.1211 96.39 89.2131 97.5744 90.5403C98.784 91.8675 99.6156 93.4887 100.187 95.1687C101.304 98.5539 101.363 102.191 100.766 105.66C100.43 107.391 99.9516 109.113 99.078 110.7C98.8596 111.095 98.5992 111.481 98.2884 111.843C97.9608 112.179 97.5744 112.548 96.9696 112.649C96.6504 112.683 96.3816 112.624 96.138 112.523C95.886 112.422 95.6508 112.271 95.466 112.069C95.088 111.675 94.92 111.171 94.8444 110.692C94.71 109.734 94.9032 108.81 95.1972 107.953C95.508 107.097 95.9448 106.299 96.5076 105.585C97.608 104.157 99.2628 103.081 101.077 102.846C102.875 102.594 104.756 103.048 106.235 104.064C107.713 105.097 108.797 106.567 109.578 108.13C110.359 109.709 110.872 111.389 111.216 113.103C111.586 114.799 111.745 116.538 111.678 118.277Z" fill="#263238"/>
<path d="M297.167 162.091C293.782 161.377 290.228 161.276 286.902 162.133C285.256 162.57 283.651 163.284 282.425 164.426C281.215 165.577 280.442 167.182 280.325 168.828C280.19 170.474 280.812 172.121 281.854 173.406C282.366 174.053 282.996 174.616 283.685 175.061C284.374 175.498 285.155 175.842 285.919 175.909C286.297 175.943 286.675 175.884 286.952 175.724C287.095 175.649 287.204 175.531 287.305 175.405C287.356 175.346 287.381 175.262 287.423 175.187C287.456 175.111 287.448 175.052 287.473 174.994C287.498 174.414 286.894 173.692 286.306 173.154C285.071 172.037 283.55 171.205 282.005 170.516C278.888 169.156 275.461 168.366 272.076 168.626C270.396 168.769 268.724 169.172 267.238 169.97C265.759 170.76 264.432 171.844 263.449 173.246C262.87 173.876 262.483 174.641 262.038 175.363C261.794 175.716 261.685 176.136 261.5 176.514C261.349 176.909 261.131 177.287 261.047 177.707C260.509 179.328 260.341 181.05 260.35 182.764C260.434 186.199 261.442 189.601 263.054 192.667C262.147 191.189 261.458 189.576 260.921 187.921C260.4 186.258 260.022 184.536 259.938 182.78C259.888 181.033 260.014 179.252 260.543 177.556C260.627 177.119 260.837 176.724 260.988 176.312C261.173 175.909 261.274 175.472 261.517 175.103C261.962 174.338 262.349 173.532 262.937 172.86C263.92 171.39 265.331 170.18 266.902 169.34C268.481 168.475 270.245 168.047 272.017 167.879C275.57 167.585 279.115 168.374 282.349 169.76C283.954 170.491 285.516 171.356 286.86 172.583C287.196 172.885 287.507 173.23 287.784 173.616C288.036 174.019 288.305 174.473 288.263 175.086C288.212 175.405 288.103 175.649 287.952 175.867C287.792 176.086 287.591 176.287 287.347 176.413C286.868 176.682 286.339 176.732 285.869 176.69C284.903 176.598 284.054 176.195 283.29 175.708C282.534 175.204 281.854 174.59 281.291 173.876C280.157 172.474 279.502 170.617 279.695 168.794C279.871 166.98 280.753 165.266 282.08 164.057C283.433 162.856 285.113 162.15 286.818 161.755C288.532 161.36 290.296 161.26 292.034 161.327C293.756 161.377 295.495 161.629 297.167 162.091Z" fill="#263238"/>
<path d="M245.162 107.743C244.591 105.752 244.507 103.627 244.835 101.569C245.154 99.5112 245.851 97.4952 246.994 95.7228C248.111 93.9504 249.682 92.4216 251.572 91.4388C253.453 90.456 255.604 90.0276 257.72 90.0948C259.846 90.1536 261.929 90.6996 263.844 91.5732C265.759 92.4636 267.548 93.6648 268.943 95.3112C269.606 96.1428 270.245 97.1088 270.287 98.3268C270.304 98.9232 270.06 99.57 269.632 100.007C269.203 100.418 268.741 100.746 268.153 100.914C267.574 101.09 266.935 101.048 266.381 100.838C265.826 100.628 265.364 100.284 264.953 99.906C264.146 99.1416 263.575 98.2092 263.105 97.2516C262.172 95.328 261.677 93.2532 261.442 91.1616C261.206 89.07 261.274 86.9448 261.635 84.87C262.34 80.7288 264.474 76.7304 267.868 74.1768C269.556 72.9168 271.446 71.9004 273.496 71.3796C275.528 70.8252 277.67 70.7244 279.737 70.9764C281.812 71.2368 283.828 71.8332 285.734 72.6564C287.641 73.4796 289.464 74.5044 291.102 75.7644C287.692 73.4544 283.769 71.7996 279.686 71.3964C277.654 71.1864 275.587 71.3292 273.638 71.9004C271.673 72.438 269.875 73.4544 268.279 74.6976C266.7 75.9576 265.356 77.52 264.373 79.284C263.382 81.048 262.735 82.9968 262.391 84.996C261.736 88.986 262.156 93.228 263.844 96.882C264.281 97.7808 264.81 98.646 265.507 99.3096C266.188 99.9732 267.086 100.41 267.926 100.141C268.338 100.032 268.75 99.7464 269.06 99.4524C269.354 99.15 269.514 98.7552 269.506 98.3184C269.497 97.4364 268.96 96.5376 268.346 95.7816C267.078 94.2528 265.356 93.0768 263.533 92.2284C261.702 91.38 259.703 90.8592 257.687 90.7668C255.671 90.6744 253.63 91.0608 251.832 91.9596C250.026 92.8416 248.489 94.2696 247.372 95.9664C245.129 99.36 244.247 103.703 245.162 107.743Z" fill="#263238"/>
<path d="M147.731 321.313C145.849 320.717 143.842 321.767 143.254 323.649C142.657 325.53 143.707 327.538 145.589 328.126C147.47 328.722 149.47 327.672 150.066 325.791C150.662 323.917 149.612 321.91 147.731 321.313ZM149.654 325.665C149.134 327.319 147.37 328.235 145.723 327.714C144.068 327.193 143.153 325.429 143.674 323.783C144.194 322.128 145.958 321.213 147.605 321.733C149.251 322.254 150.175 324.01 149.654 325.665ZM147.731 321.313C145.849 320.717 143.842 321.767 143.254 323.649C142.657 325.53 143.707 327.538 145.589 328.126C147.47 328.722 149.47 327.672 150.066 325.791C150.662 323.917 149.612 321.91 147.731 321.313ZM149.654 325.665C149.134 327.319 147.37 328.235 145.723 327.714C144.068 327.193 143.153 325.429 143.674 323.783C144.194 322.128 145.958 321.213 147.605 321.733C149.251 322.254 150.175 324.01 149.654 325.665ZM147.731 321.313C145.849 320.717 143.842 321.767 143.254 323.649C142.657 325.53 143.707 327.538 145.589 328.126C147.47 328.722 149.47 327.672 150.066 325.791C150.662 323.917 149.612 321.91 147.731 321.313ZM149.654 325.665C149.134 327.319 147.37 328.235 145.723 327.714C144.068 327.193 143.153 325.429 143.674 323.783C144.194 322.128 145.958 321.213 147.605 321.733C149.251 322.254 150.175 324.01 149.654 325.665ZM148.924 317.542C144.959 316.29 140.725 318.499 139.482 322.456C138.23 326.421 140.431 330.646 144.404 331.897C148.369 333.149 152.594 330.94 153.846 326.975C155.089 323.019 152.888 318.793 148.924 317.542ZM150.595 325.959C149.915 328.134 147.588 329.344 145.421 328.655C143.254 327.975 142.044 325.648 142.724 323.481C143.405 321.305 145.732 320.104 147.899 320.784C150.066 321.473 151.284 323.791 150.595 325.959ZM150.066 325.799C150.662 323.917 149.612 321.91 147.739 321.322C145.858 320.725 143.85 321.775 143.262 323.657C142.666 325.539 143.716 327.546 145.597 328.134C147.47 328.722 149.47 327.681 150.066 325.799ZM149.654 325.665C149.134 327.319 147.37 328.235 145.723 327.714C144.068 327.193 143.153 325.429 143.674 323.783C144.194 322.128 145.958 321.213 147.605 321.733C149.251 322.254 150.175 324.01 149.654 325.665ZM147.731 321.313C145.849 320.717 143.842 321.767 143.254 323.649C142.657 325.53 143.707 327.538 145.589 328.126C147.47 328.722 149.47 327.672 150.066 325.791C150.662 323.917 149.612 321.91 147.731 321.313ZM149.654 325.665C149.134 327.319 147.37 328.235 145.723 327.714C144.068 327.193 143.153 325.429 143.674 323.783C144.194 322.128 145.958 321.213 147.605 321.733C149.251 322.254 150.175 324.01 149.654 325.665ZM147.731 321.313C145.849 320.717 143.842 321.767 143.254 323.649C142.657 325.53 143.707 327.538 145.589 328.126C147.47 328.722 149.47 327.672 150.066 325.791C150.662 323.917 149.612 321.91 147.731 321.313ZM149.654 325.665C149.134 327.319 147.37 328.235 145.723 327.714C144.068 327.193 143.153 325.429 143.674 323.783C144.194 322.128 145.958 321.213 147.605 321.733C149.251 322.254 150.175 324.01 149.654 325.665Z" fill="#455A64"/>
<path d="M145.874 332.04L143.111 331.166L142.649 333.174L145.102 333.946L145.874 332.04Z" fill="#455A64"/>
<path d="M140.91 329.452L139.574 326.882L137.827 327.974L139.02 330.259L140.91 329.452Z" fill="#455A64"/>
<path d="M139.23 324.118L140.104 321.355L138.096 320.893L137.323 323.345L139.23 324.118Z" fill="#455A64"/>
<path d="M141.817 319.154L144.388 317.819L143.296 316.071L141.011 317.264L141.817 319.154Z" fill="#455A64"/>
<path d="M147.151 317.474L149.915 318.339L150.377 316.34L147.924 315.567L147.151 317.474Z" fill="#455A64"/>
<path d="M152.116 320.061L153.451 322.623L155.198 321.54L154.006 319.255L152.116 320.061Z" fill="#455A64"/>
<path d="M153.796 325.396L152.922 328.159L154.93 328.621L155.702 326.168L153.796 325.396Z" fill="#455A64"/>
<path d="M151.208 330.359L148.638 331.695L149.73 333.442L152.015 332.249L151.208 330.359Z" fill="#455A64"/>
<path d="M287.003 297.315C290.791 292.216 289.724 285.009 284.617 281.221C279.51 277.432 272.303 278.499 268.523 283.598C264.734 288.705 265.801 295.912 270.908 299.701C276.007 303.489 283.214 302.422 287.003 297.315ZM282.08 293.661C280.308 296.047 276.948 296.542 274.562 294.778C272.177 293.006 271.681 289.646 273.454 287.26C275.226 284.875 278.586 284.379 280.972 286.151C283.349 287.915 283.853 291.275 282.08 293.661Z" fill="#263238"/>
<path d="M272.966 300.633L269.413 297.995L267.742 300.658L270.908 303.001L272.966 300.633Z" fill="#263238"/>
<path d="M267.095 294.416L266.448 290.04L263.382 290.737L263.962 294.635L267.095 294.416Z" fill="#263238"/>
<path d="M267.338 285.865L269.976 282.312L267.313 280.641L264.97 283.807L267.338 285.865Z" fill="#263238"/>
<path d="M273.554 279.994L277.931 279.347L277.225 276.281L273.336 276.861L273.554 279.994Z" fill="#263238"/>
<path d="M282.106 280.238L285.659 282.867L287.322 280.212L284.164 277.86L282.106 280.238Z" fill="#263238"/>
<path d="M287.977 286.454L288.624 290.83L291.69 290.125L291.11 286.235L287.977 286.454Z" fill="#263238"/>
<path d="M287.734 294.996L285.096 298.549L287.759 300.221L290.102 297.062L287.734 294.996Z" fill="#263238"/>
<path d="M281.518 300.877L277.141 301.524L277.838 304.581L281.736 304.01L281.518 300.877Z" fill="#263238"/>
<path d="M273.647 291.006L276.091 294.089L279.98 293.509L281.425 289.855L278.981 286.772L275.092 287.344L273.647 291.006ZM278.275 289.435C278.83 289.847 278.947 290.628 278.536 291.182C278.124 291.737 277.343 291.854 276.788 291.443C276.234 291.031 276.116 290.25 276.528 289.696C276.948 289.133 277.729 289.024 278.275 289.435Z" fill="#263238"/>
<path d="M295.63 73.2448C293.983 72.724 292.228 73.6396 291.707 75.286C291.186 76.9324 292.102 78.688 293.748 79.2088C295.394 79.7296 297.15 78.814 297.662 77.1676C298.192 75.5212 297.276 73.7656 295.63 73.2448ZM297.31 77.05C296.856 78.4948 295.31 79.3012 293.866 78.8476C292.421 78.394 291.614 76.8484 292.076 75.4036C292.53 73.9588 294.076 73.1524 295.52 73.6144C296.965 74.068 297.763 75.6052 297.31 77.05ZM295.63 73.2448C293.983 72.724 292.228 73.6396 291.707 75.286C291.186 76.9324 292.102 78.688 293.748 79.2088C295.394 79.7296 297.15 78.814 297.662 77.1676C298.192 75.5212 297.276 73.7656 295.63 73.2448ZM297.31 77.05C296.856 78.4948 295.31 79.3012 293.866 78.8476C292.421 78.394 291.614 76.8484 292.076 75.4036C292.53 73.9588 294.076 73.1524 295.52 73.6144C296.965 74.068 297.763 75.6052 297.31 77.05ZM295.63 73.2448C293.983 72.724 292.228 73.6396 291.707 75.286C291.186 76.9324 292.102 78.688 293.748 79.2088C295.394 79.7296 297.15 78.814 297.662 77.1676C298.192 75.5212 297.276 73.7656 295.63 73.2448ZM297.31 77.05C296.856 78.4948 295.31 79.3012 293.866 78.8476C292.421 78.394 291.614 76.8484 292.076 75.4036C292.53 73.9588 294.076 73.1524 295.52 73.6144C296.965 74.068 297.763 75.6052 297.31 77.05ZM296.671 69.9436C293.202 68.8516 289.498 70.7752 288.406 74.2444C287.314 77.7136 289.237 81.418 292.706 82.51C296.176 83.602 299.872 81.6784 300.972 78.2092C302.072 74.74 300.14 71.0356 296.671 69.9436ZM298.133 77.3104C297.536 79.2088 295.504 80.2672 293.605 79.6708C291.707 79.0744 290.648 77.0416 291.245 75.1432C291.841 73.2448 293.874 72.1864 295.772 72.7828C297.679 73.3792 298.738 75.412 298.133 77.3104ZM297.671 77.1676C298.192 75.5212 297.276 73.7656 295.63 73.2448C293.983 72.724 292.228 73.6396 291.707 75.286C291.186 76.9324 292.102 78.688 293.748 79.2088C295.403 79.7296 297.15 78.814 297.671 77.1676ZM297.31 77.05C296.856 78.4948 295.31 79.3012 293.866 78.8476C292.421 78.394 291.614 76.8484 292.076 75.4036C292.53 73.9588 294.076 73.1524 295.52 73.6144C296.965 74.068 297.763 75.6052 297.31 77.05ZM295.63 73.2448C293.983 72.724 292.228 73.6396 291.707 75.286C291.186 76.9324 292.102 78.688 293.748 79.2088C295.394 79.7296 297.15 78.814 297.662 77.1676C298.192 75.5212 297.276 73.7656 295.63 73.2448ZM297.31 77.05C296.856 78.4948 295.31 79.3012 293.866 78.8476C292.421 78.394 291.614 76.8484 292.076 75.4036C292.53 73.9588 294.076 73.1524 295.52 73.6144C296.965 74.068 297.763 75.6052 297.31 77.05ZM295.63 73.2448C293.983 72.724 292.228 73.6396 291.707 75.286C291.186 76.9324 292.102 78.688 293.748 79.2088C295.394 79.7296 297.15 78.814 297.662 77.1676C298.192 75.5212 297.276 73.7656 295.63 73.2448ZM297.31 77.05C296.856 78.4948 295.31 79.3012 293.866 78.8476C292.421 78.394 291.614 76.8484 292.076 75.4036C292.53 73.9588 294.076 73.1524 295.52 73.6144C296.965 74.068 297.763 75.6052 297.31 77.05Z" fill="#263238"/>
<path d="M294 82.6271L291.589 81.8711L291.178 83.6183L293.328 84.2987L294 82.6271Z" fill="#263238"/>
<path d="M289.657 80.3674L288.49 78.1162L286.969 79.0738L288.002 81.073L289.657 80.3674Z" fill="#263238"/>
<path d="M288.187 75.6974L288.952 73.2782L287.196 72.875L286.524 75.0254L288.187 75.6974Z" fill="#263238"/>
<path d="M290.455 71.3546L292.698 70.187L291.749 68.6582L289.75 69.6998L290.455 71.3546Z" fill="#263238"/>
<path d="M295.126 69.8845L297.536 70.6489L297.948 68.8933L295.798 68.2129L295.126 69.8845Z" fill="#263238"/>
<path d="M299.468 72.1445L300.636 74.3957L302.165 73.4381L301.123 71.4473L299.468 72.1445Z" fill="#263238"/>
<path d="M300.938 76.8145L300.174 79.2337L301.93 79.6369L302.602 77.4865L300.938 76.8145Z" fill="#263238"/>
<path d="M298.67 81.1572L296.428 82.3248L297.377 83.8536L299.376 82.812L298.67 81.1572Z" fill="#263238"/>
<path d="M263.533 193.255C261.887 192.734 260.131 193.65 259.61 195.296C259.09 196.943 260.005 198.698 261.652 199.219C263.298 199.74 265.054 198.824 265.566 197.178C266.087 195.523 265.18 193.768 263.533 193.255ZM265.205 197.06C264.751 198.505 263.206 199.312 261.761 198.858C260.316 198.404 259.51 196.859 259.972 195.414C260.425 193.969 261.971 193.163 263.416 193.625C264.86 194.07 265.667 195.607 265.205 197.06ZM263.533 193.255C261.887 192.734 260.131 193.65 259.61 195.296C259.09 196.943 260.005 198.698 261.652 199.219C263.298 199.74 265.054 198.824 265.566 197.178C266.087 195.523 265.18 193.768 263.533 193.255ZM265.205 197.06C264.751 198.505 263.206 199.312 261.761 198.858C260.316 198.404 259.51 196.859 259.972 195.414C260.425 193.969 261.971 193.163 263.416 193.625C264.86 194.07 265.667 195.607 265.205 197.06ZM263.533 193.255C261.887 192.734 260.131 193.65 259.61 195.296C259.09 196.943 260.005 198.698 261.652 199.219C263.298 199.74 265.054 198.824 265.566 197.178C266.087 195.523 265.18 193.768 263.533 193.255ZM265.205 197.06C264.751 198.505 263.206 199.312 261.761 198.858C260.316 198.404 259.51 196.859 259.972 195.414C260.425 193.969 261.971 193.163 263.416 193.625C264.86 194.07 265.667 195.607 265.205 197.06ZM264.575 189.946C261.106 188.854 257.401 190.777 256.309 194.246C255.217 197.716 257.141 201.42 260.61 202.512C264.079 203.604 267.775 201.68 268.876 198.211C269.968 194.742 268.044 191.046 264.575 189.946ZM266.036 197.321C265.44 199.219 263.407 200.278 261.509 199.681C259.61 199.085 258.552 197.052 259.148 195.154C259.745 193.255 261.778 192.197 263.676 192.793C265.574 193.39 266.633 195.422 266.036 197.321ZM265.574 197.17C266.095 195.523 265.18 193.768 263.533 193.247C261.887 192.726 260.131 193.642 259.61 195.288C259.09 196.934 260.005 198.69 261.652 199.211C263.298 199.732 265.054 198.816 265.574 197.17ZM265.205 197.06C264.751 198.505 263.206 199.312 261.761 198.858C260.316 198.404 259.51 196.859 259.972 195.414C260.425 193.969 261.971 193.163 263.416 193.625C264.86 194.07 265.667 195.607 265.205 197.06ZM263.533 193.255C261.887 192.734 260.131 193.65 259.61 195.296C259.09 196.943 260.005 198.698 261.652 199.219C263.298 199.74 265.054 198.824 265.566 197.178C266.087 195.523 265.18 193.768 263.533 193.255ZM265.205 197.06C264.751 198.505 263.206 199.312 261.761 198.858C260.316 198.404 259.51 196.859 259.972 195.414C260.425 193.969 261.971 193.163 263.416 193.625C264.86 194.07 265.667 195.607 265.205 197.06ZM263.533 193.255C261.887 192.734 260.131 193.65 259.61 195.296C259.09 196.943 260.005 198.698 261.652 199.219C263.298 199.74 265.054 198.824 265.566 197.178C266.087 195.523 265.18 193.768 263.533 193.255ZM265.205 197.06C264.751 198.505 263.206 199.312 261.761 198.858C260.316 198.404 259.51 196.859 259.972 195.414C260.425 193.969 261.971 193.163 263.416 193.625C264.86 194.07 265.667 195.607 265.205 197.06Z" fill="#263238"/>
<path d="M261.904 202.638L259.484 201.874L259.081 203.63L261.232 204.302L261.904 202.638Z" fill="#263238"/>
<path d="M257.561 200.37L256.393 198.127L254.864 199.076L255.906 201.075L257.561 200.37Z" fill="#263238"/>
<path d="M256.091 195.699L256.847 193.289L255.1 192.877L254.419 195.027L256.091 195.699Z" fill="#263238"/>
<path d="M258.35 191.357L260.602 190.189L259.644 188.669L257.645 189.702L258.35 191.357Z" fill="#263238"/>
<path d="M263.021 189.887L265.44 190.651L265.843 188.896L263.693 188.224L263.021 189.887Z" fill="#263238"/>
<path d="M267.364 192.155L268.531 194.398L270.06 193.448L269.018 191.449L267.364 192.155Z" fill="#263238"/>
<path d="M268.834 196.825L268.069 199.236L269.825 199.648L270.505 197.497L268.834 196.825Z" fill="#263238"/>
<path d="M266.574 201.168L264.323 202.336L265.28 203.864L267.28 202.823L266.574 201.168Z" fill="#263238"/>
<path d="M79.8168 98.7718C81.1104 93.4546 77.8512 88.0954 72.534 86.8018C67.2168 85.5082 61.8576 88.7674 60.564 94.0846C59.2704 99.4018 62.5296 104.761 67.8468 106.055C73.164 107.348 78.5232 104.089 79.8168 98.7718ZM74.6844 97.5202C74.0796 100.007 71.5764 101.527 69.0984 100.922C66.612 100.317 65.0916 97.8142 65.6964 95.3278C66.3012 92.8414 68.8044 91.321 71.2908 91.9258C73.7688 92.539 75.2892 95.0422 74.6844 97.5202Z" fill="#263238"/>
<path d="M69.7956 106.105L66.0912 105.206L65.6544 107.877L68.9472 108.675L69.7956 106.105Z" fill="#263238"/>
<path d="M63.0504 103.14L61.0764 99.8896L58.8756 101.469L60.6396 104.367L63.0504 103.14Z" fill="#263238"/>
<path d="M60.3792 96.2773L61.2864 92.5813L58.6152 92.1445L57.8088 95.4373L60.3792 96.2773Z" fill="#263238"/>
<path d="M63.3445 89.54L66.6037 87.5576L65.0161 85.3652L62.1265 87.1208L63.3445 89.54Z" fill="#263238"/>
<path d="M70.2073 86.8692L73.9117 87.768L74.3401 85.0968L71.0473 84.2988L70.2073 86.8692Z" fill="#263238"/>
<path d="M76.9524 89.8348L78.9264 93.0856L81.1272 91.5064L79.3632 88.6084L76.9524 89.8348Z" fill="#263238"/>
<path d="M79.6236 96.6973L78.7164 100.393L81.3876 100.83L82.194 97.5373L79.6236 96.6973Z" fill="#263238"/>
<path d="M76.6585 103.434L73.3993 105.416L74.9869 107.608L77.8765 105.853L76.6585 103.434Z" fill="#263238"/>
<path d="M67.1076 98.2508L70.0812 99.8804L72.9792 98.1164L72.9036 94.7312L69.9384 93.1016L67.0404 94.8572L67.1076 98.2508ZM70.2576 95.4452C70.8372 95.588 71.19 96.1676 71.0472 96.7388C70.9044 97.31 70.3248 97.6712 69.7536 97.5284C69.1824 97.3856 68.8212 96.806 68.964 96.2348C69.0984 95.6552 69.678 95.3024 70.2576 95.4452Z" fill="#263238"/>
<path d="M303.736 201.21C301.476 197.766 300.208 193.902 300.208 189.811C300.208 175.363 316.067 163.653 335.622 163.653C355.177 163.653 371.02 175.363 371.02 189.811C371.02 204.259 355.169 215.969 335.622 215.969C326.138 215.969 317.545 213.222 311.195 208.728L298.998 211.827L303.736 201.21Z" fill="white"/>
<path d="M303.736 201.21C301.602 198.035 300.266 194.28 300.124 190.433C300.014 186.585 300.964 182.696 302.938 179.37C304.87 176.018 307.616 173.196 310.724 170.919C313.832 168.635 317.335 166.904 320.998 165.695C324.652 164.477 328.465 163.737 332.312 163.435C336.16 163.149 340.04 163.393 343.846 164.023C344.786 164.216 345.752 164.342 346.685 164.594L349.482 165.35L352.212 166.316C353.119 166.644 353.984 167.089 354.875 167.467C358.361 169.122 361.637 171.297 364.384 174.044C367.13 176.774 369.34 180.117 370.507 183.855C371.675 187.577 371.759 191.667 370.625 195.414C369.524 199.169 367.357 202.545 364.652 205.317C361.939 208.098 358.697 210.307 355.228 212.004C351.758 213.717 348.02 214.843 344.232 215.523C340.435 216.179 336.563 216.456 332.716 216.187C328.868 215.943 325.055 215.238 321.392 214.037C317.738 212.835 314.219 211.155 311.094 208.904L311.254 208.929L299.032 211.937L298.847 211.979L298.922 211.811L303.736 201.21ZM303.736 201.21L299.082 211.869L298.973 211.743L311.144 208.543L311.228 208.518L311.304 208.568C317.587 212.903 325.164 215.162 332.741 215.565C336.538 215.801 340.36 215.49 344.098 214.818C347.827 214.121 351.498 213.02 354.9 211.323C358.302 209.652 361.46 207.476 364.098 204.763C366.727 202.058 368.802 198.791 369.844 195.179C370.927 191.575 370.818 187.669 369.709 184.091C368.6 180.504 366.475 177.27 363.821 174.599C361.158 171.919 357.966 169.785 354.556 168.147C353.682 167.769 352.842 167.333 351.952 167.013L349.272 166.056L346.525 165.308C345.61 165.065 344.66 164.93 343.736 164.737C339.998 164.099 336.176 163.872 332.38 164.115C328.591 164.384 324.828 165.073 321.208 166.249C317.587 167.417 314.118 169.088 311.035 171.314C307.952 173.523 305.231 176.287 303.274 179.555C301.274 182.797 300.283 186.619 300.325 190.433C300.384 194.246 301.652 198.001 303.736 201.21Z" fill="#263238"/>
<path d="M317.402 194.087V196.036H309.481V184.62H317.26V186.569H311.699V189.316H316.504V191.113H311.699V194.087H317.402Z" fill="#263238"/>
<path d="M319.141 196.036V184.62H324.19C324.71 184.62 325.198 184.729 325.643 184.948C326.088 185.166 326.474 185.46 326.794 185.813C327.113 186.174 327.365 186.577 327.55 187.031C327.734 187.485 327.827 187.947 327.827 188.409C327.827 189.148 327.642 189.82 327.272 190.425C326.903 191.029 326.399 191.466 325.769 191.735L328.373 196.027H325.878L323.551 192.205H321.367V196.027H319.141V196.036ZM321.359 190.265H324.139C324.341 190.265 324.534 190.215 324.71 190.122C324.887 190.03 325.038 189.895 325.172 189.727C325.298 189.559 325.399 189.366 325.475 189.139C325.55 188.913 325.584 188.669 325.584 188.417C325.584 188.148 325.542 187.905 325.458 187.678C325.374 187.451 325.256 187.258 325.114 187.09C324.971 186.922 324.803 186.796 324.618 186.703C324.433 186.611 324.24 186.569 324.047 186.569H321.359V190.265Z" fill="#263238"/>
<path d="M329.826 196.036V184.62H334.874C335.395 184.62 335.882 184.729 336.328 184.948C336.773 185.166 337.159 185.46 337.478 185.813C337.798 186.174 338.05 186.577 338.234 187.031C338.419 187.485 338.512 187.947 338.512 188.409C338.512 189.148 338.327 189.82 337.957 190.425C337.588 191.029 337.084 191.466 336.454 191.735L339.058 196.027H336.563L334.236 192.205H332.052V196.027H329.826V196.036ZM332.052 190.265H334.832C335.034 190.265 335.227 190.215 335.404 190.122C335.58 190.03 335.731 189.895 335.866 189.727C335.992 189.559 336.092 189.366 336.168 189.139C336.244 188.913 336.277 188.669 336.277 188.417C336.277 188.148 336.235 187.905 336.151 187.678C336.067 187.451 335.95 187.258 335.807 187.09C335.664 186.922 335.496 186.796 335.311 186.703C335.126 186.611 334.933 186.569 334.74 186.569H332.052V190.265Z" fill="#263238"/>
<path d="M345.391 196.111C344.551 196.111 343.795 195.952 343.115 195.624C342.434 195.297 341.846 194.86 341.359 194.322C340.872 193.785 340.494 193.163 340.225 192.466C339.956 191.769 339.822 191.055 339.822 190.324C339.822 189.559 339.965 188.837 340.25 188.14C340.536 187.443 340.922 186.829 341.426 186.292C341.922 185.754 342.518 185.334 343.207 185.015C343.896 184.696 344.635 184.536 345.442 184.536C346.265 184.536 347.021 184.704 347.701 185.04C348.382 185.376 348.961 185.821 349.448 186.367C349.927 186.913 350.305 187.535 350.574 188.232C350.843 188.929 350.977 189.635 350.977 190.357C350.977 191.122 350.834 191.844 350.557 192.533C350.28 193.222 349.894 193.835 349.398 194.364C348.902 194.893 348.314 195.322 347.626 195.633C346.937 195.96 346.198 196.111 345.391 196.111ZM342.082 190.324C342.082 190.819 342.157 191.29 342.308 191.752C342.46 192.214 342.678 192.617 342.964 192.97C343.249 193.323 343.594 193.608 344.005 193.818C344.417 194.037 344.887 194.137 345.408 194.137C345.946 194.137 346.416 194.028 346.828 193.81C347.239 193.591 347.592 193.297 347.869 192.936C348.155 192.575 348.365 192.163 348.516 191.71C348.659 191.256 348.734 190.794 348.734 190.315C348.734 189.82 348.659 189.349 348.499 188.887C348.34 188.425 348.121 188.022 347.844 187.669C347.558 187.317 347.214 187.031 346.802 186.829C346.391 186.619 345.929 186.519 345.408 186.519C344.87 186.519 344.392 186.628 343.98 186.846C343.56 187.065 343.216 187.359 342.938 187.711C342.661 188.073 342.451 188.476 342.3 188.929C342.149 189.391 342.082 189.853 342.082 190.324Z" fill="#263238"/>
<path d="M352.674 196.036V184.62H357.722C358.243 184.62 358.73 184.729 359.176 184.948C359.621 185.166 360.007 185.46 360.326 185.813C360.646 186.174 360.898 186.577 361.082 187.031C361.267 187.485 361.36 187.947 361.36 188.409C361.36 189.148 361.175 189.82 360.805 190.425C360.436 191.029 359.932 191.466 359.302 191.735L361.906 196.027H359.411L357.084 192.205H354.9V196.027H352.674V196.036ZM354.892 190.265H357.672C357.874 190.265 358.067 190.215 358.243 190.122C358.42 190.03 358.571 189.895 358.705 189.727C358.831 189.559 358.932 189.366 359.008 189.139C359.083 188.913 359.117 188.669 359.117 188.417C359.117 188.148 359.075 187.905 358.991 187.678C358.907 187.451 358.789 187.258 358.646 187.09C358.504 186.922 358.336 186.796 358.151 186.703C357.966 186.611 357.773 186.569 357.58 186.569H354.892V190.265Z" fill="#263238"/>
</svg>
