<svg width="630" height="420" viewBox="0 0 630 420" fill="none" xmlns="http://www.w3.org/2000/svg">
<path d="M116.012 405.335C109.822 376.825 124.379 354.473 124.379 354.473C135.29 376.615 116.012 405.335 116.012 405.335Z" fill="#F8F9FB"/>
<path d="M114.4 320.36C132.3 320.259 144.749 332.221 144.749 332.221C130.334 336.068 114.4 320.36 114.4 320.36Z" fill="#F8F9FB"/>
<path d="M152.561 334.305C156.803 355.389 145.681 372.81 145.681 372.81C137.861 356.707 152.561 334.305 152.561 334.305Z" fill="#F8F9FB"/>
<path d="M105.974 362.561C105.739 362.233 118.247 352.977 133.896 341.88C149.554 330.784 162.431 322.056 162.658 322.384C162.884 322.712 150.385 331.968 134.728 343.065C119.087 354.153 106.21 362.88 105.974 362.561Z" fill="#F8F9FB"/>
<path d="M72.0972 394.121C72.0972 394.121 83.0172 362.688 112.459 358.547C112.451 358.538 103.513 385.494 72.0972 394.121Z" fill="#F8F9FB"/>
<path d="M75.2892 346.861C75.2892 346.861 102.791 328.129 128.898 342.351C128.898 342.359 105.655 358.663 75.2892 346.861Z" fill="#F8F9FB"/>
<path d="M491.282 23.8652C496.482 52.568 481.152 74.408 481.152 74.408C471.022 51.9044 491.282 23.8652 491.282 23.8652Z" fill="#F8F9FB"/>
<path d="M489.955 108.848C472.063 108.327 460.034 95.9375 460.034 95.9375C474.566 92.5943 489.955 108.848 489.955 108.848Z" fill="#F8F9FB"/>
<path d="M452.298 93.585C448.795 72.3666 460.505 55.3398 460.505 55.3398C467.771 71.7114 452.298 93.585 452.298 93.585Z" fill="#F8F9FB"/>
<path d="M499.833 66.965C500.052 67.301 487.234 76.1209 471.206 86.6629C455.171 97.2133 442.008 105.487 441.781 105.151C441.563 104.815 454.373 96.0038 470.408 85.4534C486.444 74.9114 499.615 66.629 499.833 66.965Z" fill="#F8F9FB"/>
<path d="M534.786 36.5996C534.786 36.5996 522.782 67.6376 493.214 70.754C493.223 70.754 503.093 44.1344 534.786 36.5996Z" fill="#F8F9FB"/>
<path d="M529.956 83.7158C529.956 83.7158 501.816 101.482 476.221 86.3618C476.221 86.3618 500.018 70.8722 529.956 83.7158Z" fill="#F8F9FB"/>
<path d="M72.5172 177.443C75.9864 175.343 79.674 173.755 83.4876 172.68L85.7472 161.827L104.093 161.508L106.73 172.277C110.578 173.226 114.324 174.679 117.86 176.653L127.134 170.58L140.33 183.323L134.585 192.798C136.685 196.267 138.272 199.963 139.348 203.768L150.2 206.028L150.52 224.373L139.751 227.011C138.802 230.858 137.348 234.596 135.374 238.141L141.448 247.415L128.705 260.611L119.23 254.865C115.76 256.965 112.064 258.553 108.259 259.628L106 270.481L87.6539 270.8L85.0163 260.031C81.1692 259.082 77.4312 257.629 73.8864 255.655L64.6127 261.728L51.4164 248.985L57.162 239.51C55.062 236.041 53.4743 232.345 52.3907 228.54L41.538 226.28L41.2188 207.935L51.9875 205.297C52.9368 201.45 54.3983 197.712 56.3639 194.167L50.2907 184.893L63.0336 171.697L72.5172 177.443ZM82.2948 201.878C74.7432 209.699 74.9616 222.156 82.782 229.707C90.6024 237.259 103.06 237.041 110.611 229.22C118.163 221.4 117.944 208.943 110.124 201.391C102.304 193.839 89.8464 194.058 82.2948 201.878Z" fill="#EBEBEB"/>
<path d="M573.157 216.385C574.619 215.503 576.173 214.831 577.769 214.378L578.718 209.808L586.438 209.674L587.546 214.201C589.168 214.596 590.738 215.209 592.225 216.041L596.123 213.487L601.675 218.847L599.256 222.837C600.138 224.298 600.81 225.852 601.264 227.448L605.833 228.397L605.968 236.117L601.44 237.226C601.045 238.839 600.432 240.418 599.6 241.905L602.154 245.802L596.795 251.355L592.805 248.935C591.343 249.817 589.789 250.489 588.193 250.943L587.244 255.513L579.524 255.647L578.416 251.119C576.803 250.725 575.224 250.103 573.737 249.28L569.839 251.833L564.287 246.474L566.706 242.484C565.824 241.023 565.152 239.469 564.698 237.873L560.129 236.923L559.994 229.204L564.522 228.095C564.917 226.482 565.538 224.903 566.362 223.416L563.808 219.519L569.167 213.966L573.157 216.385ZM577.273 226.667C574.098 229.96 574.19 235.201 577.475 238.377C580.768 241.552 586.009 241.459 589.184 238.167C592.36 234.874 592.267 229.632 588.983 226.457C585.69 223.282 580.448 223.374 577.273 226.667Z" fill="#EBEBEB"/>
<path d="M286.138 190.269C288.96 188.564 291.959 187.27 295.05 186.397L296.89 177.577L311.8 177.316L313.942 186.069C317.066 186.842 320.107 188.026 322.988 189.631L330.523 184.692L341.25 195.049L336.58 202.752C338.285 205.574 339.578 208.573 340.452 211.664L349.272 213.504L349.532 228.414L340.78 230.556C340.007 233.68 338.822 236.721 337.218 239.602L342.157 247.137L331.8 257.864L324.097 253.194C321.275 254.899 318.276 256.192 315.185 257.066L313.345 265.886L298.435 266.146L296.293 257.394C293.168 256.621 290.128 255.436 287.246 253.832L279.712 258.771L268.985 248.414L273.655 240.711C271.95 237.889 270.656 234.89 269.783 231.799L260.963 229.959L260.702 215.049L269.455 212.899C270.228 209.774 271.412 206.733 273.017 203.852L268.078 196.317L278.435 185.59L286.138 190.269ZM294.084 210.135C287.952 216.494 288.128 226.616 294.479 232.756C300.838 238.888 310.96 238.712 317.092 232.362C323.224 226.003 323.047 215.881 316.697 209.74C310.346 203.6 300.216 203.776 294.084 210.135Z" fill="#EBEBEB"/>
<path d="M204.355 319.697C207.178 317.992 210.176 316.698 213.268 315.825L215.107 307.005L230.017 306.744L232.159 315.497C235.284 316.27 238.325 317.454 241.206 319.059L248.741 314.119L259.468 324.477L254.797 332.179C256.502 335.002 257.796 338.001 258.67 341.092L267.49 342.931L267.75 357.841L258.997 359.983C258.224 363.108 257.04 366.149 255.436 369.03L260.375 376.565L250.018 387.292L242.315 382.621C239.492 384.327 236.494 385.62 233.402 386.494L231.563 395.314L216.653 395.574L214.511 386.821C211.386 386.049 208.345 384.864 205.464 383.26L197.929 388.199L187.202 377.842L191.873 370.139C190.168 367.317 188.874 364.318 188 361.227L179.18 359.387L178.92 344.477L187.673 342.327C188.446 339.202 189.63 336.161 191.234 333.28L186.295 325.745L196.652 315.018L204.355 319.697ZM212.302 339.555C206.17 345.913 206.346 356.035 212.696 362.176C219.055 368.308 229.177 368.131 235.309 361.781C241.441 355.422 241.265 345.3 234.914 339.16C228.564 333.019 218.434 333.196 212.302 339.555Z" fill="#EBEBEB"/>
<path d="M516.02 273.723C519.128 271.841 522.438 270.421 525.857 269.447L527.881 259.711L544.328 259.426L546.697 269.086C550.141 269.934 553.501 271.245 556.676 273.009L564.992 267.557L576.828 278.981L571.679 287.482C573.56 290.59 574.98 293.908 575.954 297.318L585.69 299.343L585.976 315.79L576.316 318.159C575.467 321.603 574.157 324.963 572.393 328.138L577.844 336.454L566.42 348.289L557.92 343.14C554.812 345.022 551.494 346.441 548.083 347.416L546.059 357.151L529.612 357.437L527.243 347.777C523.799 346.929 520.439 345.618 517.264 343.854L508.948 349.306L497.112 337.882L502.261 329.381C500.38 326.273 498.96 322.955 497.986 319.545L488.25 317.52L487.964 301.073L497.624 298.704C498.473 295.26 499.783 291.9 501.547 288.725L496.096 280.409L507.52 268.573L516.02 273.723ZM524.79 295.638C518.02 302.652 518.213 313.824 525.227 320.595C532.241 327.365 543.413 327.172 550.183 320.158C556.954 313.144 556.76 301.972 549.746 295.201C542.732 288.423 531.56 288.624 524.79 295.638Z" fill="#EBEBEB"/>
<path d="M564.228 120.583C568.663 117.475 571.049 111.696 569.789 105.757C568.134 97.9783 560.885 92.9299 553.594 94.4755C546.302 96.0211 541.724 103.573 543.379 111.351C544.648 117.34 549.251 121.683 554.627 122.666C534.988 130.125 540.691 151.982 540.691 151.982L588.748 141.801C588.748 141.801 585.018 119.264 564.228 120.583Z" fill="#EBEBEB"/>
<path d="M564.228 120.583C564.362 120.574 564.53 120.566 564.883 120.549C565.312 120.541 565.9 120.457 566.731 120.507C568.361 120.524 570.822 120.725 573.754 121.792C576.668 122.834 580.003 124.942 582.767 128.386C585.514 131.813 587.79 136.391 588.916 141.784L588.949 141.944L588.79 141.977C575.434 144.817 558.911 148.336 540.75 152.2L540.54 152.242L540.49 152.041C539.969 149.789 539.734 147.454 539.717 145.069C539.708 142.683 539.952 140.255 540.548 137.87C541.43 134.241 543.186 130.847 545.698 128.218C546.949 126.899 548.36 125.765 549.856 124.808C551.351 123.842 552.964 123.119 554.568 122.473L554.602 122.884C551.821 122.372 549.293 120.977 547.361 119.071C545.42 117.164 544.085 114.745 543.404 112.233C541.985 107.176 543.438 101.75 546.655 98.2721C548.276 96.5501 550.276 95.2565 552.418 94.6181C554.551 93.9713 556.769 93.8957 558.81 94.2989C562.926 95.1305 566.101 97.8269 567.924 100.767C568.848 102.245 569.478 103.799 569.822 105.328C570.192 106.849 570.293 108.327 570.226 109.696C570.074 112.443 569.209 114.694 568.243 116.332C567.26 117.979 566.21 119.037 565.454 119.684C565.085 120.028 564.782 120.221 564.572 120.364C564.396 120.465 564.304 120.532 564.228 120.583C564.295 120.532 564.371 120.465 564.514 120.347C564.707 120.188 565.026 119.944 565.379 119.608C566.11 118.945 567.134 117.878 568.084 116.24C569.024 114.61 569.856 112.376 569.982 109.671C570.041 108.327 569.932 106.865 569.554 105.37C569.209 103.875 568.579 102.346 567.664 100.901C565.858 98.0285 562.733 95.4077 558.718 94.6097C556.727 94.2233 554.568 94.3073 552.493 94.9373C550.41 95.5673 548.478 96.8273 546.899 98.5073C543.782 101.901 542.371 107.185 543.766 112.107C544.429 114.56 545.74 116.903 547.621 118.751C549.503 120.608 551.964 121.952 554.652 122.447L555.374 122.582L554.686 122.859C553.106 123.497 551.519 124.22 550.057 125.161C548.596 126.101 547.21 127.21 545.992 128.504C543.53 131.083 541.817 134.401 540.952 137.962C540.372 140.297 540.12 142.7 540.137 145.052C540.145 147.404 540.389 149.731 540.893 151.915L540.641 151.755C558.81 147.925 575.341 144.439 588.706 141.625L588.571 141.818C587.488 136.501 585.245 131.923 582.548 128.529C579.835 125.11 576.559 123.01 573.678 121.943C570.788 120.86 568.344 120.633 566.723 120.583C565.916 120.515 565.253 120.574 564.841 120.557C564.522 120.583 564.354 120.583 564.228 120.583Z" fill="#263238"/>
<path d="M595.627 129.101L586.194 131.151L584.144 121.709L576.097 123.456L578.147 132.889L568.705 134.939L570.452 142.986L579.886 140.937L581.935 150.378L589.982 148.639L587.933 139.198L597.374 137.148L595.627 129.101Z" fill="#2C71F6"/>
<path d="M67.8216 300.998L59.7324 303.417L57.3216 295.328L50.4252 297.386L52.836 305.475L44.7468 307.886L46.8048 314.783L54.894 312.372L57.3132 320.461L64.2096 318.403L61.7904 310.314L69.8796 307.895L67.8216 300.998Z" fill="#2C71F6"/>
<path d="M65.9147 101.305C69.9383 101.044 73.6931 98.2892 75.1883 94.0304C77.1455 88.4444 74.4911 82.43 69.2579 80.5904C64.0247 78.7508 58.1951 81.7832 56.2295 87.3692C54.7175 91.67 55.9691 96.206 59.0015 98.9192C43.6295 96.0632 38.7911 112.166 38.7911 112.166L73.2815 124.296C73.2899 124.287 79.6403 108.512 65.9147 101.305Z" fill="#EBEBEB"/>
<path d="M65.9148 101.305C66.0156 101.355 66.1332 101.422 66.3516 101.531C66.6288 101.691 67.032 101.859 67.5444 102.212C68.5776 102.85 70.0644 103.925 71.526 105.74C72.9792 107.537 74.2896 110.167 74.7264 113.426C75.1548 116.677 74.8272 120.473 73.458 124.346L73.4076 124.497L73.248 124.438C63.6468 121.078 51.786 116.929 38.7408 112.359L38.5392 112.292L38.6064 112.099C39.7152 108.856 41.5464 105.681 44.142 103.085C46.116 101.12 48.552 99.6245 51.1812 98.9273C52.4916 98.5661 53.8272 98.3981 55.1544 98.3645C56.4816 98.3309 57.792 98.4905 59.0688 98.7005L58.884 99.0701C57.3048 97.6589 56.2296 95.7857 55.734 93.8117C55.2384 91.8377 55.3224 89.7713 55.8684 87.9065C56.9268 84.1265 59.9676 81.2285 63.3696 80.2541C65.0748 79.7921 66.8556 79.7417 68.4684 80.1617C70.0812 80.5817 71.5344 81.3965 72.6768 82.4465C74.9784 84.5801 75.9612 87.5369 75.978 90.1157C76.0116 92.7365 75.1128 95.0213 73.9704 96.6929C72.8112 98.3813 71.3748 99.4817 70.1232 100.145C68.8632 100.809 67.7796 101.069 67.0488 101.187C66.3096 101.321 65.9316 101.288 65.9148 101.305C65.8896 101.296 66.2928 101.263 67.0236 101.12C67.746 100.977 68.8044 100.691 70.0392 100.019C71.2656 99.3473 72.6516 98.2469 73.7772 96.5753C74.886 94.9205 75.7428 92.6693 75.684 90.1241C75.6504 87.6041 74.676 84.7397 72.4416 82.6901C71.3328 81.6737 69.93 80.9009 68.376 80.5061C66.8136 80.1029 65.1084 80.1617 63.462 80.6153C60.186 81.5645 57.2628 84.3617 56.2464 88.0241C55.7256 89.8301 55.65 91.8209 56.1288 93.7193C56.6076 95.6177 57.6408 97.4153 59.1528 98.7593L59.6988 99.2465L58.968 99.1205C57.7164 98.9189 56.4396 98.7593 55.146 98.7929C53.8524 98.8265 52.5504 98.9945 51.282 99.3473C48.7284 100.028 46.368 101.473 44.436 103.396C41.9076 105.925 40.0932 109.075 39.0096 112.225L38.8752 111.956C51.912 116.559 63.7644 120.742 73.3488 124.127L73.1388 124.22C74.508 120.431 74.8524 116.66 74.4576 113.459C74.0544 110.242 72.7944 107.638 71.3832 105.849C69.972 104.043 68.5104 102.951 67.5024 102.287C67.0152 101.935 66.57 101.708 66.318 101.54C66.108 101.422 66.0072 101.363 65.9148 101.305Z" fill="#263238"/>
<path d="M510.619 221.189H456.767H416.758H361.595C356.916 221.189 353.119 224.986 353.119 229.665V284.601H349.398C347.668 284.601 345.979 284.164 344.417 283.408C340.334 281.434 335.588 280.628 330.582 281.476C320.645 283.165 312.892 291.413 311.791 301.435C310.279 315.227 321.04 326.887 334.522 326.887C337.798 326.887 340.914 326.189 343.728 324.946C345.19 324.299 346.744 323.93 348.34 323.93H353.111V377.505C353.111 382.184 356.908 385.981 361.586 385.981H510.602C514.416 385.981 517.499 382.889 517.499 379.084V228.086C517.516 224.272 514.433 221.189 510.619 221.189Z" fill="#F8F9FB"/>
<path d="M510.619 221.189C510.619 221.189 510.779 221.189 511.081 221.197C511.232 221.197 511.426 221.214 511.661 221.256C511.888 221.281 512.156 221.331 512.45 221.415C513.601 221.709 515.424 222.549 516.65 224.658C517.255 225.691 517.625 227.043 517.566 228.522C517.566 229.992 517.574 231.605 517.574 233.343C517.583 236.829 517.583 240.853 517.591 245.381C517.608 263.499 517.633 289.699 517.658 322.081C517.667 338.276 517.675 356.009 517.684 375.043C517.684 376.236 517.684 377.429 517.684 378.63C517.7 379.226 517.658 379.856 517.549 380.461C517.406 381.066 517.238 381.662 516.944 382.217C515.861 384.451 513.492 386.055 510.947 386.139C506.024 386.148 501.026 386.156 495.953 386.165C485.814 386.165 475.373 386.173 464.671 386.173C443.26 386.173 420.79 386.181 397.496 386.19C385.846 386.19 373.993 386.19 361.964 386.19C360.444 386.24 358.873 385.896 357.504 385.173C356.152 384.434 354.959 383.351 354.169 382.015C353.346 380.696 352.926 379.134 352.901 377.58C352.901 376.059 352.901 374.539 352.901 373.01C352.901 366.912 352.901 360.771 352.901 354.597C352.901 344.257 352.901 334.017 352.901 323.929L353.119 324.147C351.91 324.147 350.7 324.147 349.49 324.147C348.886 324.156 348.281 324.131 347.693 324.173C347.105 324.215 346.517 324.299 345.937 324.433C345.358 324.567 344.795 324.744 344.249 324.971C343.711 325.189 343.14 325.449 342.577 325.659C341.443 326.088 340.276 326.424 339.091 326.659C337.907 326.903 336.706 327.045 335.496 327.096C334.891 327.129 334.295 327.113 333.69 327.071C333.094 327.029 332.489 327.02 331.892 326.961C329.507 326.659 327.188 326.004 324.988 325.063C322.829 324.038 320.83 322.719 319.04 321.157C317.31 319.536 315.806 317.696 314.588 315.68C313.446 313.622 312.547 311.438 312.018 309.162C311.884 308.591 311.816 308.011 311.716 307.44L311.573 306.575C311.548 306.289 311.539 305.995 311.522 305.701L311.438 303.962L311.531 302.223C311.842 297.595 313.656 293.143 316.504 289.581C319.368 286.028 323.257 283.374 327.533 282.021C331.8 280.652 336.428 280.602 340.662 281.786C341.72 282.08 342.754 282.45 343.762 282.895C344.761 283.365 345.702 283.811 346.744 284.063C347.777 284.331 348.818 284.432 349.894 284.407C350.969 284.407 352.036 284.407 353.111 284.407L352.909 284.609C352.918 268.632 352.918 253.26 352.926 238.585C352.926 236.754 352.926 234.923 352.926 233.117C352.926 232.209 352.926 231.311 352.926 230.403C352.909 229.513 352.951 228.572 353.17 227.69C353.581 225.909 354.589 224.288 355.958 223.112C356.647 222.533 357.42 222.054 358.243 221.693C359.075 221.348 359.948 221.147 360.839 221.063C367.844 220.987 374.615 221.046 381.209 221.037C407.568 221.054 430.727 221.071 449.904 221.088C469.073 221.113 484.243 221.13 494.634 221.147C499.825 221.163 503.815 221.172 506.52 221.18C507.864 221.189 508.889 221.197 509.578 221.197C510.266 221.172 510.619 221.189 510.619 221.189C510.619 221.189 510.266 221.197 509.586 221.205C508.897 221.205 507.872 221.214 506.528 221.222C503.824 221.231 499.834 221.239 494.642 221.256C484.252 221.273 469.081 221.289 449.912 221.315C430.744 221.331 407.576 221.34 381.217 221.365C374.632 221.382 367.819 221.331 360.881 221.407C360.032 221.491 359.192 221.684 358.394 222.012C357.605 222.356 356.866 222.81 356.21 223.373C354.9 224.498 353.934 226.052 353.539 227.757C353.338 228.614 353.296 229.479 353.312 230.387C353.312 231.285 353.312 232.193 353.312 233.1C353.312 234.914 353.312 236.737 353.312 238.568C353.321 253.243 353.321 268.623 353.329 284.592V284.793H353.128C352.061 284.793 350.986 284.793 349.91 284.793C348.835 284.819 347.718 284.718 346.66 284.441C345.593 284.189 344.568 283.701 343.61 283.248C342.628 282.811 341.611 282.45 340.57 282.164C336.412 281.005 331.859 281.055 327.676 282.408C323.484 283.735 319.662 286.339 316.848 289.833C314.051 293.328 312.278 297.696 311.968 302.24L311.875 303.945L311.959 305.651C311.976 305.936 311.984 306.222 312.01 306.507L312.144 307.356C312.245 307.919 312.304 308.49 312.438 309.044C312.959 311.279 313.832 313.421 314.958 315.445C316.159 317.419 317.629 319.233 319.334 320.821C321.09 322.35 323.047 323.643 325.164 324.651C327.314 325.575 329.591 326.222 331.934 326.516C332.522 326.575 333.11 326.583 333.698 326.625C334.286 326.667 334.874 326.684 335.471 326.651C336.655 326.6 337.831 326.457 338.99 326.222C340.15 325.987 341.3 325.659 342.418 325.239C342.98 325.029 343.51 324.794 344.081 324.559C344.652 324.332 345.232 324.147 345.836 324.005C346.433 323.862 347.046 323.769 347.659 323.727C348.281 323.685 348.877 323.711 349.482 323.702C350.692 323.702 351.901 323.702 353.111 323.702H353.329V323.921C353.329 334.009 353.329 344.249 353.329 354.589C353.329 360.763 353.329 366.903 353.329 373.002C353.329 374.522 353.329 376.051 353.329 377.563C353.354 379.041 353.749 380.52 354.53 381.771C355.286 383.04 356.412 384.073 357.697 384.77C359.008 385.459 360.461 385.787 361.948 385.736C373.976 385.736 385.829 385.736 397.48 385.736C420.773 385.745 443.243 385.745 464.654 385.753C475.356 385.753 485.797 385.761 495.936 385.761C501.001 385.761 505.999 385.753 510.913 385.753C513.324 385.677 515.567 384.165 516.6 382.04C516.877 381.519 517.037 380.948 517.171 380.377C517.272 379.797 517.314 379.226 517.306 378.621C517.306 377.42 517.306 376.227 517.306 375.035C517.314 355.992 517.322 338.259 517.331 322.073C517.356 289.691 517.381 263.491 517.398 245.372C517.406 240.845 517.415 236.821 517.415 233.335C517.415 231.596 517.423 229.983 517.423 228.513C517.482 227.043 517.121 225.725 516.533 224.7C515.332 222.617 513.542 221.768 512.392 221.457C512.098 221.373 511.837 221.315 511.61 221.289C511.384 221.247 511.19 221.222 511.039 221.222C510.779 221.205 510.619 221.189 510.619 221.189Z" fill="#263238"/>
<path d="M474.289 312.901C473.928 302.753 473.55 292.564 471.601 282.602C469.652 272.639 467.2 262.929 460.925 254.924L402.217 258.04C399.949 267.037 397.664 276.243 398.614 285.466C399.529 294.412 403.46 303.064 402.822 312.044C402.377 318.386 399.68 324.316 397.69 330.356C395.699 336.395 394.422 343.107 396.791 349.012C397.387 350.499 398.252 351.952 399.605 352.826C401.26 353.901 403.36 353.943 405.334 353.943C428.803 353.977 452.273 353.439 475.717 352.339C475.23 339.193 474.76 326.047 474.289 312.901Z" fill="#263238"/>
<path d="M465.343 280.131C465.704 292.622 460.37 305.163 451.105 313.605C448.988 307.498 446.863 301.391 444.746 295.284" fill="#263238"/>
<path d="M417.362 243.675C422.822 240.71 429.425 240.282 435.532 241.5C441.638 242.718 447.325 245.464 452.71 248.556C455.734 250.294 458.749 252.201 460.916 254.923C464.881 259.887 468.804 268.027 469.182 274.352C469.493 279.468 467.519 292.269 465.343 296.914C463.344 301.173 454.003 304.424 449.4 305.474L407.098 256.569C408.601 251.151 412.39 246.38 417.362 243.675Z" fill="#263238"/>
<path d="M410.071 250.279L420.21 248.473C414.666 261.593 413.162 291.607 409.996 305.483C406.258 300.091 397.58 283.669 398.042 277.142C398.504 270.607 398.026 249.161 410.071 250.279Z" fill="#263238"/>
<path d="M458.153 272.075C457.708 264.565 452.558 258.148 445.225 256.291L421.772 250.344C411.676 249.26 404.939 261.6 404.275 271.672C403.544 282.86 403.091 294.662 404.401 303.012C407.047 319.804 419.983 321.971 419.983 321.971C419.983 321.946 419.983 325.843 419.992 330.749L420.252 331.37C426.25 345.44 446.074 346.087 452.987 332.437L458.203 272.327C458.22 272.024 458.178 272.528 458.153 272.075Z" fill="#FFBF9D"/>
<path d="M442.386 315.99C442.386 315.99 436.892 327.523 419.992 325.911L419.983 321.963C419.983 321.963 431.113 322.693 442.386 315.99Z" fill="#FF9A6C"/>
<path d="M408.862 256.334C409.895 253.806 412.684 252.294 415.422 252.151C418.16 252.016 420.84 253.041 423.209 254.41C433.264 260.19 438.438 274.151 448.375 280.123C450.82 281.593 454.003 280.249 456.078 282.198C458.153 284.147 459.505 287.255 458.354 289.859C459.69 288.036 461.042 286.188 461.798 284.063C462.554 281.937 462.655 279.468 461.521 277.519C460.664 276.041 459.144 274.906 458.724 273.252C458.354 271.79 458.934 270.27 458.875 268.766C458.808 267.237 458.086 265.818 457.33 264.482C453.44 257.636 448.081 251.445 441.185 247.598C436.682 245.086 431.525 243.616 426.367 243.784C421.201 243.961 416.044 245.842 412.264 249.345C410.046 251.412 407.711 253.537 408.862 256.334Z" fill="#263238"/>
<path d="M455.843 284.28C456.019 283.801 464.831 280.635 464.948 289.942C465.058 298.98 455.885 297.208 455.868 296.947C455.843 296.687 455.843 284.28 455.843 284.28Z" fill="#FFBF9D"/>
<path d="M458.632 293.496C458.674 293.47 458.791 293.605 459.06 293.722C459.32 293.84 459.774 293.916 460.244 293.739C461.202 293.378 462 291.858 462.025 290.228C462.042 289.405 461.857 288.624 461.563 287.977C461.278 287.322 460.841 286.86 460.362 286.776C459.883 286.666 459.539 286.96 459.43 287.212C459.312 287.464 459.371 287.649 459.32 287.666C459.295 287.691 459.127 287.515 459.194 287.145C459.228 286.969 459.337 286.75 459.547 286.574C459.766 286.398 460.085 286.305 460.421 286.339C461.126 286.381 461.756 287.019 462.092 287.725C462.462 288.439 462.68 289.312 462.664 290.236C462.622 292.059 461.698 293.773 460.387 294.159C459.749 294.336 459.211 294.142 458.934 293.932C458.648 293.714 458.606 293.512 458.632 293.496Z" fill="#FF9A6C"/>
<path d="M457.17 282.189C457.313 284.658 457.43 287.262 456.28 289.463C455.129 291.656 452.239 293.151 450.08 291.924C448.316 290.925 447.787 288.682 447.493 286.683C446.628 280.92 446.233 275.099 445.326 269.354L457.17 282.189Z" fill="#263238"/>
<path d="M483.731 360.529L510.728 389.282C515.18 394.028 518.414 398.363 524.731 400.017C529.158 401.177 536.096 400.572 538.39 397.657C541.531 393.659 543.026 385.46 539.591 380.177C536.147 374.893 511.98 351.373 511.98 351.373L483.731 360.529Z" fill="#FFBF9D"/>
<path d="M521.128 358.025C521.128 358.025 493.072 324.744 482.404 324.744C482.404 324.744 475.658 336.546 475.44 342.981C475.213 349.415 497.028 379.546 497.028 379.546L521.128 358.025Z" fill="#2C71F6"/>
<path d="M491.24 368.845L482.328 324.669L453.482 324.375C442.856 336.395 431.995 345.005 419.63 331.179L389.256 343.124L397.152 386.023L488.779 385.964C492.341 374.204 491.24 368.845 491.24 368.845Z" fill="#2C71F6"/>
<path d="M368.81 385.963C368.81 384.191 378.974 347.331 389.248 343.123L397.177 355.286L399.412 385.997L368.81 385.963Z" fill="#2C71F6"/>
<path d="M392.591 332.699C392.599 332.808 392.91 332.901 393.49 332.884C394.078 332.875 394.934 332.707 395.968 332.245C396.984 331.775 398.152 330.994 399.235 329.818C400.319 328.65 401.318 327.046 401.957 325.164C402.62 323.283 402.973 321.132 403.099 318.881C403.225 316.621 403.183 314.278 403.091 311.8C402.898 306.844 402.31 301.451 401.654 295.848C400.999 290.237 400.394 284.945 400.151 280.123C399.899 275.302 399.974 270.967 400.302 267.355C400.94 260.106 402.469 255.772 401.957 255.587C401.848 255.545 401.638 255.772 401.352 256.251C401.209 256.494 401.041 256.797 400.848 257.158C400.672 257.527 400.487 257.956 400.277 258.443C399.47 260.392 398.521 263.323 397.883 267.045C397.228 270.766 396.892 275.268 396.967 280.241C397.043 285.214 397.564 290.632 398.219 296.251C398.874 301.871 399.546 307.171 399.907 311.993C400.084 314.395 400.226 316.714 400.226 318.805C400.226 320.905 400.042 322.812 399.605 324.467C398.782 327.802 396.833 329.986 395.279 331.103C393.708 332.212 392.549 332.422 392.591 332.699Z" fill="#263238"/>
<path d="M472.256 286.33C475.44 297.88 472.735 313.328 475.885 322.601C479.027 331.875 481.32 342.173 477.767 351.304C476.137 347.709 474.499 344.114 472.87 340.518C474.852 344.752 474.432 350.002 471.811 353.874C469.19 357.747 455.986 361.048 451.298 360.83C446.552 335.781 447.863 316.629 456.061 297.275L462.395 304.272L468.098 301.836L472.256 286.33Z" fill="#263238"/>
<path d="M442.327 363.702C442.52 363.82 443.218 363.157 444.192 361.737C445.175 360.326 446.351 358.1 447.392 355.202C448.451 352.304 449.282 348.717 449.837 344.718C450.383 340.72 450.635 336.318 450.778 331.74C450.92 327.179 451.046 322.87 451.382 318.998C451.71 315.125 452.231 311.673 452.903 308.834C454.205 303.13 455.969 299.862 455.498 299.585C455.305 299.468 454.616 300.148 453.667 301.584C452.71 303.012 451.576 305.255 450.559 308.162C449.543 311.068 448.745 314.663 448.224 318.662C447.703 322.66 447.476 327.062 447.334 331.64C447.191 336.192 447.048 340.502 446.687 344.366C446.326 348.238 445.78 351.674 445.066 354.504C443.68 360.183 441.857 363.425 442.327 363.702Z" fill="#263238"/>
<path d="M462.655 296.493C462.638 296.519 462.865 296.678 463.168 297.048C463.462 297.417 463.823 298.039 463.907 298.879C464.008 299.711 463.747 300.761 462.932 301.533C462.16 302.315 460.874 302.793 459.623 302.457C458.371 302.155 457.388 301.223 457.019 300.189C456.616 299.148 456.725 298.081 457.019 297.3C457.313 296.502 457.817 295.989 458.237 295.779C458.665 295.569 458.951 295.628 458.951 295.595C458.951 295.586 458.884 295.561 458.749 295.553C458.615 295.544 458.413 295.561 458.178 295.662C457.708 295.847 457.128 296.384 456.784 297.216C456.439 298.039 456.296 299.173 456.716 300.307C457.111 301.441 458.178 302.466 459.539 302.802C460.219 302.97 460.925 302.945 461.555 302.751C462.185 302.55 462.731 302.197 463.151 301.769C463.579 301.34 463.873 300.836 464.033 300.324C464.184 299.811 464.209 299.307 464.142 298.862C464.016 297.963 463.596 297.325 463.26 296.972C462.916 296.603 462.664 296.485 462.655 296.493Z" fill="#F8F9FB"/>
<path d="M520.22 321.383L519.355 310.43L517.112 296.595L513.635 285.263C513.635 285.263 512.929 284.188 511.552 285.204C510.174 286.221 512.131 292.395 512.131 292.395L512.879 297.116C512.879 297.116 512.417 300.87 512.106 300.593C511.795 300.316 510.182 294.008 510.182 294.008L506.024 280.534C506.024 280.534 505.226 279.114 503.588 279.837C502.673 280.232 502.211 281.668 502.547 283.692C502.883 285.717 504.151 289.068 504.37 290.211C504.588 291.362 506.083 297.972 506.083 297.972L499.733 283.079C499.733 283.079 498.322 278.165 496.306 279.106C494.281 280.055 496.079 283.491 496.339 285.036C496.6 286.582 500.774 296.729 500.842 299.678C500.9 302.626 500.279 301.215 500.279 301.215C500.279 301.215 498.54 296.519 497.171 292.823C495.802 289.127 494.113 287.078 492.425 286.977C490.736 286.876 493.912 295.452 493.912 295.452L498.053 307.464L497.784 311.454L494.642 308.22C494.642 308.22 494.063 303.609 490.946 301.996C487.78 300.358 487.318 302.626 487.318 302.626L494.676 319.93C496.272 322.719 505.184 327.515 505.184 327.515L508.612 345.29L527.234 342.19L520.22 321.383Z" fill="#FFBF9D"/>
<path d="M513.047 315.621C512.963 315.721 511.997 314.932 510.367 313.831C508.763 312.781 506.243 311.337 503.32 311.782C502.034 311.967 500.875 312.529 500.119 313.344L499.842 313.647L499.54 313.327C498.187 311.908 496.776 310.69 495.919 309.799C495.02 308.917 494.558 308.304 494.642 308.237C494.701 308.195 495.247 308.665 496.238 309.447C497.213 310.278 498.59 311.295 500.153 312.857L499.565 312.832C500.422 311.857 501.766 311.185 503.21 310.984C504.806 310.74 506.369 311.034 507.629 311.555C508.897 312.067 509.914 312.756 510.72 313.369C512.299 314.621 513.114 315.553 513.047 315.621Z" fill="#FF9A6C"/>
<path d="M515.743 385.03L505.789 329.649L520.867 323.105L541.212 384.157L515.743 385.03Z" fill="#FFBF9D"/>
<path d="M517.154 385.533C517.104 385.542 516.869 384.752 516.491 383.299C516.104 381.846 515.584 379.746 514.97 377.133C513.736 371.917 512.156 364.676 510.535 356.663C508.914 348.641 507.536 341.366 506.579 336.091C506.134 333.546 505.764 331.437 505.487 329.841C505.243 328.363 505.134 327.54 505.184 327.531C505.235 327.523 505.436 328.329 505.764 329.791C506.1 331.378 506.545 333.47 507.083 335.999C508.175 341.366 509.636 348.565 511.249 356.528C512.887 364.483 514.374 371.673 515.474 377.032C516.004 379.569 516.44 381.661 516.768 383.248C517.054 384.71 517.196 385.525 517.154 385.533Z" fill="#FF9A6C"/>
<path d="M487.024 103.705C483.798 103.705 480.74 104.352 477.968 105.511C476.532 106.108 474.995 106.46 473.432 106.46L467.485 106.108L467.191 56.1864C467.191 51.8352 463.462 48.2988 458.858 48.2988L452.256 48.324H400.974H362.88H311.758H310.355C305.903 48.324 302.291 51.852 302.291 56.2116V105.814H298.746C297.1 105.814 295.478 105.419 294.008 104.705C290.262 102.89 283.273 100.555 278.502 101.345C269.044 102.916 259.426 112.441 259.426 121.824C259.426 137.557 271.748 147.419 284.584 147.419C287.708 147.419 290.665 146.772 293.345 145.613C294.731 145.016 295.714 144.68 297.234 144.68L302.282 144.664V193.787C302.282 198.138 305.894 201.674 310.346 201.674H311.749H364.72H404.074H452.239H458.573C463.176 201.674 466.906 198.146 466.906 193.787L467.166 142.698L472.374 143.059C474.079 143.059 475.742 143.471 477.271 144.168C481.286 146.008 485.957 146.755 490.879 145.966C500.657 144.395 508.284 136.717 509.359 127.393C510.871 114.558 500.287 103.705 487.024 103.705Z" fill="#EBEBEB"/>
<path d="M487.024 103.706C487.024 103.706 487.536 103.723 488.552 103.765C488.804 103.773 489.09 103.79 489.401 103.807C489.712 103.84 490.056 103.899 490.426 103.95C490.795 104.008 491.198 104.067 491.635 104.134C492.064 104.193 492.517 104.344 492.996 104.462C494.928 104.924 497.272 105.806 499.733 107.394C502.169 108.981 504.79 111.283 506.73 114.601C507.192 115.441 507.688 116.289 508.04 117.247C508.477 118.162 508.721 119.179 509.023 120.204C509.166 120.716 509.225 121.262 509.326 121.791C509.376 122.06 509.418 122.329 509.468 122.606C509.502 122.883 509.502 123.16 509.527 123.438C509.552 124 509.603 124.563 509.611 125.134C509.578 125.706 509.544 126.285 509.51 126.873C509.326 129.208 508.679 131.619 507.57 133.921C506.47 136.231 504.848 138.398 502.832 140.28C498.834 144.076 492.962 146.504 486.646 146.412C483.496 146.37 480.245 145.681 477.204 144.286C475.709 143.606 474.054 143.203 472.357 143.203C470.652 143.085 468.922 142.968 467.174 142.842L467.326 142.707C467.292 150.83 467.25 159.474 467.208 168.596C467.183 173.157 467.166 177.836 467.141 182.624C467.132 185.018 467.116 187.446 467.107 189.898C467.099 191.125 467.099 192.36 467.09 193.594C467.116 194.854 466.83 196.14 466.242 197.282C465.1 199.592 462.764 201.238 460.194 201.7C458.892 201.927 457.598 201.826 456.305 201.852C455.011 201.852 453.709 201.852 452.399 201.852C447.174 201.852 441.84 201.852 436.405 201.86C425.544 201.86 414.28 201.868 402.662 201.868C379.428 201.877 354.766 201.877 329.003 201.885C325.786 201.885 322.543 201.885 319.292 201.885C317.663 201.885 316.033 201.885 314.395 201.885H311.942C311.119 201.877 310.304 201.902 309.456 201.835C307.784 201.65 306.155 200.97 304.878 199.844C303.584 198.752 302.669 197.215 302.282 195.552C302.098 194.72 302.064 193.846 302.081 193.023V190.528C302.081 188.865 302.081 187.194 302.081 185.514C302.081 172.116 302.081 158.482 302.081 144.656L302.299 144.874C300.594 144.883 298.864 144.883 297.1 144.891C296.234 144.9 295.386 145.059 294.571 145.353C293.756 145.647 292.933 146.05 292.076 146.344C290.363 146.958 288.557 147.361 286.717 147.529C285.802 147.604 284.869 147.672 283.945 147.596C283.021 147.546 282.089 147.537 281.173 147.369C273.26 146.37 266.028 141.414 262.324 134.492C260.467 131.04 259.476 127.176 259.291 123.303C259.09 121.38 259.342 119.397 259.871 117.541C260.114 116.6 260.509 115.718 260.879 114.819C261.324 113.971 261.744 113.097 262.29 112.299C262.777 111.468 263.399 110.728 263.97 109.964C264.608 109.258 265.213 108.511 265.919 107.864C267.271 106.512 268.783 105.344 270.388 104.336C271.975 103.303 273.714 102.496 275.495 101.892C277.276 101.278 279.166 100.9 281.056 100.976C284.819 101.119 288.431 102.177 291.858 103.513C292.715 103.849 293.555 104.235 294.378 104.622C295.193 104.991 296.05 105.268 296.932 105.428C297.814 105.604 298.696 105.604 299.603 105.596C300.51 105.596 301.417 105.596 302.316 105.596L302.106 105.806C302.106 89.5017 302.114 73.6089 302.114 58.2117C302.131 57.2457 302.081 56.3049 302.165 55.3053C302.266 54.3225 302.576 53.3733 303.03 52.5081C303.946 50.7693 305.5 49.4085 307.297 48.6945C308.196 48.3333 309.162 48.1401 310.128 48.1233C311.086 48.0981 312.018 48.1149 312.959 48.1149C314.84 48.1149 316.705 48.1149 318.57 48.1149C326.012 48.1149 333.329 48.1233 340.494 48.1233C369.18 48.1317 395.598 48.1485 419.168 48.1569C430.954 48.1653 442.025 48.1737 452.306 48.1737C453.592 48.1737 454.868 48.1653 456.128 48.1653C456.758 48.1653 457.388 48.1653 458.01 48.1569C458.632 48.1485 459.262 48.1485 459.883 48.2157C462.37 48.5013 464.688 49.8537 466.015 51.8781C466.687 52.8777 467.116 54.0201 467.267 55.1877C467.393 56.3637 467.317 57.4977 467.351 58.6401C467.359 60.9081 467.376 63.1173 467.384 65.2761C467.468 82.5297 467.527 96.3393 467.578 106.1L467.519 106.033C469.207 106.134 470.786 106.234 472.248 106.318C473.718 106.478 475.07 106.344 476.28 106.033C477.49 105.73 478.514 105.201 479.506 104.89C480.488 104.563 481.396 104.336 482.194 104.168C483.806 103.84 485.033 103.756 485.839 103.714C486.629 103.689 487.024 103.706 487.024 103.706C486.914 103.714 486.587 103.723 485.814 103.756C485.008 103.807 483.79 103.908 482.177 104.244C481.37 104.42 480.48 104.647 479.497 104.983C478.514 105.294 477.49 105.831 476.272 106.142C475.062 106.47 473.668 106.604 472.206 106.453C470.736 106.369 469.157 106.276 467.468 106.184H467.41V106.125C467.342 96.3645 467.242 82.5549 467.116 65.3013C467.099 63.1425 467.082 60.9333 467.074 58.6653C467.048 57.5397 467.107 56.3721 466.99 55.2465C466.838 54.1209 466.418 53.0121 465.772 52.0461C464.486 50.0889 462.235 48.7785 459.824 48.5013C459.22 48.4425 458.606 48.4341 457.976 48.4425C457.355 48.4425 456.725 48.4509 456.095 48.4509C454.835 48.4593 453.558 48.4593 452.273 48.4677C441.991 48.4761 430.92 48.4845 419.135 48.4845C395.564 48.4929 369.146 48.5013 340.46 48.5181C333.287 48.5181 325.979 48.5265 318.536 48.5265C316.672 48.5265 314.807 48.5265 312.925 48.5265C311.052 48.5685 309.137 48.3417 307.415 49.0893C305.701 49.7697 304.223 51.0633 303.358 52.7097C302.929 53.5329 302.635 54.4317 302.543 55.3641C302.459 56.2797 302.509 57.2625 302.492 58.2201C302.492 73.6173 302.501 89.5101 302.501 105.814V106.024H302.291C301.392 106.024 300.485 106.024 299.578 106.024C298.679 106.033 297.738 106.033 296.822 105.848C295.907 105.68 295.016 105.394 294.168 105.016C293.336 104.622 292.522 104.252 291.665 103.916C288.28 102.597 284.693 101.556 281.014 101.413C279.182 101.337 277.351 101.707 275.604 102.312C273.857 102.908 272.152 103.698 270.589 104.714C269.01 105.705 267.523 106.864 266.196 108.192C265.499 108.822 264.911 109.561 264.281 110.258C263.718 111.014 263.113 111.736 262.634 112.551C262.097 113.324 261.694 114.181 261.248 115.021C260.887 115.894 260.501 116.76 260.266 117.675C259.753 119.49 259.501 121.38 259.703 123.295C259.888 127.1 260.862 130.897 262.685 134.299C266.322 141.094 273.428 145.975 281.207 146.949C282.106 147.117 283.021 147.126 283.928 147.176C284.836 147.243 285.743 147.184 286.65 147.109C288.456 146.941 290.22 146.546 291.9 145.95C292.74 145.664 293.538 145.269 294.395 144.958C295.252 144.648 296.167 144.471 297.066 144.471C298.83 144.463 300.56 144.463 302.266 144.454H302.484V144.673C302.484 158.499 302.484 172.132 302.484 185.53C302.484 187.202 302.484 188.874 302.484 190.545V193.04C302.467 193.88 302.501 194.678 302.677 195.468C303.038 197.038 303.904 198.492 305.138 199.533C306.348 200.6 307.894 201.238 309.481 201.423C310.271 201.49 311.102 201.465 311.917 201.474H314.37C316.008 201.474 317.638 201.474 319.267 201.474C322.518 201.474 325.76 201.474 328.978 201.474C354.74 201.482 379.403 201.482 402.637 201.49C414.254 201.49 425.519 201.499 436.38 201.499C441.815 201.499 447.149 201.507 452.374 201.507C453.684 201.507 454.978 201.507 456.28 201.507C457.573 201.482 458.875 201.583 460.102 201.364C462.571 200.919 464.814 199.34 465.906 197.131C466.469 196.039 466.746 194.821 466.721 193.603C466.729 192.36 466.738 191.133 466.746 189.907C466.763 187.454 466.771 185.026 466.788 182.632C466.813 177.836 466.838 173.166 466.872 168.604C466.922 159.482 466.973 150.847 467.023 142.716V142.564L467.174 142.573C468.922 142.699 470.644 142.816 472.349 142.942C474.071 142.942 475.768 143.362 477.296 144.06C480.304 145.446 483.512 146.126 486.629 146.176C492.887 146.286 498.7 143.892 502.664 140.137C504.664 138.28 506.268 136.13 507.368 133.854C508.469 131.577 509.116 129.192 509.3 126.873C509.334 126.294 509.368 125.722 509.401 125.151C509.393 124.58 509.342 124.026 509.326 123.471C509.309 123.194 509.309 122.917 509.267 122.648C509.225 122.379 509.174 122.11 509.132 121.842C509.032 121.312 508.981 120.775 508.838 120.262C508.544 119.246 508.292 118.246 507.864 117.331C507.52 116.382 507.024 115.533 506.57 114.702C504.655 111.4 502.06 109.107 499.64 107.511C497.196 105.924 494.869 105.033 492.946 104.563C492.467 104.445 492.022 104.294 491.593 104.227C491.165 104.16 490.762 104.092 490.392 104.034C490.022 103.975 489.678 103.916 489.367 103.882C489.056 103.866 488.771 103.849 488.519 103.832C487.544 103.74 487.024 103.706 487.024 103.706Z" fill="#263238"/>
<path d="M455.381 187.638C454.776 186.26 453.298 182.086 452.189 181.078C447.199 176.533 442.285 175.382 436.8 171.451L437.909 215.828C439.547 218.206 443.041 217.928 445.746 216.937C448.451 215.946 450.492 213.636 451.895 211.116C454.952 205.639 456.112 201.254 456.532 194.996C456.658 193.216 456.095 189.251 455.381 187.638Z" fill="#2C71F6"/>
<path d="M412.541 142.564C407.274 139.33 389.987 136.264 386.114 135.911L381.276 131.947L347.189 129.889L342.182 136.785L324.71 141.439C320.116 142.657 316.008 145.244 312.908 148.847L302.509 157.029L302.526 192.46C302.526 197.912 305.306 201.541 310.766 201.541L415.498 201.28C421.907 212.545 430.03 218.525 443.755 217.559L441.714 171.872C441.697 171.863 419.95 147.109 412.541 142.564Z" fill="#2C71F6"/>
<path d="M429.181 175.65L436.758 124.797L450.467 126.888C450.467 126.888 453.701 169.636 453.104 182.648C452.92 186.713 453.197 193.526 450.45 197.969C445.754 205.554 431.962 205.571 427.694 197.734C425.477 194.399 426.434 189.67 426.905 187.268L429.181 175.65Z" fill="#AE7461"/>
<path d="M451.626 129.888L453.928 119.774L455.809 106.687L455.876 95.5065C455.876 95.5065 455.54 94.3389 454.028 94.8765C452.508 95.4057 452.525 101.521 452.525 101.521L451.861 105.981C451.861 105.981 450.391 109.241 450.19 108.896C449.988 108.56 450.316 102.42 450.316 102.42L450.374 89.1141C450.374 89.1141 450.064 87.6189 448.384 87.8037C447.451 87.9045 446.636 89.0637 446.368 90.9873C446.099 92.9109 446.3 96.2793 446.174 97.3713C446.048 98.4717 445.528 104.839 445.528 104.839L444.032 89.6517C444.032 89.6517 444.15 84.8301 442.075 85.1157C440 85.4013 440.639 89.0049 440.437 90.4665C440.236 91.9281 441.126 102.243 440.353 104.923C439.58 107.594 439.412 106.149 439.412 106.149C439.412 106.149 439.177 101.437 438.984 97.7157C438.799 94.0029 437.858 91.6845 436.38 91.1217C434.902 90.5589 435.338 99.1689 435.338 99.1689L435.674 111.147L434.305 114.667L432.398 110.879C432.398 110.879 433.171 106.561 430.836 104.234C428.467 101.874 427.409 103.789 427.409 103.789L429.131 121.437C429.778 124.394 436.414 131.207 436.414 131.207L434.49 148.175L452.046 150.585L451.626 129.888Z" fill="#AE7461"/>
<path d="M446.737 123.084C446.636 123.151 445.99 122.168 444.839 120.724C443.696 119.329 441.848 117.322 439.102 116.91C437.892 116.717 436.699 116.902 435.792 117.422L435.456 117.616L435.271 117.238C434.465 115.583 433.532 114.088 433.02 113.046C432.466 111.996 432.222 111.316 432.314 111.282C432.382 111.257 432.743 111.836 433.406 112.819C434.045 113.836 434.994 115.138 435.952 116.986L435.431 116.801C436.472 116.162 437.867 115.936 439.211 116.154C440.706 116.381 442.025 117.078 443.008 117.901C443.999 118.716 444.713 119.623 445.259 120.396C446.342 121.967 446.813 123.034 446.737 123.084Z" fill="#6F4439"/>
<path d="M347.096 190.336C344.694 188.219 340.805 193.309 340.805 193.309C340.049 191.722 335.026 191.906 334.253 194.174C333.749 193.007 333.841 192.293 332.791 191.579C331.741 190.856 330.364 190.562 329.171 190.999C327.978 191.444 327.088 192.713 327.264 193.964C326.088 192.402 323.879 191.696 322.014 192.301C320.897 192.662 319.948 193.486 319.368 194.502C319.074 195.014 318.881 195.569 318.788 196.148C318.755 196.358 318.688 196.602 318.73 196.812C318.746 196.913 318.797 197.005 318.856 197.089C319.116 197.492 319.444 197.837 319.679 198.257C319.771 198.416 319.847 198.576 319.931 198.744C320.284 199.492 320.502 200.298 320.636 201.113C320.695 201.491 320.678 201.911 320.796 202.272C320.872 202.516 321.056 202.7 321.174 202.927C321.922 204.355 321.938 206.119 322.022 207.69C322.123 209.462 322.316 211.327 323.366 212.755C324.425 214.183 326.651 214.88 328.012 213.746C327.886 214.864 328.852 215.93 329.969 216.115C331.078 216.3 332.228 215.746 332.959 214.889C333.69 214.032 334.06 212.915 334.236 211.806C334.278 213.133 335.672 214.15 337 214.049C338.318 213.948 339.452 212.965 340.049 211.781C340.645 210.596 340.788 209.244 340.822 207.917C340.855 206.59 341.435 202.776 341.662 201.474C341.662 201.474 343.837 201.457 344.602 201.465L345.181 200.038C346.046 197.77 346.727 196.325 347.357 194.275C347.836 192.73 348.096 191.218 347.096 190.336Z" fill="#AE7461"/>
<path d="M314.118 195.535C313.026 195.594 311.858 195.922 311.203 196.804C310.43 197.845 310.481 200.264 310.691 201.541C310.691 201.583 314.462 201.533 314.462 201.533H315.395C316.134 201.961 316.126 203.532 316.478 204.313C317.092 205.666 318.94 206.195 320.284 205.556C321.628 204.918 322.392 203.364 322.325 201.877C322.266 200.39 321.485 199.004 320.435 197.954C318.788 196.308 316.436 195.409 314.118 195.535Z" fill="#AE7461"/>
<path d="M327.247 193.527C327.533 193.519 327.936 198.03 328.146 203.616C328.356 209.193 328.297 213.729 328.012 213.738C327.726 213.746 327.331 209.235 327.113 203.649C326.903 198.072 326.962 193.536 327.247 193.527Z" fill="#6F4439"/>
<path d="M334.27 193.863C334.538 193.83 335.269 197.904 335.278 202.994C335.303 208.093 334.589 212.167 334.32 212.133C334.026 212.1 334.27 208.017 334.253 202.994C334.244 197.979 333.976 193.897 334.27 193.863Z" fill="#6F4439"/>
<path d="M341.124 194.192C341.41 194.166 341.838 197.577 341.678 201.76C341.519 205.943 341.174 209.295 340.906 209.295C340.603 209.295 340.494 205.884 340.654 201.726C340.805 197.577 340.847 194.217 341.124 194.192Z" fill="#6F4439"/>
<path d="M316.352 196.047C316.336 195.929 317.05 195.702 318.133 196.08C319.208 196.433 320.494 197.533 321.199 199.079C321.896 200.633 322.199 202.002 322.258 203.17C322.249 204.43 321.367 204.875 321.334 204.715C321.241 204.606 321.695 204.136 321.527 203.212C321.325 202.321 320.88 200.86 320.267 199.524C319.637 198.155 318.671 197.214 317.831 196.744C316.999 196.257 316.352 196.206 316.352 196.047Z" fill="#6F4439"/>
<path d="M370.188 33.1783C369.886 29.5999 366.08 26.7355 362.552 27.4327C360.553 23.5099 355.076 21.8383 351.221 23.9719C349.39 24.9883 348.004 26.6683 346.214 27.7603C344.492 28.8103 342.485 29.2639 340.67 30.1375C338.856 31.0111 337.117 32.5147 336.89 34.5139C336.638 36.7399 338.402 38.7895 340.486 39.6211C342.56 40.4527 344.879 40.3435 347.122 40.2175C346.147 40.7803 345.929 42.1999 346.433 43.2079C346.937 44.2159 347.962 44.8627 349.003 45.2827C352.481 46.6687 356.714 45.8875 359.47 43.3507L363.653 40.1419C367.231 40.2259 370.49 36.7567 370.188 33.1783Z" fill="#263238"/>
<path d="M359.738 47.1564C358.966 47.9208 357.588 47.8368 356.79 47.106C355.992 46.3668 355.765 45.1404 356.076 44.0988C356.387 43.0572 357.168 42.2004 358.075 41.6124C358.982 41.016 360.024 40.6632 361.066 40.3524C362.67 39.8736 364.325 39.4956 365.996 39.42C366.593 39.3948 367.206 39.4032 367.752 39.63C368.298 39.8568 368.768 40.3524 368.819 40.9488C368.886 41.7804 368.155 42.444 367.483 42.9396C364.972 44.796 362.3 46.4172 359.495 47.7864" fill="#2C71F6"/>
<path d="M357.286 46.7373C353.321 42.3105 343.451 42.9069 341.09 45.7797C337.68 43.9737 332.917 45.5193 331.212 48.9885C327.709 49.7277 324.206 50.4669 320.704 51.2061C318.914 51.5841 317.033 52.0041 315.647 53.2053C314.261 54.4065 313.606 56.6577 314.731 58.1025C311.027 59.0349 309.54 64.5285 312.262 67.2081C310.741 68.7873 311.018 71.7105 312.808 72.9705C309.884 76.4229 307.558 80.3793 305.962 84.6129C305.29 86.3853 304.752 88.3593 305.399 90.1401C306.046 91.9209 308.372 93.1557 309.91 92.0637C308.851 93.4917 308.75 95.5581 309.658 97.0869C307.885 97.1205 307.331 99.8589 308.54 101.161C309.75 102.463 311.732 102.606 313.505 102.58C315.277 102.555 317.209 102.471 318.654 103.496C318.587 104.025 318.377 104.37 318.066 104.622C315 107.083 314.101 111.342 316.369 114.559C316.579 114.853 316.772 115.13 316.949 115.382C317.965 116.852 320.502 118.204 322.081 119.044C326.08 121.17 328.474 120.783 332.951 121.464C331.708 124.345 338.94 130.796 347.315 124.563C363.905 129.15 375.875 130.922 393.086 131.09C395.539 131.115 398.496 130.804 399.596 128.612C401.587 129.158 403.738 128.243 405.224 126.814C406.703 125.386 407.644 123.497 408.551 121.649C412.81 120.54 416.119 116.457 416.321 112.064C419.219 109.838 421.1 106.344 421.378 102.698C425.519 101.463 427.837 96.1209 425.897 92.2569C425.04 87.1833 423.343 82.2525 420.89 77.7333C423.713 77.1453 424.796 73.3569 423.654 70.7109C422.512 68.0649 419.966 66.3513 417.547 64.7889C419.647 65.3685 421.504 62.7309 421.016 60.6141C420.529 58.4889 418.631 57.0189 416.774 55.8849C414.053 54.2217 411.121 52.8945 408.08 51.9285C407.106 48.2157 402.402 43.9653 398.941 42.2937C385.014 35.5401 375.211 33.7929 357.286 46.7373Z" fill="#263238"/>
<path d="M346.508 69.1807C346.315 66.2407 345.828 63.3259 348.743 62.8807L378.487 53.9095C388.08 52.4563 395.018 64.0315 396.068 73.6747C397.228 84.3847 398.227 97.5138 397.32 105.586C395.489 121.823 381.184 126.183 381.184 126.183C381.184 126.166 381.553 136.028 381.553 136.028C380.318 143.605 378.403 152.131 375.329 155.163C364.804 153.197 347.584 130.064 347.584 130.064L346.508 69.1807Z" fill="#AE7461"/>
<path d="M381.184 126.191C381.184 126.191 372.414 125.629 361.376 119.656C361.376 119.656 365.114 129.829 381.326 131.072L381.184 126.191Z" fill="#6F4439"/>
<path d="M392.398 73.0286C392.028 73.5494 390.474 73.0958 388.626 73.1546C386.778 73.1462 385.241 73.6502 384.854 73.1378C384.686 72.8858 384.905 72.3734 385.568 71.861C386.215 71.357 387.324 70.9118 388.592 70.895C389.861 70.8782 390.978 71.2898 391.642 71.777C392.322 72.2642 392.557 72.7682 392.398 73.0286Z" fill="#263238"/>
<path d="M403.326 81.4196C403.175 78.8912 402.377 76.3208 400.646 74.4812C399.697 73.4732 398.496 72.7004 397.656 71.6C395.842 69.2144 396.094 65.9048 395.321 63.0152C394.321 59.2856 391.406 56.1188 387.769 54.8252C384.745 53.75 381.318 53.8928 378.479 52.3892C376.379 51.2804 374.783 49.3484 372.624 48.3572C368.416 46.4336 363.535 48.6008 359.562 50.9696C358.772 54.128 360.772 56.858 362.704 59.4788C364.627 62.0996 367.752 63.8048 371.003 63.998C373.523 64.1492 376.463 63.578 378.235 65.3756C380.1 67.2656 379.378 70.592 380.915 72.7592C383.107 75.8588 388.08 74.6744 391.356 76.5896C393.884 78.068 394.951 81.092 396.228 83.7296C397.505 86.3672 399.706 89.114 402.629 88.9796C403.049 86.468 403.477 83.948 403.326 81.4196Z" fill="#263238"/>
<path d="M365.854 56.7074C358.495 56.5982 351.112 57.9338 344.257 60.6134C342.216 61.4114 340.099 62.4278 338.94 64.2842C337.915 65.9222 337.798 67.9466 337.823 69.8786C337.898 75.9182 340.334 83.3102 342.644 88.8962L350.188 93.407C355.992 92.0294 353.321 81.9998 353.035 76.9766C357.084 75.1958 359.915 70.9202 359.965 66.4934C363.275 64.3598 365.518 60.6386 365.854 56.7074Z" fill="#263238"/>
<path d="M350.078 91.2393C349.843 87.7869 345.61 87.1149 342.636 88.9041C341.006 89.8869 339.78 91.8189 339.99 95.4813C340.561 105.259 350.255 102.672 350.263 102.394C350.263 102.218 350.347 95.2797 350.078 91.2393Z" fill="#AE7461"/>
<path d="M347.063 98.8592C347.021 98.834 346.895 98.9852 346.618 99.1364C346.34 99.2792 345.87 99.3968 345.349 99.2372C344.291 98.918 343.325 97.3304 343.182 95.5664C343.106 94.676 343.241 93.8192 343.518 93.0968C343.778 92.366 344.207 91.8368 344.719 91.7108C345.232 91.5596 345.618 91.8536 345.752 92.1224C345.895 92.3912 345.845 92.5844 345.904 92.6012C345.929 92.6264 346.105 92.4248 346.004 92.0216C345.954 91.8284 345.828 91.61 345.584 91.4336C345.341 91.2572 344.988 91.1816 344.627 91.2404C343.879 91.3328 343.241 92.072 342.938 92.8616C342.594 93.6596 342.418 94.6256 342.51 95.6252C342.686 97.5908 343.804 99.38 345.24 99.7076C345.937 99.8504 346.5 99.6068 346.786 99.3548C347.054 99.0944 347.096 98.876 347.063 98.8592Z" fill="#6F4439"/>
<path d="M340.192 101.37C340.192 101.37 339.604 101.546 338.73 102.218C337.873 102.874 336.756 104.167 336.353 106.124C336.143 107.09 336.134 108.199 336.428 109.333C336.739 110.459 337.327 111.584 338.218 112.55C339.091 113.525 340.259 114.331 341.62 114.785C342.972 115.247 344.526 115.289 345.979 114.877C347.441 114.466 348.743 113.659 349.709 112.601C350.683 111.542 351.271 110.232 351.49 108.938C351.91 106.326 350.944 103.907 349.566 102.504C348.86 101.798 348.054 101.37 347.34 101.068C346.618 100.765 345.954 100.622 345.408 100.564C344.862 100.513 344.434 100.547 344.148 100.606C343.862 100.673 343.728 100.732 343.728 100.74C343.736 100.782 344.316 100.547 345.391 100.706C345.92 100.782 346.559 100.942 347.256 101.261C347.945 101.572 348.718 102.008 349.373 102.689C350.675 104.058 351.574 106.385 351.145 108.88C350.927 110.114 350.364 111.349 349.44 112.349C348.524 113.357 347.273 114.121 345.878 114.508C344.484 114.902 343.022 114.86 341.737 114.424C340.444 113.995 339.318 113.231 338.478 112.307C337.621 111.391 337.042 110.308 336.731 109.241C336.437 108.166 336.428 107.099 336.613 106.166C336.966 104.276 338.016 103 338.822 102.319C339.646 101.639 340.217 101.412 340.192 101.37Z" fill="#F8F9FB"/>
<path d="M420.218 39.6306C420.168 39.7062 419.404 38.8242 417.547 38.085C416.623 37.7406 415.43 37.4298 414.028 37.4634C412.633 37.4802 411.029 37.833 409.55 38.757L409.34 38.8914L409.214 38.673C408.265 37.0434 406.51 35.6574 404.317 35.0778C402.158 34.4814 399.504 34.683 397.438 36.1698L397.177 36.3546L396.992 36.1026C395.153 33.5826 392.095 31.6086 388.626 31.0374C385.963 30.5838 383.267 31.0794 381.007 32.1882C378.748 33.297 376.916 34.9938 375.707 36.8922L375.623 37.0266L375.463 37.035C372.481 37.1526 369.768 37.9086 367.576 38.9922C365.35 40.0422 363.619 41.3694 362.317 42.5874C359.722 45.057 358.823 46.9974 358.722 46.9218C358.705 46.9134 358.764 46.7958 358.882 46.569C359.008 46.3506 359.167 46.0062 359.428 45.603C359.948 44.7798 360.788 43.6122 362.074 42.327C363.359 41.0586 365.098 39.6558 367.357 38.547C369.592 37.4046 372.372 36.5814 375.446 36.4386L375.203 36.5814C376.446 34.5738 378.353 32.7846 380.722 31.617C383.074 30.441 385.93 29.9118 388.735 30.3906C392.381 30.9954 395.573 33.0702 397.505 35.7414L397.06 35.6742C399.336 34.0614 402.175 33.8934 404.468 34.5402C406.795 35.187 408.66 36.6906 409.643 38.4546L409.298 38.3706C410.886 37.413 412.583 37.0854 414.036 37.1106C415.498 37.119 416.724 37.4718 417.656 37.875C418.597 38.2866 419.236 38.757 419.656 39.093C420.042 39.4122 420.235 39.6222 420.218 39.6306Z" fill="#263238"/>
<path d="M353.934 36.2199C353.934 36.2199 353.136 36.6987 351.49 36.8079C349.894 36.9087 347.306 36.5559 345.055 34.5063C343.963 33.4899 343.039 32.0199 342.67 30.2811C342.292 28.5507 342.392 26.5599 343.207 24.7035C344.014 22.8471 345.643 21.2259 347.701 20.4027C349.742 19.5627 352.212 19.4283 354.43 20.3439L354.052 20.4363C354.942 19.3611 356.286 18.6051 357.731 18.3363C358.932 18.1011 360.175 18.2187 361.292 18.6387C362.41 19.0839 363.359 19.8735 364.006 20.8395C365.299 22.7631 365.501 25.2579 364.56 27.1983L364.123 26.8035C365.736 25.8375 367.685 25.9887 369.163 26.7027C370.675 27.4083 371.75 28.7691 372.137 30.2055C372.952 33.1119 371.725 35.8251 370.188 37.2363C368.634 38.7147 366.962 39.2355 365.87 39.4707C365.316 39.5883 364.879 39.6219 364.585 39.6387C364.291 39.6471 364.14 39.6387 364.14 39.6219C364.132 39.5715 364.753 39.5547 365.828 39.2691C366.887 38.9751 368.483 38.4039 369.928 36.9591C371.356 35.5815 372.439 33.0111 371.641 30.3483C371.263 29.0379 370.297 27.8451 368.92 27.2151C367.576 26.5767 365.828 26.4843 364.451 27.3243L363.56 27.8703L364.014 26.9295C364.837 25.2075 364.644 22.9311 363.476 21.2091C362.897 20.3439 362.057 19.6551 361.066 19.2603C360.066 18.8823 358.949 18.7815 357.865 18.9915C356.555 19.2351 355.354 19.9155 354.564 20.8563L354.404 21.0411L354.178 20.9487C352.145 20.1003 349.852 20.2095 347.945 20.9823C346.021 21.7467 344.518 23.2167 343.745 24.9387C342.964 26.6607 342.846 28.5339 343.182 30.1719C343.51 31.8183 344.35 33.2043 345.358 34.1871C347.449 36.1695 349.927 36.5979 351.481 36.5727C353.086 36.5391 353.917 36.1443 353.934 36.2199Z" fill="#263238"/>
<path d="M307.432 61.6466C307.415 61.655 307.348 61.529 307.238 61.277C307.129 61.025 306.995 60.647 306.86 60.1346C306.608 59.1266 306.382 57.5558 306.751 55.6406C307.112 53.7506 308.112 51.4658 310.17 49.727C312.186 48.005 315.193 46.8374 318.419 47.2154L318.091 47.3918C319.334 44.7962 321.678 42.4442 324.677 41.1758C326.903 40.235 329.33 40.025 331.54 40.3778C333.757 40.739 335.765 41.6546 337.344 42.8894L337.016 42.8642C339.36 41.621 341.821 41.1506 343.98 41.201C346.139 41.2178 347.995 41.7302 349.432 42.3098C350.868 42.9062 351.893 43.595 352.548 44.1074C353.195 44.6366 353.506 44.9642 353.48 44.981C353.413 45.0818 352.145 43.7294 349.297 42.6374C347.878 42.1166 346.072 41.663 343.972 41.6882C341.888 41.6714 339.528 42.167 337.302 43.3766L337.126 43.469L336.974 43.3514C335.462 42.1922 333.539 41.3354 331.43 40.9994C329.322 40.6718 327.037 40.8734 324.929 41.7638C322.09 42.965 319.855 45.191 318.662 47.6438L318.562 47.8454L318.335 47.8202C315.319 47.4422 312.446 48.509 310.514 50.1134C308.54 51.7262 307.541 53.8766 307.138 55.691C306.726 57.5306 306.886 59.051 307.062 60.059C307.264 61.1006 307.474 61.6298 307.432 61.6466Z" fill="#263238"/>
<path d="M298.536 143.691C297.016 143.691 296.033 144.027 294.647 144.624C291.967 145.783 289.002 146.43 285.886 146.43C273.05 146.43 260.728 138.819 260.728 123.086C260.728 113.703 270.337 104.178 279.804 102.607C284.575 101.817 291.564 104.153 295.31 105.967C296.789 106.681 298.402 107.076 300.048 107.076H302.366L302.518 55.3235C302.518 51.7955 299.376 48.9395 296.512 48.9395H143.094C138.214 48.9395 135.072 51.7955 135.072 55.3235V108.714L141.246 108.386C142.682 108.386 144.102 108.126 145.429 107.639C148.1 106.656 150.889 104.942 153.955 104.942C167.11 104.942 176.282 112.368 175.753 124.447C175.291 135.09 167.404 143.406 155.736 144.145C151.62 144.405 148.067 143.389 144.623 141.919C143.086 141.264 141.28 140.785 139.583 140.785L135.08 140.877V193.151C135.08 197.477 138.936 200.988 143.69 200.988H199.517H239.476H293.916C298.67 200.988 302.526 197.477 302.526 193.151V143.666L298.536 143.691Z" fill="#F8F9FB"/>
<path d="M198.677 135.366L197.913 72.5844C197.215 56.9772 205.716 43.554 221.34 43.2852L222.785 43.344C237.334 43.9488 248.976 55.608 249.547 70.1568C250.077 83.6892 250.488 98.6496 250.102 105.882C249.295 120.859 234.217 122.564 234.217 122.564C234.184 122.564 234.125 131.678 234.133 136.08L229.379 145.58L225.322 143.354L198.677 135.366Z" fill="#FFBF9D"/>
<path d="M234.226 121.858C234.226 121.858 224.759 122.026 214.956 115.289C214.956 115.289 219.181 126.747 234.192 126.016L234.226 121.858Z" fill="#FF9A6C"/>
<path d="M198.677 83.0179C198.425 82.9003 188.513 79.5487 188.412 89.8051C188.32 100.062 198.635 98.0455 198.652 97.7515C198.677 97.4575 198.677 83.0179 198.677 83.0179Z" fill="#FFBF9D"/>
<path d="M195.56 93.827C195.518 93.7934 195.384 93.953 195.082 94.0874C194.788 94.2218 194.275 94.3058 193.746 94.1042C192.662 93.6926 191.772 91.9706 191.738 90.1226C191.722 89.1902 191.923 88.2998 192.259 87.569C192.579 86.8214 193.066 86.3006 193.62 86.2082C194.166 86.0906 194.544 86.4182 194.67 86.7038C194.804 86.9894 194.737 87.1994 194.796 87.2162C194.821 87.2414 195.015 87.0482 194.939 86.6198C194.897 86.4182 194.779 86.1746 194.544 85.973C194.301 85.7714 193.939 85.6622 193.561 85.7042C192.772 85.7546 192.049 86.4686 191.68 87.275C191.268 88.0814 191.016 89.081 191.033 90.131C191.083 92.1974 192.116 94.1462 193.595 94.583C194.317 94.7762 194.922 94.5662 195.233 94.331C195.535 94.079 195.594 93.8522 195.56 93.827Z" fill="#FF9A6C"/>
<path d="M270.253 55.9614C270.094 55.3566 269.665 54.8526 269.128 54.5334C267.96 53.8278 266.608 53.9034 265.297 53.8698C262.046 53.7774 258.821 52.9122 255.94 51.4086C256.956 50.9046 257.905 50.2914 258.72 49.5018C260.4 47.8638 261.374 45.3438 260.644 43.1262C260.509 42.7062 260.266 42.2694 259.854 42.135C259.19 41.925 258.602 42.5718 258.132 43.0842C256.586 44.7726 255.167 45.4866 252.89 45.2346C251.479 45.075 250.11 44.739 249.001 44.0334C248.959 43.983 248.917 43.9326 248.875 43.8906C248.346 43.3362 247.834 42.7986 247.33 42.2862C247.33 42.2862 247.33 42.2862 247.33 42.2778C243.516 38.4054 240.223 35.7174 236.83 34.3062C231.848 32.2314 223.482 31.3242 218.249 32.6346C213.016 33.945 208.278 38.1282 207.488 43.4706C204.59 40.959 200.197 40.9338 196.61 42.3282L196.518 42.2862C192.528 43.6554 190.226 47.8302 189.008 51.8622C188.941 52.0806 188.882 52.3074 188.824 52.5258C187.454 54.6426 185.615 56.4402 183.422 57.6834C183.036 57.9018 182.591 58.1706 182.54 58.6158C182.49 59.0526 182.851 59.4222 183.212 59.6826C184.153 60.3714 185.262 60.8334 186.413 61.0518C186.035 62.0094 185.598 62.9418 185.069 63.8238C184.615 64.5798 184.069 65.4786 184.456 66.2766C184.75 66.8898 185.522 67.1502 186.203 67.0578C186.875 66.9654 187.48 66.6042 188.059 66.243C187.606 67.3014 187.152 68.3514 186.698 69.4098C188.135 69.6786 189.622 69.5778 191.024 69.1746C191.822 72.9714 192.377 79.9938 193.326 82.5726C196.048 82.6482 196.711 82.3626 198.08 82.833C199.853 83.4462 199.139 86.5794 201.457 85.7142C202.642 85.269 204.498 80.8338 204.901 79.641C207.606 71.7198 208.572 63.2106 207.715 54.8862C209.378 53.1474 211.378 51.7446 213.578 50.7534L213.402 50.913C217.61 49.5018 222.373 48.1242 226.33 50.1402C229.396 51.7026 231.176 54.9282 233.453 57.507C237.77 62.3958 242.693 65.0418 249.211 65.3946C249.749 69.9306 249.841 77.3394 250.009 81.5646L253.68 73.131V73.1646C253.974 72.669 254.226 72.1734 254.461 71.6778L254.545 71.5266V71.5098C254.923 70.7118 255.284 69.9054 255.763 69.1158C255.78 69.1242 255.788 69.141 255.805 69.1494C258.073 71.1906 261.484 68.1414 259.703 65.6634C259.35 65.1678 258.93 64.731 258.443 64.3698C259.476 65.361 261.03 65.8482 262.408 65.445C263.785 65.0418 264.86 63.6642 264.76 62.2278C264.692 61.2534 264.004 60.3714 263.122 59.9766C264.97 60.1362 266.868 59.7582 268.489 58.8594C269.548 58.2714 270.598 57.2886 270.253 55.9614Z" fill="#263238"/>
<path d="M295.361 180.726C295.361 180.726 269.506 141.456 261.87 139.743L255.058 137.802L234.444 132.208C234.444 132.208 234.595 140.154 223.112 140.406C209.882 140.7 198.778 129.066 198.778 129.066C198.778 129.066 171.276 137.634 165.505 142.296C159.734 146.95 169.235 200.853 169.235 200.853H269.875L269.8 200.265L295.361 180.726Z" fill="#2C71F6"/>
<path d="M165.228 142.246C165.228 142.246 156.534 148.168 154.115 160.264C151.696 172.368 146.656 200.819 146.656 200.819L188.723 200.845C188.723 200.845 186.799 183.263 186.799 181.945C186.799 180.626 179.516 151.805 179.071 151.15C178.634 150.487 165.228 142.246 165.228 142.246Z" fill="#2C71F6"/>
<path d="M288.851 185.699L293.908 201.004L269.884 200.844L269.808 200.248L288.851 185.699Z" fill="#FFBF9D"/>
<path d="M259.216 48.955C259.216 48.955 259.795 48.9382 260.938 48.9298C262.08 48.9214 263.777 48.9214 266.003 48.9046C270.463 48.8962 277.032 48.8794 285.524 48.8626C287.65 48.8626 289.892 48.8542 292.244 48.8542C293.429 48.8626 294.63 48.8374 295.873 48.8626C297.125 48.9046 298.393 49.2826 299.51 49.9714C300.619 50.6686 301.585 51.685 302.123 52.9534C302.408 53.5834 302.56 54.2722 302.602 54.9694C302.644 55.6666 302.61 56.3554 302.618 57.061C302.61 59.875 302.61 62.7982 302.602 65.8222C302.576 77.935 302.543 91.753 302.509 107.075V107.226H302.358C301.4 107.217 300.451 107.243 299.477 107.209C298.502 107.159 297.52 106.965 296.587 106.655C295.638 106.344 294.773 105.848 293.866 105.487C292.958 105.101 292.034 104.748 291.085 104.42C289.195 103.782 287.238 103.236 285.222 102.917C284.214 102.749 283.189 102.639 282.164 102.631C281.14 102.623 280.106 102.673 279.09 102.942C274.999 103.782 271.169 106.016 267.968 108.948C266.356 110.418 264.944 112.131 263.768 114.013C262.601 115.895 261.685 117.978 261.232 120.187C260.761 122.396 260.904 124.715 261.215 126.991C261.307 127.562 261.374 128.133 261.492 128.705L261.946 130.385C262.072 130.956 262.298 131.493 262.517 132.031C262.752 132.569 262.903 133.14 263.206 133.644C265.255 137.861 268.85 141.372 273.235 143.438C274.31 144.001 275.47 144.396 276.612 144.816C277.788 145.143 278.964 145.505 280.182 145.698C282.601 146.135 285.104 146.345 287.591 146.168C290.077 145.975 292.538 145.353 294.857 144.32C296.024 143.799 297.343 143.447 298.654 143.489C299.939 143.489 301.224 143.48 302.518 143.48H302.719V143.682C302.719 154.568 302.728 165.774 302.728 177.257C302.728 180.129 302.728 183.019 302.728 185.925C302.728 187.379 302.728 188.832 302.728 190.293V192.486C302.736 193.208 302.711 193.981 302.56 194.72C302.232 196.199 301.459 197.576 300.367 198.626C299.3 199.701 297.914 200.441 296.461 200.861C295.722 201.045 294.974 201.188 294.21 201.188C293.454 201.213 292.715 201.197 291.967 201.205C290.472 201.205 288.977 201.205 287.473 201.205C263.458 201.205 238.484 201.205 212.864 201.213C189.034 201.205 165.749 201.197 143.27 201.188C140.406 201.096 137.575 199.617 136.046 197.173C135.265 195.972 134.87 194.535 134.862 193.116C134.862 191.73 134.862 190.352 134.862 188.966C134.862 183.447 134.862 177.987 134.862 172.586C134.862 161.775 134.87 151.2 134.87 140.885V140.683H135.072C136.298 140.658 137.516 140.633 138.726 140.607C139.936 140.54 141.204 140.658 142.38 140.96C143.573 141.237 144.698 141.75 145.799 142.195C146.908 142.632 148.042 143.01 149.184 143.304C151.477 143.892 153.838 144.135 156.164 143.909C158.5 143.749 160.784 143.203 162.918 142.355C167.202 140.675 170.848 137.55 173.006 133.627C175.165 129.704 175.946 125.143 175.392 120.851C175.098 118.709 174.485 116.617 173.452 114.744C172.41 112.887 171.007 111.266 169.386 109.939C167.773 108.595 165.908 107.604 163.985 106.865C163.036 106.461 162.036 106.218 161.045 105.932C160.549 105.798 160.045 105.731 159.541 105.63C159.037 105.529 158.542 105.428 158.038 105.386L156.526 105.218C156.022 105.176 155.518 105.176 155.014 105.151C154.006 105.092 153.014 105.092 152.048 105.319C150.108 105.722 148.327 106.629 146.504 107.385C145.597 107.763 144.656 108.108 143.69 108.301C142.733 108.511 141.725 108.545 140.776 108.578C138.852 108.679 136.954 108.78 135.072 108.881L134.904 108.889V108.721C134.912 91.4422 134.929 75.8182 134.938 62.0842C134.938 60.3706 134.938 58.6822 134.946 57.0274C134.963 56.1958 134.912 55.381 135.005 54.5494C135.114 53.7262 135.391 52.9366 135.811 52.2394C136.651 50.8366 137.995 49.8286 139.457 49.2994C140.935 48.7198 142.498 48.8542 143.951 48.8458C149.831 48.8542 155.207 48.8626 160.045 48.8626C169.714 48.8794 177.215 48.8962 182.314 48.9046C184.859 48.913 186.799 48.9214 188.11 48.9298C189.412 48.9382 190.084 48.955 190.084 48.955C190.084 48.955 189.412 48.9718 188.11 48.9802C186.799 48.9886 184.859 48.997 182.314 49.0054C177.215 49.0138 169.705 49.0306 160.045 49.0474C155.207 49.0558 149.839 49.0558 143.951 49.0642C142.481 49.081 140.96 48.955 139.532 49.5178C138.121 50.0302 136.819 51.013 136.013 52.3654C135.61 53.0374 135.341 53.8018 135.24 54.5914C135.148 55.3726 135.198 56.2126 135.19 57.0358C135.19 58.6906 135.19 60.379 135.198 62.0926C135.206 75.8266 135.215 91.459 135.232 108.729L135.064 108.57C136.945 108.469 138.852 108.368 140.776 108.259C141.742 108.225 142.691 108.192 143.632 107.99C144.572 107.805 145.48 107.469 146.387 107.091C148.193 106.344 149.99 105.42 151.99 105C152.981 104.765 154.031 104.765 155.039 104.815C155.543 104.84 156.055 104.84 156.568 104.882L158.096 105.05C158.609 105.092 159.113 105.193 159.625 105.294C160.129 105.395 160.642 105.47 161.146 105.605C162.145 105.882 163.162 106.134 164.128 106.545C166.085 107.293 167.983 108.293 169.621 109.67C171.276 111.023 172.712 112.677 173.779 114.576C174.829 116.491 175.468 118.625 175.77 120.809C176.333 125.185 175.543 129.813 173.351 133.82C171.158 137.827 167.437 141.011 163.078 142.724C160.902 143.581 158.584 144.144 156.215 144.303C153.846 144.539 151.427 144.295 149.1 143.69C147.941 143.388 146.79 143.01 145.664 142.565C144.539 142.111 143.464 141.624 142.296 141.355C141.128 141.061 139.961 140.943 138.743 141.019C137.525 141.044 136.307 141.069 135.089 141.095L135.29 140.893C135.29 151.208 135.299 161.792 135.299 172.595C135.299 177.996 135.299 183.464 135.299 188.975C135.408 191.705 134.82 194.645 136.416 196.955C137.861 199.265 140.566 200.684 143.296 200.768C165.766 200.777 189.042 200.777 212.873 200.785C238.493 200.785 263.466 200.785 287.482 200.793C288.985 200.793 290.48 200.793 291.976 200.793C293.479 200.785 294.958 200.869 296.36 200.466C299.158 199.718 301.568 197.475 302.165 194.645C302.308 193.939 302.333 193.242 302.324 192.503V190.31C302.324 188.849 302.324 187.395 302.324 185.942C302.324 183.036 302.324 180.146 302.324 177.273C302.324 165.791 302.333 154.585 302.333 143.699L302.534 143.9C301.241 143.9 299.956 143.909 298.67 143.909C297.402 143.867 296.184 144.194 295.025 144.707C292.681 145.748 290.161 146.387 287.633 146.58C285.096 146.756 282.576 146.538 280.123 146.093C278.888 145.899 277.696 145.53 276.503 145.202C275.344 144.774 274.168 144.371 273.076 143.799C268.624 141.699 264.961 138.121 262.878 133.82C262.576 133.308 262.416 132.72 262.181 132.182C261.962 131.628 261.727 131.082 261.601 130.502L261.139 128.797C261.022 128.226 260.954 127.638 260.854 127.058C260.534 124.757 260.4 122.396 260.879 120.128C261.341 117.869 262.282 115.752 263.466 113.837C264.659 111.93 266.095 110.191 267.733 108.704C270.984 105.739 274.856 103.479 279.023 102.623C280.048 102.354 281.123 102.295 282.173 102.312C283.223 102.32 284.256 102.438 285.281 102.606C287.322 102.933 289.288 103.488 291.194 104.135C292.144 104.462 293.076 104.823 293.992 105.21C294.916 105.588 295.772 106.083 296.688 106.377C297.604 106.688 298.553 106.873 299.502 106.923C300.451 106.957 301.417 106.932 302.366 106.94L302.215 107.091C302.274 91.7782 302.324 77.9518 302.375 65.839C302.383 62.815 302.4 59.8918 302.408 57.0778C302.4 56.3806 302.434 55.675 302.4 54.9946C302.358 54.3226 302.215 53.659 301.938 53.0542C301.417 51.8278 300.485 50.8366 299.41 50.1562C298.318 49.4926 297.091 49.1146 295.865 49.0726C294.638 49.039 293.42 49.0642 292.244 49.0474C289.884 49.0474 287.641 49.039 285.524 49.039C277.04 49.0222 270.463 49.0054 266.003 48.997C263.777 48.9886 262.088 48.9802 260.938 48.9718C259.795 48.9718 259.216 48.955 259.216 48.955Z" fill="#263238"/>
<path d="M280.4 258.032C284.458 257.772 287.969 258.788 291.362 260.258C292.874 260.913 294.664 261.392 296.335 261.392L300.779 261.3V209.027C300.779 204.701 296.974 201.189 292.286 201.189H237.199H197.761H144.035C139.339 201.189 135.542 204.701 135.542 209.027V346.854C135.542 350.382 138.642 353.238 142.464 353.238H293.866C297.688 353.238 300.787 350.382 300.787 346.854V297.042H294.655C293.236 297.042 291.841 297.302 290.522 297.789C287.885 298.772 285.004 299.327 281.98 299.327C269.002 299.327 258.535 289.381 259.056 277.31C259.518 266.667 268.876 258.78 280.4 258.032Z" fill="#F8F9FB"/>
<path d="M280.4 258.033C280.4 258.033 279.905 258.1 278.93 258.209C278.443 258.243 277.838 258.361 277.124 258.503C276.402 258.613 275.587 258.839 274.663 259.1C272.832 259.663 270.581 260.511 268.22 262.065C267.632 262.46 267.019 262.855 266.448 263.359C266.154 263.602 265.843 263.837 265.558 264.098C265.272 264.375 264.986 264.652 264.701 264.938L264.264 265.366L263.861 265.845C263.592 266.164 263.315 266.492 263.029 266.819C262.55 267.542 261.979 268.239 261.568 269.062C261.08 269.843 260.728 270.725 260.341 271.616C260.047 272.54 259.694 273.481 259.535 274.489C259.132 276.488 259.031 278.672 259.367 280.889C259.694 283.107 260.358 285.392 261.542 287.542C262.718 289.684 264.314 291.709 266.305 293.439C270.253 296.908 275.814 299.201 281.854 299.21C284.869 299.243 287.952 298.672 290.942 297.521C291.715 297.269 292.513 297.093 293.328 297.001C294.143 296.9 294.974 296.925 295.789 296.925C297.436 296.925 299.099 296.925 300.787 296.925H300.93V297.068C300.938 304.871 300.938 313.162 300.947 321.898C300.947 326.266 300.955 330.752 300.955 335.338C300.955 337.631 300.955 339.95 300.955 342.302C300.955 343.478 300.955 344.654 300.955 345.838C300.955 346.426 300.972 347.023 300.905 347.644C300.829 348.257 300.653 348.845 300.409 349.417C299.384 351.693 297.016 353.213 294.521 353.407C292.043 353.465 289.59 353.423 287.087 353.44C282.089 353.44 276.998 353.44 271.816 353.449C261.45 353.449 250.706 353.457 239.644 353.457C217.518 353.465 194.074 353.465 169.638 353.474C163.531 353.474 157.357 353.474 151.133 353.474C148.008 353.457 144.908 353.507 141.733 353.44C140.129 353.281 138.558 352.609 137.374 351.491C136.181 350.383 135.408 348.803 135.349 347.157C135.341 334.481 135.341 321.596 135.332 308.542C135.332 289.659 135.332 271.12 135.332 253.06C135.332 244.03 135.332 235.118 135.332 226.331C135.332 221.938 135.332 217.579 135.332 213.261C135.332 212.177 135.332 211.102 135.332 210.027C135.316 208.969 135.341 207.826 135.694 206.776C136.357 204.659 137.97 202.929 139.919 201.971C140.893 201.484 141.952 201.182 143.027 201.073C144.119 200.972 145.16 201.031 146.219 201.014C148.327 201.014 150.427 201.014 152.51 201.014C156.685 201.014 160.826 201.014 164.926 201.014C173.124 201.014 181.154 201.022 189.017 201.022C204.733 201.031 219.744 201.031 233.94 201.039C248.136 201.047 261.5 201.056 273.941 201.064C280.157 201.064 286.138 201.073 291.875 201.073C294.773 200.947 297.679 202.232 299.359 204.475C300.208 205.583 300.728 206.911 300.888 208.263C300.972 209.624 300.913 210.934 300.93 212.245C300.905 233.127 300.888 249.801 300.871 261.334V261.41H300.804C299.057 261.435 297.419 261.502 295.89 261.485C294.353 261.401 292.967 260.998 291.749 260.511C289.355 259.453 287.28 258.789 285.583 258.461C283.886 258.125 282.584 258.067 281.719 258.058C281.291 258.05 280.963 258.067 280.745 258.075C280.51 258.033 280.4 258.033 280.4 258.033C280.4 258.033 280.829 257.983 281.694 257.974C282.559 257.966 283.861 258.016 285.575 258.344C287.28 258.663 289.372 259.327 291.766 260.368C292.975 260.839 294.353 261.233 295.873 261.317C297.394 261.326 299.032 261.259 300.779 261.225L300.712 261.301C300.695 249.776 300.678 233.102 300.653 212.211C300.636 210.909 300.695 209.565 300.611 208.263C300.46 206.961 299.956 205.676 299.132 204.609C297.494 202.45 294.706 201.199 291.866 201.333C286.129 201.333 280.148 201.341 273.932 201.341C261.5 201.35 248.128 201.358 233.932 201.367C219.736 201.375 204.725 201.375 189.008 201.383C181.154 201.383 173.116 201.392 164.917 201.392C160.818 201.392 156.685 201.392 152.502 201.392C150.41 201.392 148.319 201.392 146.21 201.392C145.16 201.409 144.085 201.358 143.069 201.451C142.044 201.56 141.028 201.845 140.095 202.307C138.239 203.223 136.71 204.869 136.088 206.869C135.752 207.868 135.727 208.901 135.752 209.993C135.752 211.069 135.752 212.152 135.752 213.227C135.752 217.553 135.752 221.905 135.752 226.298C135.752 235.076 135.752 243.997 135.752 253.027C135.752 271.087 135.752 289.625 135.752 308.509C135.761 321.554 135.761 334.431 135.769 347.098C135.828 348.627 136.534 350.097 137.659 351.139C138.776 352.189 140.246 352.819 141.767 352.97C144.866 353.037 148.025 352.987 151.133 353.003C157.357 353.003 163.531 353.003 169.638 353.003C194.074 353.012 217.51 353.012 239.644 353.02C250.706 353.02 261.442 353.029 271.816 353.029C276.998 353.029 282.089 353.029 287.087 353.037C289.582 353.029 292.076 353.071 294.487 353.012C296.864 352.827 299.124 351.374 300.09 349.232C300.317 348.694 300.485 348.14 300.56 347.56C300.628 346.989 300.611 346.393 300.611 345.796C300.611 344.612 300.611 343.427 300.611 342.26C300.611 339.916 300.611 337.589 300.611 335.296C300.611 330.71 300.619 326.224 300.619 321.856C300.628 313.12 300.628 304.829 300.636 297.026L300.779 297.169C299.09 297.169 297.427 297.169 295.781 297.169C294.958 297.169 294.143 297.143 293.345 297.244C292.547 297.337 291.766 297.505 291.01 297.757C288.019 298.907 284.869 299.487 281.837 299.445C275.738 299.428 270.127 297.101 266.137 293.582C264.138 291.826 262.525 289.785 261.341 287.609C260.148 285.442 259.484 283.124 259.157 280.889C258.821 278.647 258.93 276.446 259.342 274.43C259.51 273.405 259.862 272.464 260.165 271.532C260.56 270.633 260.912 269.751 261.408 268.961C261.828 268.13 262.408 267.433 262.895 266.71C263.18 266.383 263.458 266.055 263.735 265.727L264.146 265.249L264.592 264.82C264.886 264.535 265.18 264.257 265.457 263.98C265.751 263.72 266.062 263.485 266.356 263.241C266.935 262.737 267.557 262.342 268.145 261.947C270.53 260.402 272.79 259.553 274.63 259.007C275.562 258.755 276.377 258.537 277.099 258.428C277.813 258.293 278.418 258.184 278.914 258.159C279.896 258.075 280.4 258.033 280.4 258.033Z" fill="#263238"/>
<path d="M194.183 248.917C192.116 242.811 190.067 236.653 189.084 230.278C188.093 223.902 188.21 217.241 190.386 211.168C190.714 210.244 193.544 204.061 194.519 204.145C195.216 204.204 193.494 209.967 193.855 210.563C197.282 216.283 198.282 223.205 197.828 229.858C197.366 236.519 196.056 242.517 194.183 248.917Z" fill="#263238"/>
<path d="M194.855 282.292L193.25 224.315C192.528 208.153 201.331 194.26 217.501 193.982L218.996 194.041C234.058 194.663 246.12 206.742 246.708 221.803C247.254 235.814 247.682 251.304 247.279 258.788C246.448 274.286 230.832 276.059 230.832 276.059C230.798 276.059 230.698 292.162 230.706 296.723L219.685 308.424L220.324 304.879L194.855 282.292Z" fill="#FFBF9D"/>
<path d="M230.84 276.068C230.84 276.068 221.038 276.236 210.89 269.264C210.89 269.264 215.267 281.124 230.798 280.368L230.84 276.068Z" fill="#FF9A6C"/>
<path d="M194.04 235.855C193.78 235.729 183.515 232.26 183.414 242.878C183.313 253.495 193.998 251.404 194.015 251.101C194.04 250.799 194.04 235.855 194.04 235.855Z" fill="#FFBF9D"/>
<path d="M190.814 247.053C190.772 247.02 190.63 247.179 190.31 247.322C190.008 247.457 189.479 247.549 188.924 247.339C187.807 246.919 186.875 245.13 186.841 243.215C186.824 242.249 187.034 241.333 187.387 240.569C187.715 239.796 188.227 239.258 188.79 239.166C189.353 239.04 189.748 239.384 189.874 239.687C190.016 239.981 189.941 240.199 190 240.216C190.025 240.241 190.226 240.039 190.151 239.603C190.109 239.393 189.983 239.141 189.739 238.931C189.487 238.721 189.109 238.611 188.723 238.653C187.9 238.704 187.16 239.451 186.774 240.283C186.346 241.123 186.085 242.148 186.102 243.24C186.152 245.382 187.228 247.389 188.756 247.851C189.504 248.053 190.126 247.835 190.453 247.583C190.789 247.305 190.848 247.07 190.814 247.053Z" fill="#FF9A6C"/>
<path d="M239.854 204.213C241.576 203.264 236.418 197.695 232.193 195.78C225.809 192.882 216.065 191.093 210.185 192.756C203.095 194.763 197.207 198.283 193.654 204.734C190.092 211.177 188.748 218.695 188.958 226.053C189.017 228.296 189.252 230.64 190.453 232.538C191.932 234.89 194.779 236.368 194.653 239.603C194.603 240.787 194.947 241.98 195.754 242.845C197.694 244.911 200.071 242.971 201.163 241.022C203.498 236.864 203.759 231.9 203.969 227.137C204.12 223.752 204.254 220.291 203.305 217.04C202.784 215.268 201.953 213.596 201.533 211.799C201.113 210.001 201.172 207.968 202.289 206.498C202.474 206.263 202.768 205.961 203.154 205.625C206.161 202.987 210.37 202.206 214.141 203.541C220.122 205.658 230.328 208.825 232.999 206.801C236.838 203.886 237.754 201.979 237.754 201.979L239.854 204.213Z" fill="#263238"/>
<g opacity="0.3">
<path d="M218.812 295.311C217.501 293.119 216.006 291.515 214.704 289.322C214.603 289.146 213.965 288.474 214.04 288.281C214.091 288.163 213.394 288.986 213.15 289.356C211.814 291.414 209.706 293.304 208.295 295.11L190.462 278.906C195.359 285.903 200.936 292.439 206.951 298.008C207.404 298.428 208.018 298.739 208.631 298.671C209.294 298.604 209.79 298.05 210.218 297.529C211.126 296.437 212.033 295.337 212.932 294.245C213.142 293.993 213.368 293.724 213.688 293.648C214.124 293.539 214.553 293.833 214.914 294.11C215.83 294.816 216.745 295.521 217.661 296.227C218.047 296.521 218.635 296.807 218.963 296.445C219.223 296.135 219.022 295.656 218.812 295.311Z" fill="#202020"/>
</g>
<path d="M191.713 279.402C191.713 279.402 166.774 272.984 152.494 289.146C147.151 295.186 144.673 303.233 145.219 311.28C145.597 316.79 146.143 324.745 146.622 332.07C147.479 344.981 150.301 376.867 157.13 384.469C163.96 392.071 182.314 388.375 188.756 385.847C195.199 383.318 205.195 384.032 210.134 379.354C215.074 374.675 222.474 371.794 230.219 368.702C237.964 365.611 234.864 361.504 234.864 361.504L223.28 337.001L181.314 345.384C181.314 345.384 179.584 329.231 181.381 324.359C183.17 319.487 186.203 313.153 187.186 305.728C188.177 298.302 191.713 279.402 191.713 279.402Z" fill="#2C71F6"/>
<g opacity="0.3">
<path d="M180.39 345.124C172.04 346.602 164.875 353.364 162.91 361.613C162.632 362.772 162.599 364.284 163.657 364.847C164.438 365.259 165.446 364.855 166.026 364.183C166.597 363.511 166.849 362.629 167.126 361.789C169.504 354.515 174.947 348.299 181.835 344.973L180.39 345.124Z" fill="#202020"/>
</g>
<path d="M184.002 277.21H188.597L193.847 269.541L213.965 286.013L220.601 295.883L223.835 286.156L230.84 282.679L232.646 287.996L238.501 290.684L231.168 309.038L225.271 316.178C225.271 316.178 216.157 322.915 204.053 311.818C191.957 300.722 191.957 300.722 191.957 300.722L184.002 277.21Z" fill="white"/>
<path d="M184.002 277.211C184.002 277.211 208.068 313.608 217.812 310.164C227.556 306.729 237.224 289.702 237.224 289.702C237.224 289.702 258.401 296.413 264.995 303.57C271.589 310.727 282.618 352.761 282.618 352.761L181.322 345.385C181.322 345.385 166.236 322.764 166.236 321.051C166.236 319.337 170.688 279.051 170.688 279.051L184.002 277.211Z" fill="#2C71F6"/>
<path d="M223.902 337.943C223.902 337.943 237.544 332.861 243.592 333.482C249.64 334.104 273.269 352.769 273.269 352.769L242.525 352.592L239.854 350.156L233.008 357.548L223.902 337.943Z" fill="#FFBF9D"/>
<path d="M479.69 249.143L491.593 251.26C495.869 256.09 501.488 259.837 508.116 261.836C527.176 267.598 547.302 256.796 553.073 237.703C558.844 218.618 548.066 198.475 529.007 192.712C509.947 186.95 489.821 197.752 484.05 216.845C481.639 224.817 482.126 232.965 484.882 240.181L484.873 240.164L479.69 249.143Z" fill="#FAFAFA"/>
<path d="M479.69 249.143C479.69 249.143 479.791 248.95 480.01 248.572C480.236 248.177 480.556 247.597 480.984 246.85C481.858 245.313 483.143 243.053 484.806 240.13C484.831 240.088 484.882 240.071 484.924 240.096C484.932 240.105 484.949 240.113 484.949 240.121L484.957 240.138L484.798 240.222C483.168 235.989 481.748 229.924 482.647 222.717C482.866 220.927 483.252 219.079 483.79 217.206C484.058 216.274 484.436 215.35 484.764 214.392C485.066 213.426 485.528 212.511 485.982 211.561C487.78 207.798 490.358 204.085 493.769 200.885C497.171 197.676 501.396 194.98 506.201 193.224C510.997 191.46 516.382 190.654 521.858 191.124C527.327 191.653 532.846 193.451 537.768 196.509C539.045 197.206 540.154 198.163 541.338 199.029C541.943 199.449 542.438 200.003 542.993 200.482C543.522 200.994 544.11 201.456 544.597 202.011C545.563 203.128 546.647 204.178 547.478 205.421C547.915 206.026 548.377 206.622 548.806 207.244C549.192 207.891 549.578 208.537 549.965 209.184C552.964 214.258 554.484 220.02 554.753 225.648C555.022 231.293 553.946 236.862 551.771 241.768C549.62 246.682 546.445 250.949 542.716 254.284C538.986 257.627 534.71 260.046 530.368 261.55C526.025 263.053 521.615 263.641 517.499 263.515C515.432 263.507 513.458 263.163 511.543 262.869C509.67 262.39 507.839 262.012 506.159 261.357C499.38 258.879 494.575 254.847 491.501 251.335L491.551 251.369C487.67 250.655 484.688 250.101 482.664 249.731C481.681 249.546 480.925 249.403 480.404 249.311C479.934 249.193 479.69 249.143 479.69 249.143C479.69 249.143 479.968 249.185 480.48 249.269C481.009 249.361 481.774 249.487 482.773 249.655C484.789 250 487.754 250.512 491.61 251.167C491.635 251.167 491.652 251.184 491.669 251.201C494.752 254.67 499.548 258.643 506.285 261.071C507.948 261.709 509.771 262.079 511.627 262.549C513.517 262.835 515.483 263.163 517.532 263.171C521.615 263.28 525.974 262.692 530.267 261.189C534.559 259.693 538.784 257.291 542.472 253.981C546.16 250.68 549.293 246.463 551.41 241.6C553.552 236.753 554.618 231.251 554.341 225.665C554.064 220.104 552.577 214.409 549.604 209.394C549.217 208.756 548.839 208.117 548.461 207.479C548.041 206.866 547.588 206.278 547.151 205.681C546.328 204.447 545.261 203.422 544.303 202.313C543.816 201.767 543.236 201.305 542.716 200.801C542.161 200.322 541.674 199.776 541.078 199.365C539.902 198.516 538.81 197.567 537.55 196.878C532.686 193.846 527.226 192.073 521.825 191.544C516.415 191.074 511.09 191.863 506.335 193.594C501.581 195.324 497.389 197.987 494.021 201.154C490.636 204.321 488.074 207.983 486.276 211.713C485.831 212.645 485.36 213.552 485.058 214.51C484.73 215.459 484.361 216.366 484.084 217.299C483.538 219.155 483.16 220.986 482.933 222.767C482.009 229.907 483.378 235.947 484.966 240.172C484.982 240.214 484.957 240.273 484.915 240.289C484.873 240.306 484.831 240.289 484.814 240.256L484.806 240.239L484.957 240.231C483.269 243.112 481.958 245.329 481.068 246.85C480.623 247.597 480.287 248.169 480.052 248.572C479.816 248.941 479.69 249.143 479.69 249.143Z" fill="#263238"/>
<path d="M529.637 228.327C529.637 226.303 531.275 224.656 533.308 224.656C535.332 224.656 536.978 226.294 536.978 228.327C536.978 230.351 535.34 231.998 533.308 231.998C531.275 231.989 529.637 230.351 529.637 228.327Z" fill="#263238"/>
<path d="M514.962 228.327C514.962 226.303 516.6 224.656 518.633 224.656C520.657 224.656 522.304 226.294 522.304 228.327C522.304 230.351 520.666 231.998 518.633 231.998C516.6 231.989 514.962 230.351 514.962 228.327Z" fill="#263238"/>
<path d="M500.321 230.158C499.304 228.402 499.909 226.16 501.665 225.152C503.42 224.135 505.663 224.74 506.671 226.496C507.688 228.251 507.083 230.494 505.327 231.502C503.58 232.51 501.337 231.914 500.321 230.158Z" fill="#263238"/>
<path d="M167.328 83.5125L155.425 85.6293C151.15 90.4593 145.53 94.2057 138.902 96.2049C119.843 101.967 99.7164 91.1649 93.9456 72.0717C88.1748 52.9869 98.952 32.8437 118.012 27.0813C137.071 21.3189 157.198 32.1213 162.96 51.2145C165.371 59.1861 164.884 67.3341 162.12 74.5497L162.128 74.5329L167.328 83.5125Z" fill="#FAFAFA"/>
<path d="M167.328 83.5134C167.328 83.5134 167.202 83.3118 166.967 82.9254C166.732 82.5306 166.396 81.951 165.95 81.2034C165.06 79.6914 163.75 77.4654 162.061 74.5842L162.212 74.5926L162.204 74.6094C162.179 74.6514 162.12 74.6598 162.078 74.6346C162.044 74.6093 162.036 74.5674 162.044 74.5338C163.632 70.3086 165.001 64.2774 164.077 57.129C163.85 55.3482 163.464 53.5254 162.926 51.6606C162.658 50.7366 162.28 49.821 161.952 48.8717C161.65 47.9142 161.188 47.0069 160.734 46.0745C158.945 42.3533 156.374 38.6825 152.989 35.5157C149.612 32.3489 145.429 29.6861 140.675 27.9557C135.929 26.2253 130.603 25.4357 125.185 25.9061C119.784 26.4353 114.332 28.2161 109.46 31.2401C108.2 31.9289 107.108 32.8782 105.932 33.7266C105.336 34.1382 104.849 34.6842 104.294 35.163C103.774 35.667 103.194 36.1206 102.707 36.6749C101.749 37.7837 100.682 38.8085 99.8592 40.0433C99.4224 40.6397 98.9688 41.2278 98.5488 41.841C98.1708 42.4794 97.7844 43.1178 97.4064 43.7562C94.4412 48.771 92.946 54.4578 92.6688 60.027C92.4 65.6045 93.4584 71.1066 95.6004 75.9618C97.7172 80.8254 100.85 85.0422 104.538 88.3434C108.226 91.653 112.442 94.0638 116.743 95.5506C121.044 97.0542 125.404 97.6422 129.478 97.533C131.527 97.533 133.484 97.197 135.383 96.9114C137.239 96.441 139.062 96.0714 140.725 95.433C147.462 93.0054 152.25 89.0238 155.341 85.563C155.358 85.5462 155.375 85.5378 155.4 85.5294C159.264 84.8658 162.221 84.3618 164.237 84.0174C165.236 83.8494 166.001 83.7234 166.53 83.631C167.051 83.547 167.328 83.5134 167.328 83.5134C167.328 83.5134 167.084 83.5638 166.58 83.6646C166.06 83.7654 165.312 83.8998 164.321 84.0846C162.296 84.4626 159.314 85.0086 155.434 85.7226L155.484 85.689C152.41 89.2002 147.605 93.2322 140.826 95.7102C139.146 96.3654 137.315 96.7434 135.442 97.2222C133.535 97.5162 131.561 97.8606 129.486 97.869C125.37 97.995 120.96 97.407 116.617 95.9034C112.274 94.4082 108.007 91.9806 104.269 88.6374C100.54 85.3026 97.356 81.0438 95.214 76.1214C93.0384 71.2158 91.9632 65.655 92.232 60.0018C92.5092 54.3654 94.0212 48.6114 97.02 43.5378C97.4064 42.891 97.7928 42.2442 98.1792 41.5974C98.6076 40.9758 99.0612 40.3877 99.5064 39.7745C100.346 38.5313 101.422 37.4814 102.388 36.3642C102.883 35.8098 103.463 35.3478 103.992 34.8354C104.546 34.3566 105.042 33.8022 105.647 33.3822C106.831 32.5254 107.94 31.5594 109.217 30.8622C114.148 27.7962 119.666 26.0069 125.126 25.4777C130.603 25.0073 135.988 25.8138 140.784 27.5778C145.589 29.3334 149.814 32.0382 153.216 35.2386C156.626 38.4474 159.205 42.1518 161.003 45.9149C161.448 46.8558 161.918 47.7713 162.221 48.7457C162.548 49.7034 162.918 50.6274 163.195 51.5598C163.733 53.433 164.111 55.281 164.338 57.0702C165.236 64.2774 163.817 70.3422 162.187 74.5758L162.028 74.4918L162.036 74.475C162.061 74.433 162.12 74.4245 162.162 74.4497C162.17 74.4581 162.179 74.4666 162.187 74.475C163.85 77.3982 165.136 79.6578 166.009 81.195C166.429 81.9426 166.757 82.5138 166.984 82.917C167.227 83.3202 167.328 83.5134 167.328 83.5134Z" fill="#263238"/>
<path d="M117.382 62.6903C117.382 60.6659 115.744 59.0195 113.711 59.0195C111.686 59.0195 110.04 60.6575 110.04 62.6903C110.04 64.7147 111.678 66.3527 113.711 66.3527C115.744 66.3611 117.382 64.7147 117.382 62.6903Z" fill="#263238"/>
<path d="M132.056 62.6903C132.056 60.6659 130.418 59.0195 128.386 59.0195C126.361 59.0195 124.715 60.6575 124.715 62.6903C124.715 64.7147 126.353 66.3527 128.386 66.3527C130.41 66.3611 132.056 64.7147 132.056 62.6903Z" fill="#263238"/>
<path d="M146.689 64.5214C147.706 62.7658 147.101 60.523 145.345 59.515C143.59 58.4986 141.347 59.1034 140.339 60.859C139.322 62.6146 139.927 64.8574 141.683 65.8654C143.438 66.8818 145.681 66.277 146.689 64.5214Z" fill="#263238"/>
</svg>
