<svg width="630" height="420" viewBox="0 0 630 420" fill="none" xmlns="http://www.w3.org/2000/svg">
<path d="M116.012 405.335C109.821 376.825 124.378 354.473 124.378 354.473C135.29 376.615 116.012 405.335 116.012 405.335Z" fill="#323232"/>
<path d="M114.399 320.36C132.3 320.259 144.749 332.221 144.749 332.221C130.334 336.068 114.399 320.36 114.399 320.36Z" fill="#323232"/>
<path d="M152.56 334.305C156.802 355.389 145.681 372.81 145.681 372.81C137.86 356.707 152.56 334.305 152.56 334.305Z" fill="#323232"/>
<path d="M105.974 362.561C105.739 362.233 118.246 352.977 133.896 341.88C149.553 330.784 162.43 322.056 162.657 322.384C162.884 322.712 150.385 331.968 134.727 343.065C119.086 354.153 106.209 362.88 105.974 362.561Z" fill="#323232"/>
<path d="M72.0967 394.121C72.0967 394.121 83.0167 362.688 112.459 358.547C112.45 358.538 103.513 385.494 72.0967 394.121Z" fill="#323232"/>
<path d="M75.2891 346.861C75.2891 346.861 102.791 328.129 128.898 342.351C128.898 342.359 105.655 358.663 75.2891 346.861Z" fill="#323232"/>
<path d="M491.282 23.8652C496.482 52.568 481.152 74.408 481.152 74.408C471.022 51.9044 491.282 23.8652 491.282 23.8652Z" fill="#323232"/>
<path d="M489.955 108.848C472.063 108.327 460.034 95.9375 460.034 95.9375C474.566 92.5943 489.955 108.848 489.955 108.848Z" fill="#323232"/>
<path d="M452.298 93.585C448.795 72.3666 460.504 55.3398 460.504 55.3398C467.77 71.7114 452.298 93.585 452.298 93.585Z" fill="#323232"/>
<path d="M499.833 66.965C500.052 67.301 487.234 76.1209 471.206 86.6629C455.171 97.2133 442.008 105.487 441.781 105.151C441.563 104.815 454.373 96.0038 470.408 85.4534C486.444 74.9114 499.615 66.629 499.833 66.965Z" fill="#323232"/>
<path d="M534.785 36.5996C534.785 36.5996 522.782 67.6376 493.214 70.754C493.222 70.754 503.092 44.1344 534.785 36.5996Z" fill="#323232"/>
<path d="M529.956 83.7158C529.956 83.7158 501.815 101.482 476.221 86.3618C476.221 86.3618 500.018 70.8722 529.956 83.7158Z" fill="#323232"/>
<path d="M72.5172 177.443C75.9864 175.343 79.674 173.755 83.4876 172.68L85.7472 161.827L104.093 161.508L106.73 172.277C110.578 173.226 114.324 174.679 117.86 176.653L127.134 170.58L140.33 183.323L134.585 192.798C136.685 196.267 138.272 199.963 139.348 203.768L150.2 206.028L150.52 224.373L139.751 227.011C138.802 230.858 137.348 234.596 135.374 238.141L141.448 247.415L128.705 260.611L119.23 254.865C115.76 256.965 112.064 258.553 108.259 259.628L106 270.481L87.6539 270.8L85.0163 260.031C81.1692 259.082 77.4312 257.629 73.8864 255.655L64.6127 261.728L51.4164 248.985L57.162 239.51C55.062 236.041 53.4743 232.345 52.3907 228.54L41.538 226.28L41.2188 207.935L51.9875 205.297C52.9368 201.45 54.3983 197.712 56.3639 194.167L50.2907 184.893L63.0336 171.697L72.5172 177.443ZM82.2948 201.878C74.7432 209.699 74.9616 222.156 82.782 229.707C90.6024 237.259 103.06 237.041 110.611 229.22C118.163 221.4 117.944 208.943 110.124 201.391C102.304 193.839 89.8464 194.058 82.2948 201.878Z" fill="#89898B"/>
<path d="M573.157 216.385C574.619 215.503 576.173 214.831 577.769 214.378L578.718 209.808L586.437 209.674L587.546 214.201C589.167 214.596 590.738 215.209 592.225 216.041L596.123 213.487L601.675 218.847L599.256 222.837C600.138 224.298 600.81 225.852 601.263 227.448L605.833 228.397L605.967 236.117L601.44 237.226C601.045 238.839 600.432 240.418 599.6 241.905L602.154 245.802L596.795 251.355L592.805 248.935C591.343 249.817 589.789 250.489 588.193 250.943L587.244 255.513L579.524 255.647L578.415 251.119C576.803 250.725 575.223 250.103 573.737 249.28L569.839 251.833L564.287 246.474L566.706 242.484C565.824 241.023 565.152 239.469 564.698 237.873L560.129 236.923L559.994 229.204L564.522 228.095C564.917 226.482 565.538 224.903 566.361 223.416L563.808 219.519L569.167 213.966L573.157 216.385ZM577.273 226.667C574.098 229.96 574.19 235.201 577.475 238.377C580.767 241.552 586.009 241.459 589.184 238.167C592.359 234.874 592.267 229.632 588.983 226.457C585.69 223.282 580.448 223.374 577.273 226.667Z" fill="#89898B"/>
<path d="M286.137 190.269C288.96 188.564 291.959 187.27 295.05 186.397L296.889 177.577L311.799 177.316L313.941 186.069C317.066 186.842 320.107 188.026 322.988 189.631L330.523 184.692L341.25 195.049L336.579 202.752C338.285 205.574 339.578 208.573 340.452 211.664L349.272 213.504L349.532 228.414L340.779 230.556C340.007 233.68 338.822 236.721 337.218 239.602L342.157 247.137L331.8 257.864L324.097 253.194C321.275 254.899 318.276 256.192 315.185 257.066L313.345 265.886L298.435 266.146L296.293 257.394C293.168 256.621 290.127 255.436 287.246 253.832L279.711 258.771L268.985 248.414L273.655 240.711C271.95 237.889 270.656 234.89 269.783 231.799L260.963 229.959L260.702 215.049L269.455 212.899C270.228 209.774 271.412 206.733 273.017 203.852L268.077 196.317L278.435 185.59L286.137 190.269ZM294.084 210.135C287.952 216.494 288.128 226.616 294.479 232.756C300.837 238.888 310.959 238.712 317.091 232.362C323.223 226.003 323.047 215.881 316.697 209.74C310.346 203.6 300.216 203.776 294.084 210.135Z" fill="#89898B"/>
<path d="M204.355 319.697C207.178 317.992 210.176 316.698 213.268 315.825L215.107 307.005L230.017 306.744L232.159 315.497C235.284 316.27 238.325 317.454 241.206 319.059L248.741 314.119L259.468 324.477L254.797 332.179C256.502 335.002 257.796 338.001 258.67 341.092L267.49 342.931L267.75 357.841L258.997 359.983C258.224 363.108 257.04 366.149 255.436 369.03L260.375 376.565L250.018 387.292L242.315 382.621C239.492 384.327 236.494 385.62 233.402 386.494L231.563 395.314L216.653 395.574L214.511 386.821C211.386 386.049 208.345 384.864 205.464 383.26L197.929 388.199L187.202 377.842L191.873 370.139C190.168 367.317 188.874 364.318 188 361.227L179.18 359.387L178.92 344.477L187.673 342.327C188.446 339.202 189.63 336.161 191.234 333.28L186.295 325.745L196.652 315.018L204.355 319.697ZM212.302 339.555C206.17 345.913 206.346 356.035 212.696 362.176C219.055 368.308 229.177 368.131 235.309 361.781C241.441 355.422 241.265 345.3 234.914 339.16C228.564 333.019 218.434 333.196 212.302 339.555Z" fill="#89898B"/>
<path d="M516.02 273.723C519.128 271.841 522.437 270.421 525.856 269.447L527.881 259.711L544.328 259.426L546.697 269.086C550.141 269.934 553.501 271.245 556.676 273.009L564.992 267.557L576.827 278.981L571.678 287.482C573.56 290.59 574.979 293.908 575.954 297.318L585.689 299.343L585.975 315.79L576.315 318.159C575.467 321.603 574.156 324.963 572.392 328.138L577.844 336.454L566.42 348.289L557.919 343.14C554.811 345.022 551.493 346.441 548.083 347.416L546.058 357.151L529.611 357.437L527.242 347.777C523.798 346.929 520.438 345.618 517.263 343.854L508.947 349.306L497.111 337.882L502.261 329.381C500.379 326.273 498.96 322.955 497.985 319.545L488.249 317.52L487.964 301.073L497.624 298.704C498.472 295.26 499.783 291.9 501.547 288.725L496.095 280.409L507.519 268.573L516.02 273.723ZM524.789 295.638C518.019 302.652 518.212 313.824 525.226 320.595C532.24 327.365 543.412 327.172 550.183 320.158C556.953 313.144 556.76 301.972 549.746 295.201C542.732 288.423 531.56 288.624 524.789 295.638Z" fill="#89898B"/>
<path d="M564.229 120.583C568.664 117.475 571.049 111.696 569.789 105.757C568.135 97.9783 560.885 92.9299 553.594 94.4755C546.303 96.0211 541.725 103.573 543.38 111.351C544.648 117.34 549.251 121.683 554.627 122.666C534.988 130.125 540.692 151.982 540.692 151.982L588.748 141.801C588.748 141.801 585.019 119.264 564.229 120.583Z" fill="#89898B"/>
<path d="M564.228 120.583C564.363 120.574 564.531 120.566 564.883 120.549C565.312 120.541 565.9 120.457 566.731 120.507C568.361 120.524 570.822 120.725 573.754 121.792C576.669 122.834 580.003 124.942 582.767 128.386C585.514 131.813 587.79 136.391 588.916 141.784L588.949 141.944L588.79 141.977C575.434 144.817 558.911 148.336 540.75 152.2L540.54 152.242L540.49 152.041C539.969 149.789 539.734 147.454 539.717 145.069C539.709 142.683 539.952 140.255 540.549 137.87C541.431 134.241 543.186 130.847 545.698 128.218C546.949 126.899 548.361 125.765 549.856 124.808C551.351 123.842 552.964 123.119 554.568 122.473L554.602 122.884C551.821 122.372 549.293 120.977 547.361 119.071C545.421 117.164 544.085 114.745 543.405 112.233C541.985 107.176 543.438 101.75 546.655 98.2721C548.277 96.5501 550.276 95.2565 552.418 94.6181C554.551 93.9713 556.769 93.8957 558.81 94.2989C562.926 95.1305 566.101 97.8269 567.924 100.767C568.848 102.245 569.478 103.799 569.823 105.328C570.192 106.849 570.293 108.327 570.226 109.696C570.075 112.443 569.209 114.694 568.243 116.332C567.261 117.979 566.211 119.037 565.455 119.684C565.085 120.028 564.783 120.221 564.573 120.364C564.396 120.465 564.304 120.532 564.228 120.583C564.295 120.532 564.371 120.465 564.514 120.347C564.707 120.188 565.026 119.944 565.379 119.608C566.11 118.945 567.135 117.878 568.084 116.24C569.025 114.61 569.856 112.376 569.982 109.671C570.041 108.327 569.932 106.865 569.554 105.37C569.209 103.875 568.579 102.346 567.664 100.901C565.858 98.0285 562.733 95.4077 558.718 94.6097C556.727 94.2233 554.568 94.3073 552.493 94.9373C550.41 95.5673 548.478 96.8273 546.899 98.5073C543.783 101.901 542.371 107.185 543.766 112.107C544.429 114.56 545.74 116.903 547.621 118.751C549.503 120.608 551.964 121.952 554.652 122.447L555.375 122.582L554.686 122.859C553.107 123.497 551.519 124.22 550.057 125.161C548.596 126.101 547.21 127.21 545.992 128.504C543.531 131.083 541.817 134.401 540.952 137.962C540.372 140.297 540.12 142.7 540.137 145.052C540.145 147.404 540.389 149.731 540.893 151.915L540.641 151.755C558.81 147.925 575.341 144.439 588.706 141.625L588.571 141.818C587.488 136.501 585.245 131.923 582.549 128.529C579.835 125.11 576.559 123.01 573.678 121.943C570.789 120.86 568.344 120.633 566.723 120.583C565.917 120.515 565.253 120.574 564.841 120.557C564.522 120.583 564.354 120.583 564.228 120.583Z" fill="#263238"/>
<path d="M595.627 129.101L586.194 131.151L584.144 121.709L576.097 123.456L578.147 132.889L568.705 134.939L570.452 142.986L579.885 140.937L581.935 150.378L589.982 148.639L587.933 139.198L597.374 137.148L595.627 129.101Z" fill="#2C71F6"/>
<path d="M67.8219 300.998L59.7327 303.417L57.3219 295.328L50.4255 297.386L52.8363 305.475L44.7471 307.886L46.8051 314.783L54.8943 312.372L57.3135 320.461L64.2099 318.403L61.7907 310.314L69.8799 307.895L67.8219 300.998Z" fill="#2C71F6"/>
<path d="M65.9146 101.305C69.9382 101.044 73.693 98.2892 75.1882 94.0304C77.1454 88.4444 74.491 82.43 69.2578 80.5904C64.0246 78.7508 58.195 81.7832 56.2294 87.3692C54.7174 91.67 55.969 96.206 59.0014 98.9192C43.6294 96.0632 38.791 112.166 38.791 112.166L73.2814 124.296C73.2898 124.287 79.6402 108.512 65.9146 101.305Z" fill="#89898B"/>
<path d="M65.9147 101.305C66.0155 101.355 66.1331 101.422 66.3515 101.531C66.6287 101.691 67.0319 101.859 67.5443 102.212C68.5775 102.85 70.0643 103.925 71.5259 105.74C72.9791 107.537 74.2895 110.167 74.7263 113.426C75.1547 116.677 74.8271 120.473 73.4579 124.346L73.4075 124.497L73.2479 124.438C63.6467 121.078 51.7859 116.929 38.7407 112.359L38.5391 112.292L38.6063 112.099C39.7151 108.856 41.5463 105.681 44.1419 103.085C46.1159 101.12 48.5519 99.6245 51.1811 98.9273C52.4915 98.5661 53.8271 98.3981 55.1543 98.3645C56.4815 98.3309 57.7919 98.4905 59.0687 98.7005L58.8839 99.0701C57.3047 97.6589 56.2295 95.7857 55.7339 93.8117C55.2383 91.8377 55.3223 89.7713 55.8683 87.9065C56.9267 84.1265 59.9675 81.2285 63.3695 80.2541C65.0747 79.7921 66.8555 79.7417 68.4683 80.1617C70.0811 80.5817 71.5343 81.3965 72.6767 82.4465C74.9783 84.5801 75.9611 87.5369 75.9779 90.1157C76.0115 92.7365 75.1127 95.0213 73.9703 96.6929C72.8111 98.3813 71.3747 99.4817 70.1231 100.145C68.8631 100.809 67.7795 101.069 67.0487 101.187C66.3095 101.321 65.9315 101.288 65.9147 101.305C65.8895 101.296 66.2927 101.263 67.0235 101.12C67.7459 100.977 68.8043 100.691 70.0391 100.019C71.2655 99.3473 72.6515 98.2469 73.7771 96.5753C74.8859 94.9205 75.7427 92.6693 75.6839 90.1241C75.6503 87.6041 74.6759 84.7397 72.4415 82.6901C71.3327 81.6737 69.9299 80.9009 68.3759 80.5061C66.8135 80.1029 65.1083 80.1617 63.4619 80.6153C60.1859 81.5645 57.2627 84.3617 56.2463 88.0241C55.7255 89.8301 55.6499 91.8209 56.1287 93.7193C56.6075 95.6177 57.6407 97.4153 59.1527 98.7593L59.6987 99.2465L58.9679 99.1205C57.7163 98.9189 56.4395 98.7593 55.1459 98.7929C53.8523 98.8265 52.5503 98.9945 51.2819 99.3473C48.7283 100.028 46.3679 101.473 44.4359 103.396C41.9075 105.925 40.0931 109.075 39.0095 112.225L38.8751 111.956C51.9119 116.559 63.7643 120.742 73.3487 124.127L73.1387 124.22C74.5079 120.431 74.8523 116.66 74.4575 113.459C74.0543 110.242 72.7943 107.638 71.3831 105.849C69.9719 104.043 68.5103 102.951 67.5023 102.287C67.0151 101.935 66.5699 101.708 66.3179 101.54C66.1079 101.422 66.0071 101.363 65.9147 101.305Z" fill="#263238"/>
<path d="M510.619 221.189H456.767H416.758H361.595C356.916 221.189 353.119 224.986 353.119 229.665V284.601H349.398C347.668 284.601 345.979 284.164 344.417 283.408C340.335 281.434 335.589 280.628 330.582 281.476C320.645 283.165 312.892 291.413 311.791 301.435C310.279 315.227 321.04 326.887 334.522 326.887C337.798 326.887 340.914 326.189 343.728 324.946C345.19 324.299 346.744 323.93 348.34 323.93H353.111V377.505C353.111 382.184 356.908 385.981 361.587 385.981H510.603C514.416 385.981 517.499 382.889 517.499 379.084V228.086C517.516 224.272 514.433 221.189 510.619 221.189Z" fill="#323232"/>
<path d="M510.619 221.189C510.619 221.189 510.779 221.189 511.081 221.197C511.232 221.197 511.426 221.214 511.661 221.256C511.888 221.281 512.156 221.331 512.45 221.415C513.601 221.709 515.424 222.549 516.65 224.658C517.255 225.691 517.625 227.043 517.566 228.522C517.566 229.992 517.574 231.605 517.574 233.343C517.583 236.829 517.583 240.853 517.591 245.381C517.608 263.499 517.633 289.699 517.658 322.081C517.667 338.276 517.675 356.009 517.684 375.043C517.684 376.236 517.684 377.429 517.684 378.63C517.7 379.226 517.658 379.856 517.549 380.461C517.406 381.066 517.238 381.662 516.944 382.217C515.861 384.451 513.492 386.055 510.947 386.139C506.024 386.148 501.026 386.156 495.953 386.165C485.814 386.165 475.373 386.173 464.671 386.173C443.26 386.173 420.79 386.181 397.496 386.19C385.846 386.19 373.993 386.19 361.964 386.19C360.444 386.24 358.873 385.896 357.504 385.173C356.152 384.434 354.959 383.351 354.169 382.015C353.346 380.696 352.926 379.134 352.901 377.58C352.901 376.059 352.901 374.539 352.901 373.01C352.901 366.912 352.901 360.771 352.901 354.597C352.901 344.257 352.901 334.017 352.901 323.929L353.119 324.147C351.91 324.147 350.7 324.147 349.49 324.147C348.886 324.156 348.281 324.131 347.693 324.173C347.105 324.215 346.517 324.299 345.937 324.433C345.358 324.567 344.795 324.744 344.249 324.971C343.711 325.189 343.14 325.449 342.577 325.659C341.443 326.088 340.276 326.424 339.091 326.659C337.907 326.903 336.706 327.045 335.496 327.096C334.891 327.129 334.295 327.113 333.69 327.071C333.094 327.029 332.489 327.02 331.892 326.961C329.507 326.659 327.188 326.004 324.988 325.063C322.829 324.038 320.83 322.719 319.04 321.157C317.31 319.536 315.806 317.696 314.588 315.68C313.446 313.622 312.547 311.438 312.018 309.162C311.884 308.591 311.816 308.011 311.716 307.44L311.573 306.575C311.548 306.289 311.539 305.995 311.522 305.701L311.438 303.962L311.531 302.223C311.842 297.595 313.656 293.143 316.504 289.581C319.368 286.028 323.257 283.374 327.533 282.021C331.8 280.652 336.428 280.602 340.662 281.786C341.72 282.08 342.754 282.45 343.762 282.895C344.761 283.365 345.702 283.811 346.744 284.063C347.777 284.331 348.818 284.432 349.894 284.407C350.969 284.407 352.036 284.407 353.111 284.407L352.909 284.609C352.918 268.632 352.918 253.26 352.926 238.585C352.926 236.754 352.926 234.923 352.926 233.117C352.926 232.209 352.926 231.311 352.926 230.403C352.909 229.513 352.951 228.572 353.17 227.69C353.581 225.909 354.589 224.288 355.958 223.112C356.647 222.533 357.42 222.054 358.243 221.693C359.075 221.348 359.948 221.147 360.839 221.063C367.844 220.987 374.615 221.046 381.209 221.037C407.568 221.054 430.727 221.071 449.904 221.088C469.073 221.113 484.243 221.13 494.634 221.147C499.825 221.163 503.815 221.172 506.52 221.18C507.864 221.189 508.889 221.197 509.578 221.197C510.266 221.172 510.619 221.189 510.619 221.189C510.619 221.189 510.266 221.197 509.586 221.205C508.897 221.205 507.872 221.214 506.528 221.222C503.824 221.231 499.834 221.239 494.642 221.256C484.252 221.273 469.081 221.289 449.912 221.315C430.744 221.331 407.576 221.34 381.217 221.365C374.632 221.382 367.819 221.331 360.881 221.407C360.032 221.491 359.192 221.684 358.394 222.012C357.605 222.356 356.866 222.81 356.21 223.373C354.9 224.498 353.934 226.052 353.539 227.757C353.338 228.614 353.296 229.479 353.312 230.387C353.312 231.285 353.312 232.193 353.312 233.1C353.312 234.914 353.312 236.737 353.312 238.568C353.321 253.243 353.321 268.623 353.329 284.592V284.793H353.128C352.061 284.793 350.986 284.793 349.91 284.793C348.835 284.819 347.718 284.718 346.66 284.441C345.593 284.189 344.568 283.701 343.61 283.248C342.628 282.811 341.611 282.45 340.57 282.164C336.412 281.005 331.859 281.055 327.676 282.408C323.484 283.735 319.662 286.339 316.848 289.833C314.051 293.328 312.278 297.696 311.968 302.24L311.875 303.945L311.959 305.651C311.976 305.936 311.984 306.222 312.01 306.507L312.144 307.356C312.245 307.919 312.304 308.49 312.438 309.044C312.959 311.279 313.832 313.421 314.958 315.445C316.159 317.419 317.629 319.233 319.334 320.821C321.09 322.35 323.047 323.643 325.164 324.651C327.314 325.575 329.591 326.222 331.934 326.516C332.522 326.575 333.11 326.583 333.698 326.625C334.286 326.667 334.874 326.684 335.471 326.651C336.655 326.6 337.831 326.457 338.99 326.222C340.15 325.987 341.3 325.659 342.418 325.239C342.98 325.029 343.51 324.794 344.081 324.559C344.652 324.332 345.232 324.147 345.836 324.005C346.433 323.862 347.046 323.769 347.659 323.727C348.281 323.685 348.877 323.711 349.482 323.702C350.692 323.702 351.901 323.702 353.111 323.702H353.329V323.921C353.329 334.009 353.329 344.249 353.329 354.589C353.329 360.763 353.329 366.903 353.329 373.002C353.329 374.522 353.329 376.051 353.329 377.563C353.354 379.041 353.749 380.52 354.53 381.771C355.286 383.04 356.412 384.073 357.697 384.77C359.008 385.459 360.461 385.787 361.948 385.736C373.976 385.736 385.829 385.736 397.48 385.736C420.773 385.745 443.243 385.745 464.654 385.753C475.356 385.753 485.797 385.761 495.936 385.761C501.001 385.761 505.999 385.753 510.913 385.753C513.324 385.677 515.567 384.165 516.6 382.04C516.877 381.519 517.037 380.948 517.171 380.377C517.272 379.797 517.314 379.226 517.306 378.621C517.306 377.42 517.306 376.227 517.306 375.035C517.314 355.992 517.322 338.259 517.331 322.073C517.356 289.691 517.381 263.491 517.398 245.372C517.406 240.845 517.415 236.821 517.415 233.335C517.415 231.596 517.423 229.983 517.423 228.513C517.482 227.043 517.121 225.725 516.533 224.7C515.332 222.617 513.542 221.768 512.392 221.457C512.098 221.373 511.837 221.315 511.61 221.289C511.384 221.247 511.19 221.222 511.039 221.222C510.779 221.205 510.619 221.189 510.619 221.189Z" fill="#263238"/>
<path d="M474.289 312.901C473.928 302.753 473.55 292.564 471.601 282.602C469.653 272.639 467.2 262.929 460.925 254.924L402.217 258.04C399.949 267.037 397.665 276.243 398.614 285.466C399.529 294.412 403.461 303.064 402.822 312.044C402.377 318.386 399.681 324.316 397.69 330.356C395.699 336.395 394.422 343.107 396.791 349.012C397.387 350.499 398.253 351.952 399.605 352.826C401.26 353.901 403.36 353.943 405.334 353.943C428.803 353.977 452.273 353.439 475.717 352.339C475.23 339.193 474.76 326.047 474.289 312.901Z" fill="#263238"/>
<path d="M465.343 280.131C465.704 292.622 460.37 305.163 451.105 313.605C448.988 307.498 446.863 301.391 444.746 295.284" fill="#263238"/>
<path d="M417.362 243.675C422.822 240.71 429.425 240.282 435.532 241.5C441.638 242.718 447.325 245.464 452.71 248.556C455.734 250.294 458.749 252.201 460.916 254.923C464.881 259.887 468.804 268.027 469.182 274.352C469.493 279.468 467.519 292.269 465.343 296.914C463.344 301.173 454.003 304.424 449.4 305.474L407.098 256.569C408.601 251.151 412.39 246.38 417.362 243.675Z" fill="#263238"/>
<path d="M410.071 250.279L420.21 248.473C414.666 261.593 413.162 291.607 409.995 305.483C406.257 300.091 397.58 283.669 398.042 277.142C398.504 270.607 398.025 249.161 410.071 250.279Z" fill="#263238"/>
<path d="M458.152 272.075C457.707 264.565 452.558 258.148 445.225 256.291L421.772 250.344C411.675 249.26 404.938 261.6 404.275 271.672C403.544 282.86 403.09 294.662 404.401 303.012C407.047 319.804 419.983 321.971 419.983 321.971C419.983 321.946 419.983 325.843 419.991 330.749L420.251 331.37C426.249 345.44 446.073 346.087 452.986 332.437L458.203 272.327C458.219 272.024 458.177 272.528 458.152 272.075Z" fill="#FFBF9D"/>
<path d="M442.386 315.99C442.386 315.99 436.893 327.523 419.992 325.911L419.983 321.963C419.983 321.963 431.113 322.693 442.386 315.99Z" fill="#FF9A6C"/>
<path d="M408.861 256.334C409.894 253.806 412.683 252.294 415.422 252.151C418.16 252.016 420.84 253.041 423.208 254.41C433.263 260.19 438.438 274.151 448.375 280.123C450.819 281.593 454.003 280.249 456.078 282.198C458.152 284.147 459.505 287.255 458.354 289.859C459.69 288.036 461.042 286.188 461.798 284.063C462.554 281.937 462.655 279.468 461.521 277.519C460.664 276.041 459.144 274.906 458.724 273.252C458.354 271.79 458.934 270.27 458.875 268.766C458.808 267.237 458.085 265.818 457.329 264.482C453.44 257.636 448.081 251.445 441.184 247.598C436.682 245.086 431.524 243.616 426.367 243.784C421.201 243.961 416.043 245.842 412.263 249.345C410.046 251.412 407.71 253.537 408.861 256.334Z" fill="#263238"/>
<path d="M455.843 284.28C456.019 283.801 464.831 280.635 464.948 289.942C465.058 298.98 455.885 297.208 455.868 296.947C455.843 296.687 455.843 284.28 455.843 284.28Z" fill="#FFBF9D"/>
<path d="M458.631 293.496C458.673 293.47 458.791 293.605 459.06 293.722C459.32 293.84 459.774 293.916 460.244 293.739C461.202 293.378 462 291.858 462.025 290.228C462.042 289.405 461.857 288.624 461.563 287.977C461.277 287.322 460.84 286.86 460.362 286.776C459.883 286.666 459.538 286.96 459.429 287.212C459.312 287.464 459.37 287.649 459.32 287.666C459.295 287.691 459.127 287.515 459.194 287.145C459.228 286.969 459.337 286.75 459.547 286.574C459.765 286.398 460.084 286.305 460.42 286.339C461.126 286.381 461.756 287.019 462.092 287.725C462.462 288.439 462.68 289.312 462.663 290.236C462.621 292.059 461.697 293.773 460.387 294.159C459.748 294.336 459.211 294.142 458.934 293.932C458.648 293.714 458.606 293.512 458.631 293.496Z" fill="#FF9A6C"/>
<path d="M457.17 282.189C457.313 284.658 457.431 287.262 456.28 289.463C455.129 291.656 452.239 293.151 450.081 291.924C448.317 290.925 447.787 288.682 447.493 286.683C446.628 280.92 446.233 275.099 445.326 269.354L457.17 282.189Z" fill="#263238"/>
<path d="M483.73 360.529L510.728 389.282C515.18 394.028 518.414 398.363 524.731 400.017C529.158 401.177 536.096 400.572 538.389 397.657C541.531 393.659 543.026 385.46 539.59 380.177C536.146 374.893 511.98 351.373 511.98 351.373L483.73 360.529Z" fill="#FFBF9D"/>
<path d="M521.128 358.025C521.128 358.025 493.072 324.744 482.404 324.744C482.404 324.744 475.659 336.546 475.44 342.981C475.213 349.415 497.028 379.546 497.028 379.546L521.128 358.025Z" fill="#2C71F6"/>
<path d="M491.24 368.845L482.328 324.669L453.482 324.375C442.856 336.395 431.995 345.005 419.63 331.179L389.256 343.124L397.152 386.023L488.779 385.964C492.341 374.204 491.24 368.845 491.24 368.845Z" fill="#2C71F6"/>
<path d="M368.811 385.963C368.811 384.191 378.975 347.331 389.248 343.123L397.177 355.286L399.412 385.997L368.811 385.963Z" fill="#2C71F6"/>
<path d="M392.591 332.699C392.599 332.808 392.91 332.901 393.49 332.884C394.078 332.875 394.935 332.707 395.968 332.245C396.984 331.775 398.152 330.994 399.235 329.818C400.319 328.65 401.319 327.046 401.957 325.164C402.621 323.283 402.973 321.132 403.099 318.881C403.225 316.621 403.183 314.278 403.091 311.8C402.898 306.844 402.31 301.451 401.655 295.848C400.999 290.237 400.395 284.945 400.151 280.123C399.899 275.302 399.975 270.967 400.302 267.355C400.941 260.106 402.469 255.772 401.957 255.587C401.848 255.545 401.638 255.772 401.352 256.251C401.209 256.494 401.041 256.797 400.848 257.158C400.672 257.527 400.487 257.956 400.277 258.443C399.471 260.392 398.521 263.323 397.883 267.045C397.228 270.766 396.892 275.268 396.967 280.241C397.043 285.214 397.564 290.632 398.219 296.251C398.874 301.871 399.546 307.171 399.907 311.993C400.084 314.395 400.227 316.714 400.227 318.805C400.227 320.905 400.042 322.812 399.605 324.467C398.782 327.802 396.833 329.986 395.279 331.103C393.708 332.212 392.549 332.422 392.591 332.699Z" fill="#263238"/>
<path d="M472.257 286.33C475.44 297.88 472.736 313.328 475.886 322.601C479.027 331.875 481.32 342.173 477.767 351.304C476.138 347.709 474.5 344.114 472.87 340.518C474.852 344.752 474.432 350.002 471.812 353.874C469.191 357.747 455.986 361.048 451.299 360.83C446.553 335.781 447.863 316.629 456.062 297.275L462.395 304.272L468.099 301.836L472.257 286.33Z" fill="#263238"/>
<path d="M442.328 363.702C442.521 363.82 443.218 363.157 444.192 361.737C445.175 360.326 446.351 358.1 447.393 355.202C448.451 352.304 449.283 348.717 449.837 344.718C450.383 340.72 450.635 336.318 450.778 331.74C450.921 327.179 451.047 322.87 451.383 318.998C451.71 315.125 452.231 311.673 452.903 308.834C454.205 303.13 455.969 299.862 455.499 299.585C455.306 299.468 454.617 300.148 453.668 301.584C452.71 303.012 451.576 305.255 450.56 308.162C449.543 311.068 448.745 314.663 448.224 318.662C447.704 322.66 447.477 327.062 447.334 331.64C447.191 336.192 447.048 340.502 446.687 344.366C446.326 348.238 445.78 351.674 445.066 354.504C443.68 360.183 441.857 363.425 442.328 363.702Z" fill="#263238"/>
<path d="M462.655 296.493C462.638 296.519 462.865 296.678 463.168 297.048C463.462 297.417 463.823 298.039 463.907 298.879C464.008 299.711 463.747 300.761 462.932 301.533C462.16 302.315 460.874 302.793 459.623 302.457C458.371 302.155 457.388 301.223 457.019 300.189C456.616 299.148 456.725 298.081 457.019 297.3C457.313 296.502 457.817 295.989 458.237 295.779C458.665 295.569 458.951 295.628 458.951 295.595C458.951 295.586 458.884 295.561 458.749 295.553C458.615 295.544 458.413 295.561 458.178 295.662C457.708 295.847 457.128 296.384 456.784 297.216C456.439 298.039 456.296 299.173 456.716 300.307C457.111 301.441 458.178 302.466 459.539 302.802C460.219 302.97 460.925 302.945 461.555 302.751C462.185 302.55 462.731 302.197 463.151 301.769C463.579 301.34 463.873 300.836 464.033 300.324C464.184 299.811 464.209 299.307 464.142 298.862C464.016 297.963 463.596 297.325 463.26 296.972C462.916 296.603 462.664 296.485 462.655 296.493Z" fill="#323232"/>
<path d="M520.22 321.383L519.355 310.43L517.112 296.595L513.635 285.263C513.635 285.263 512.929 284.188 511.551 285.204C510.174 286.221 512.131 292.395 512.131 292.395L512.879 297.116C512.879 297.116 512.417 300.87 512.106 300.593C511.795 300.316 510.182 294.008 510.182 294.008L506.024 280.534C506.024 280.534 505.226 279.114 503.588 279.837C502.673 280.232 502.211 281.668 502.547 283.692C502.883 285.717 504.151 289.068 504.369 290.211C504.588 291.362 506.083 297.972 506.083 297.972L499.733 283.079C499.733 283.079 498.321 278.165 496.305 279.106C494.281 280.055 496.079 283.491 496.339 285.036C496.599 286.582 500.774 296.729 500.841 299.678C500.9 302.626 500.279 301.215 500.279 301.215C500.279 301.215 498.54 296.519 497.171 292.823C495.801 289.127 494.113 287.078 492.425 286.977C490.736 286.876 493.911 295.452 493.911 295.452L498.053 307.464L497.784 311.454L494.642 308.22C494.642 308.22 494.063 303.609 490.946 301.996C487.779 300.358 487.317 302.626 487.317 302.626L494.676 319.93C496.272 322.719 505.184 327.515 505.184 327.515L508.611 345.29L527.234 342.19L520.22 321.383Z" fill="#FFBF9D"/>
<path d="M513.047 315.621C512.963 315.721 511.997 314.932 510.367 313.831C508.763 312.781 506.243 311.337 503.32 311.782C502.035 311.967 500.875 312.529 500.119 313.344L499.842 313.647L499.54 313.327C498.187 311.908 496.776 310.69 495.919 309.799C495.021 308.917 494.559 308.304 494.643 308.237C494.701 308.195 495.247 308.665 496.239 309.447C497.213 310.278 498.591 311.295 500.153 312.857L499.565 312.832C500.422 311.857 501.766 311.185 503.211 310.984C504.807 310.74 506.369 311.034 507.629 311.555C508.897 312.067 509.914 312.756 510.72 313.369C512.299 314.621 513.114 315.553 513.047 315.621Z" fill="#FF9A6C"/>
<path d="M515.743 385.03L505.789 329.649L520.867 323.105L541.212 384.157L515.743 385.03Z" fill="#FFBF9D"/>
<path d="M517.154 385.533C517.103 385.542 516.868 384.752 516.49 383.299C516.104 381.846 515.583 379.746 514.97 377.133C513.735 371.917 512.156 364.676 510.535 356.663C508.914 348.641 507.536 341.366 506.578 336.091C506.133 333.546 505.764 331.437 505.486 329.841C505.243 328.363 505.134 327.54 505.184 327.531C505.234 327.523 505.436 328.329 505.764 329.791C506.1 331.378 506.545 333.47 507.082 335.999C508.174 341.366 509.636 348.565 511.249 356.528C512.887 364.483 514.373 371.673 515.474 377.032C516.003 379.569 516.44 381.661 516.768 383.248C517.053 384.71 517.196 385.525 517.154 385.533Z" fill="#FF9A6C"/>
<path d="M487.024 103.705C483.798 103.705 480.741 104.352 477.969 105.511C476.532 106.108 474.995 106.46 473.433 106.46L467.485 106.108L467.191 56.1864C467.191 51.8352 463.462 48.2988 458.859 48.2988L452.256 48.324H400.974H362.88H311.758H310.355C305.903 48.324 302.291 51.852 302.291 56.2116V105.814H298.746C297.1 105.814 295.479 105.419 294.009 104.705C290.262 102.89 283.273 100.555 278.502 101.345C269.044 102.916 259.426 112.441 259.426 121.824C259.426 137.557 271.749 147.419 284.584 147.419C287.709 147.419 290.665 146.772 293.345 145.613C294.731 145.016 295.714 144.68 297.234 144.68L302.283 144.664V193.787C302.283 198.138 305.895 201.674 310.347 201.674H311.749H364.72H404.074H452.239H458.573C463.176 201.674 466.906 198.146 466.906 193.787L467.166 142.698L472.374 143.059C474.079 143.059 475.743 143.471 477.271 144.168C481.287 146.008 485.957 146.755 490.879 145.966C500.657 144.395 508.284 136.717 509.359 127.393C510.871 114.558 500.287 103.705 487.024 103.705Z" fill="#89898B"/>
<path d="M487.023 103.706C487.023 103.706 487.536 103.723 488.552 103.765C488.804 103.773 489.09 103.79 489.401 103.807C489.711 103.84 490.056 103.899 490.425 103.95C490.795 104.008 491.198 104.067 491.635 104.134C492.063 104.193 492.517 104.344 492.996 104.462C494.928 104.924 497.271 105.806 499.733 107.394C502.169 108.981 504.789 111.283 506.73 114.601C507.192 115.441 507.687 116.289 508.04 117.247C508.477 118.162 508.721 119.179 509.023 120.204C509.166 120.716 509.225 121.262 509.325 121.791C509.376 122.06 509.418 122.329 509.468 122.606C509.502 122.883 509.502 123.16 509.527 123.438C509.552 124 509.603 124.563 509.611 125.134C509.577 125.706 509.544 126.285 509.51 126.873C509.325 129.208 508.679 131.619 507.57 133.921C506.469 136.231 504.848 138.398 502.832 140.28C498.834 144.076 492.962 146.504 486.645 146.412C483.495 146.37 480.245 145.681 477.204 144.286C475.709 143.606 474.054 143.203 472.357 143.203C470.652 143.085 468.921 142.968 467.174 142.842L467.325 142.707C467.292 150.83 467.25 159.474 467.208 168.596C467.183 173.157 467.166 177.836 467.141 182.624C467.132 185.018 467.115 187.446 467.107 189.898C467.099 191.125 467.099 192.36 467.09 193.594C467.115 194.854 466.83 196.14 466.242 197.282C465.099 199.592 462.764 201.238 460.194 201.7C458.892 201.927 457.598 201.826 456.305 201.852C455.011 201.852 453.709 201.852 452.399 201.852C447.174 201.852 441.84 201.852 436.405 201.86C425.544 201.86 414.279 201.868 402.662 201.868C379.428 201.877 354.765 201.877 329.003 201.885C325.785 201.885 322.543 201.885 319.292 201.885C317.663 201.885 316.033 201.885 314.395 201.885H311.942C311.119 201.877 310.304 201.902 309.456 201.835C307.784 201.65 306.155 200.97 304.878 199.844C303.584 198.752 302.669 197.215 302.282 195.552C302.097 194.72 302.064 193.846 302.081 193.023V190.528C302.081 188.865 302.081 187.194 302.081 185.514C302.081 172.116 302.081 158.482 302.081 144.656L302.299 144.874C300.594 144.883 298.863 144.883 297.099 144.891C296.234 144.9 295.386 145.059 294.571 145.353C293.756 145.647 292.933 146.05 292.076 146.344C290.363 146.958 288.557 147.361 286.717 147.529C285.801 147.604 284.869 147.672 283.945 147.596C283.021 147.546 282.089 147.537 281.173 147.369C273.26 146.37 266.028 141.414 262.323 134.492C260.467 131.04 259.476 127.176 259.291 123.303C259.089 121.38 259.341 119.397 259.871 117.541C260.114 116.6 260.509 115.718 260.879 114.819C261.324 113.971 261.744 113.097 262.29 112.299C262.777 111.468 263.399 110.728 263.97 109.964C264.608 109.258 265.213 108.511 265.919 107.864C267.271 106.512 268.783 105.344 270.387 104.336C271.975 103.303 273.714 102.496 275.495 101.892C277.275 101.278 279.165 100.9 281.055 100.976C284.819 101.119 288.431 102.177 291.858 103.513C292.715 103.849 293.555 104.235 294.378 104.622C295.193 104.991 296.049 105.268 296.931 105.428C297.813 105.604 298.695 105.604 299.603 105.596C300.51 105.596 301.417 105.596 302.316 105.596L302.106 105.806C302.106 89.5017 302.114 73.6089 302.114 58.2117C302.131 57.2457 302.081 56.3049 302.165 55.3053C302.265 54.3225 302.576 53.3733 303.03 52.5081C303.945 50.7693 305.499 49.4085 307.297 48.6945C308.196 48.3333 309.162 48.1401 310.128 48.1233C311.085 48.0981 312.018 48.1149 312.959 48.1149C314.84 48.1149 316.705 48.1149 318.57 48.1149C326.012 48.1149 333.329 48.1233 340.494 48.1233C369.18 48.1317 395.598 48.1485 419.168 48.1569C430.953 48.1653 442.025 48.1737 452.306 48.1737C453.591 48.1737 454.868 48.1653 456.128 48.1653C456.758 48.1653 457.388 48.1653 458.01 48.1569C458.631 48.1485 459.261 48.1485 459.883 48.2157C462.369 48.5013 464.688 49.8537 466.015 51.8781C466.687 52.8777 467.115 54.0201 467.267 55.1877C467.393 56.3637 467.317 57.4977 467.351 58.6401C467.359 60.9081 467.376 63.1173 467.384 65.2761C467.468 82.5297 467.527 96.3393 467.577 106.1L467.519 106.033C469.207 106.134 470.786 106.234 472.248 106.318C473.718 106.478 475.07 106.344 476.28 106.033C477.489 105.73 478.514 105.201 479.505 104.89C480.488 104.563 481.395 104.336 482.193 104.168C483.806 103.84 485.033 103.756 485.839 103.714C486.629 103.689 487.023 103.706 487.023 103.706C486.914 103.714 486.587 103.723 485.814 103.756C485.007 103.807 483.789 103.908 482.177 104.244C481.37 104.42 480.48 104.647 479.497 104.983C478.514 105.294 477.489 105.831 476.271 106.142C475.062 106.47 473.667 106.604 472.206 106.453C470.736 106.369 469.157 106.276 467.468 106.184H467.409V106.125C467.342 96.3645 467.241 82.5549 467.115 65.3013C467.099 63.1425 467.082 60.9333 467.073 58.6653C467.048 57.5397 467.107 56.3721 466.989 55.2465C466.838 54.1209 466.418 53.0121 465.771 52.0461C464.486 50.0889 462.235 48.7785 459.824 48.5013C459.219 48.4425 458.606 48.4341 457.976 48.4425C457.355 48.4425 456.725 48.4509 456.095 48.4509C454.835 48.4593 453.558 48.4593 452.273 48.4677C441.991 48.4761 430.92 48.4845 419.135 48.4845C395.564 48.4929 369.146 48.5013 340.46 48.5181C333.287 48.5181 325.979 48.5265 318.536 48.5265C316.671 48.5265 314.807 48.5265 312.925 48.5265C311.052 48.5685 309.137 48.3417 307.415 49.0893C305.701 49.7697 304.223 51.0633 303.357 52.7097C302.929 53.5329 302.635 54.4317 302.543 55.3641C302.459 56.2797 302.509 57.2625 302.492 58.2201C302.492 73.6173 302.501 89.5101 302.501 105.814V106.024H302.291C301.392 106.024 300.485 106.024 299.577 106.024C298.679 106.033 297.738 106.033 296.822 105.848C295.907 105.68 295.016 105.394 294.168 105.016C293.336 104.622 292.521 104.252 291.665 103.916C288.279 102.597 284.693 101.556 281.013 101.413C279.182 101.337 277.351 101.707 275.604 102.312C273.857 102.908 272.151 103.698 270.589 104.714C269.01 105.705 267.523 106.864 266.196 108.192C265.499 108.822 264.911 109.561 264.281 110.258C263.718 111.014 263.113 111.736 262.634 112.551C262.097 113.324 261.693 114.181 261.248 115.021C260.887 115.894 260.501 116.76 260.265 117.675C259.753 119.49 259.501 121.38 259.703 123.295C259.887 127.1 260.862 130.897 262.685 134.299C266.322 141.094 273.428 145.975 281.207 146.949C282.105 147.117 283.021 147.126 283.928 147.176C284.835 147.243 285.743 147.184 286.65 147.109C288.456 146.941 290.22 146.546 291.9 145.95C292.74 145.664 293.538 145.269 294.395 144.958C295.251 144.648 296.167 144.471 297.066 144.471C298.83 144.463 300.56 144.463 302.265 144.454H302.484V144.673C302.484 158.499 302.484 172.132 302.484 185.53C302.484 187.202 302.484 188.874 302.484 190.545V193.04C302.467 193.88 302.501 194.678 302.677 195.468C303.038 197.038 303.903 198.492 305.138 199.533C306.348 200.6 307.893 201.238 309.481 201.423C310.271 201.49 311.102 201.465 311.917 201.474H314.37C316.008 201.474 317.637 201.474 319.267 201.474C322.518 201.474 325.76 201.474 328.977 201.474C354.74 201.482 379.403 201.482 402.637 201.49C414.254 201.49 425.519 201.499 436.38 201.499C441.815 201.499 447.149 201.507 452.373 201.507C453.684 201.507 454.977 201.507 456.279 201.507C457.573 201.482 458.875 201.583 460.101 201.364C462.571 200.919 464.814 199.34 465.906 197.131C466.469 196.039 466.746 194.821 466.721 193.603C466.729 192.36 466.737 191.133 466.746 189.907C466.763 187.454 466.771 185.026 466.788 182.632C466.813 177.836 466.838 173.166 466.872 168.604C466.922 159.482 466.973 150.847 467.023 142.716V142.564L467.174 142.573C468.921 142.699 470.643 142.816 472.349 142.942C474.071 142.942 475.767 143.362 477.296 144.06C480.303 145.446 483.512 146.126 486.629 146.176C492.887 146.286 498.699 143.892 502.664 140.137C504.663 138.28 506.268 136.13 507.368 133.854C508.469 131.577 509.115 129.192 509.3 126.873C509.334 126.294 509.367 125.722 509.401 125.151C509.393 124.58 509.342 124.026 509.325 123.471C509.309 123.194 509.309 122.917 509.267 122.648C509.225 122.379 509.174 122.11 509.132 121.842C509.031 121.312 508.981 120.775 508.838 120.262C508.544 119.246 508.292 118.246 507.864 117.331C507.519 116.382 507.024 115.533 506.57 114.702C504.655 111.4 502.059 109.107 499.64 107.511C497.196 105.924 494.869 105.033 492.945 104.563C492.467 104.445 492.021 104.294 491.593 104.227C491.165 104.16 490.761 104.092 490.392 104.034C490.022 103.975 489.678 103.916 489.367 103.882C489.056 103.866 488.771 103.849 488.519 103.832C487.544 103.74 487.023 103.706 487.023 103.706Z" fill="#263238"/>
<path d="M455.381 187.638C454.776 186.26 453.297 182.086 452.189 181.078C447.199 176.533 442.285 175.382 436.8 171.451L437.909 215.828C439.547 218.206 443.041 217.928 445.746 216.937C448.451 215.946 450.492 213.636 451.895 211.116C454.952 205.639 456.111 201.254 456.531 194.996C456.657 193.216 456.095 189.251 455.381 187.638Z" fill="#2C71F6"/>
<path d="M412.54 142.564C407.274 139.33 389.986 136.264 386.114 135.911L381.276 131.947L347.188 129.889L342.182 136.785L324.71 141.439C320.115 142.657 316.008 145.244 312.908 148.847L302.509 157.029L302.526 192.46C302.526 197.912 305.306 201.541 310.766 201.541L415.497 201.28C421.906 212.545 430.029 218.525 443.755 217.559L441.714 171.872C441.697 171.863 419.949 147.109 412.54 142.564Z" fill="#2C71F6"/>
<path d="M429.181 175.65L436.757 124.797L450.466 126.888C450.466 126.888 453.7 169.636 453.104 182.648C452.919 186.713 453.196 193.526 450.449 197.969C445.754 205.554 431.961 205.571 427.694 197.734C425.476 194.399 426.434 189.67 426.904 187.268L429.181 175.65Z" fill="#AE7461"/>
<path d="M451.625 129.888L453.927 119.774L455.809 106.687L455.876 95.5065C455.876 95.5065 455.54 94.3389 454.028 94.8765C452.507 95.4057 452.524 101.521 452.524 101.521L451.861 105.981C451.861 105.981 450.391 109.241 450.189 108.896C449.987 108.56 450.315 102.42 450.315 102.42L450.374 89.1141C450.374 89.1141 450.063 87.6189 448.383 87.8037C447.451 87.9045 446.636 89.0637 446.367 90.9873C446.098 92.9109 446.3 96.2793 446.174 97.3713C446.048 98.4717 445.527 104.839 445.527 104.839L444.032 89.6517C444.032 89.6517 444.149 84.8301 442.075 85.1157C440 85.4013 440.638 89.0049 440.437 90.4665C440.235 91.9281 441.125 102.243 440.353 104.923C439.58 107.594 439.412 106.149 439.412 106.149C439.412 106.149 439.177 101.437 438.983 97.7157C438.799 94.0029 437.858 91.6845 436.379 91.1217C434.901 90.5589 435.338 99.1689 435.338 99.1689L435.674 111.147L434.305 114.667L432.398 110.879C432.398 110.879 433.171 106.561 430.835 104.234C428.467 101.874 427.408 103.789 427.408 103.789L429.13 121.437C429.777 124.394 436.413 131.207 436.413 131.207L434.489 148.175L452.045 150.585L451.625 129.888Z" fill="#AE7461"/>
<path d="M446.737 123.084C446.636 123.151 445.989 122.168 444.838 120.724C443.696 119.329 441.848 117.322 439.101 116.91C437.892 116.717 436.699 116.902 435.792 117.422L435.456 117.616L435.271 117.238C434.464 115.583 433.532 114.088 433.02 113.046C432.465 111.996 432.222 111.316 432.314 111.282C432.381 111.257 432.742 111.836 433.406 112.819C434.044 113.836 434.994 115.138 435.951 116.986L435.43 116.801C436.472 116.162 437.866 115.936 439.21 116.154C440.706 116.381 442.024 117.078 443.007 117.901C443.998 118.716 444.712 119.623 445.258 120.396C446.342 121.967 446.812 123.034 446.737 123.084Z" fill="#6F4439"/>
<path d="M347.096 190.336C344.694 188.219 340.804 193.309 340.804 193.309C340.048 191.722 335.025 191.906 334.252 194.174C333.748 193.007 333.841 192.293 332.791 191.579C331.741 190.856 330.363 190.562 329.17 190.999C327.978 191.444 327.087 192.713 327.264 193.964C326.088 192.402 323.878 191.696 322.014 192.301C320.896 192.662 319.947 193.486 319.368 194.502C319.074 195.014 318.88 195.569 318.788 196.148C318.754 196.358 318.687 196.602 318.729 196.812C318.746 196.913 318.796 197.005 318.855 197.089C319.116 197.492 319.443 197.837 319.678 198.257C319.771 198.416 319.846 198.576 319.93 198.744C320.283 199.492 320.502 200.298 320.636 201.113C320.695 201.491 320.678 201.911 320.796 202.272C320.871 202.516 321.056 202.7 321.174 202.927C321.921 204.355 321.938 206.119 322.022 207.69C322.123 209.462 322.316 211.327 323.366 212.755C324.424 214.183 326.65 214.88 328.011 213.746C327.885 214.864 328.851 215.93 329.968 216.115C331.077 216.3 332.228 215.746 332.959 214.889C333.69 214.032 334.059 212.915 334.236 211.806C334.278 213.133 335.672 214.15 336.999 214.049C338.318 213.948 339.452 212.965 340.048 211.781C340.645 210.596 340.788 209.244 340.821 207.917C340.855 206.59 341.434 202.776 341.661 201.474C341.661 201.474 343.837 201.457 344.601 201.465L345.181 200.038C346.046 197.77 346.726 196.325 347.356 194.275C347.835 192.73 348.096 191.218 347.096 190.336Z" fill="#AE7461"/>
<path d="M314.118 195.535C313.026 195.594 311.858 195.922 311.203 196.804C310.43 197.845 310.481 200.264 310.691 201.541C310.691 201.583 314.462 201.533 314.462 201.533H315.395C316.134 201.961 316.125 203.532 316.478 204.313C317.091 205.666 318.939 206.195 320.283 205.556C321.627 204.918 322.392 203.364 322.325 201.877C322.266 200.39 321.485 199.004 320.435 197.954C318.788 196.308 316.436 195.409 314.118 195.535Z" fill="#AE7461"/>
<path d="M327.247 193.527C327.533 193.519 327.936 198.03 328.146 203.616C328.356 209.193 328.297 213.729 328.012 213.738C327.726 213.746 327.331 209.235 327.113 203.649C326.903 198.072 326.962 193.536 327.247 193.527Z" fill="#6F4439"/>
<path d="M334.269 193.863C334.538 193.83 335.269 197.904 335.277 202.994C335.302 208.093 334.588 212.167 334.319 212.133C334.025 212.1 334.269 208.017 334.252 202.994C334.244 197.979 333.975 193.897 334.269 193.863Z" fill="#6F4439"/>
<path d="M341.124 194.192C341.409 194.166 341.838 197.577 341.678 201.76C341.518 205.943 341.174 209.295 340.905 209.295C340.603 209.295 340.494 205.884 340.653 201.726C340.804 197.577 340.846 194.217 341.124 194.192Z" fill="#6F4439"/>
<path d="M316.352 196.047C316.335 195.929 317.049 195.702 318.133 196.08C319.208 196.433 320.493 197.533 321.199 199.079C321.896 200.633 322.198 202.002 322.257 203.17C322.249 204.43 321.367 204.875 321.333 204.715C321.241 204.606 321.694 204.136 321.526 203.212C321.325 202.321 320.879 200.86 320.266 199.524C319.636 198.155 318.67 197.214 317.83 196.744C316.999 196.257 316.352 196.206 316.352 196.047Z" fill="#6F4439"/>
<path d="M370.187 33.1783C369.884 29.5999 366.079 26.7355 362.551 27.4327C360.552 23.5099 355.075 21.8383 351.22 23.9719C349.388 24.9883 348.002 26.6683 346.213 27.7603C344.491 28.8103 342.484 29.2639 340.669 30.1375C338.855 31.0111 337.116 32.5147 336.889 34.5139C336.637 36.7399 338.401 38.7895 340.484 39.6211C342.559 40.4527 344.878 40.3435 347.12 40.2175C346.146 40.7803 345.928 42.1999 346.432 43.2079C346.936 44.2159 347.96 44.8627 349.002 45.2827C352.48 46.6687 356.713 45.8875 359.468 43.3507L363.652 40.1419C367.23 40.2259 370.489 36.7567 370.187 33.1783Z" fill="#263238"/>
<path d="M359.738 47.1564C358.965 47.9208 357.587 47.8368 356.789 47.106C355.991 46.3668 355.765 45.1404 356.075 44.0988C356.386 43.0572 357.167 42.2004 358.075 41.6124C358.982 41.016 360.023 40.6632 361.065 40.3524C362.669 39.8736 364.324 39.4956 365.996 39.42C366.592 39.3948 367.205 39.4032 367.751 39.63C368.297 39.8568 368.768 40.3524 368.818 40.9488C368.885 41.7804 368.155 42.444 367.483 42.9396C364.971 44.796 362.3 46.4172 359.494 47.7864" fill="#2C71F6"/>
<path d="M357.285 46.7373C353.32 42.3105 343.45 42.9069 341.09 45.7797C337.679 43.9737 332.916 45.5193 331.211 48.9885C327.708 49.7277 324.206 50.4669 320.703 51.2061C318.914 51.5841 317.032 52.0041 315.646 53.2053C314.26 54.4065 313.605 56.6577 314.73 58.1025C311.026 59.0349 309.539 64.5285 312.261 67.2081C310.74 68.7873 311.018 71.7105 312.807 72.9705C309.884 76.4229 307.557 80.3793 305.961 84.6129C305.289 86.3853 304.751 88.3593 305.398 90.1401C306.045 91.9209 308.372 93.1557 309.909 92.0637C308.85 93.4917 308.75 95.5581 309.657 97.0869C307.884 97.1205 307.33 99.8589 308.54 101.161C309.749 102.463 311.732 102.606 313.504 102.58C315.276 102.555 317.208 102.471 318.653 103.496C318.586 104.025 318.376 104.37 318.065 104.622C314.999 107.083 314.1 111.342 316.368 114.559C316.578 114.853 316.772 115.13 316.948 115.382C317.964 116.852 320.501 118.204 322.08 119.044C326.079 121.17 328.473 120.783 332.95 121.464C331.707 124.345 338.939 130.796 347.314 124.563C363.904 129.15 375.874 130.922 393.086 131.09C395.538 131.115 398.495 130.804 399.596 128.612C401.586 129.158 403.737 128.243 405.224 126.814C406.702 125.386 407.643 123.497 408.55 121.649C412.809 120.54 416.118 116.457 416.32 112.064C419.218 109.838 421.1 106.344 421.377 102.698C425.518 101.463 427.836 96.1209 425.896 92.2569C425.039 87.1833 423.342 82.2525 420.89 77.7333C423.712 77.1453 424.796 73.3569 423.653 70.7109C422.511 68.0649 419.966 66.3513 417.546 64.7889C419.646 65.3685 421.503 62.7309 421.016 60.6141C420.528 58.4889 418.63 57.0189 416.774 55.8849C414.052 54.2217 411.12 52.8945 408.08 51.9285C407.105 48.2157 402.401 43.9653 398.94 42.2937C385.013 35.5401 375.21 33.7929 357.285 46.7373Z" fill="#263238"/>
<path d="M346.507 69.1807C346.314 66.2407 345.827 63.3259 348.742 62.8807L378.486 53.9095C388.079 52.4563 395.017 64.0315 396.067 73.6747C397.226 84.3847 398.226 97.5138 397.319 105.586C395.488 121.823 381.182 126.183 381.182 126.183C381.182 126.166 381.552 136.028 381.552 136.028C380.317 143.605 378.402 152.131 375.328 155.163C364.802 153.197 347.582 130.064 347.582 130.064L346.507 69.1807Z" fill="#AE7461"/>
<path d="M381.183 126.191C381.183 126.191 372.414 125.629 361.376 119.656C361.376 119.656 365.114 129.829 381.326 131.072L381.183 126.191Z" fill="#6F4439"/>
<path d="M392.397 73.0286C392.028 73.5494 390.474 73.0958 388.626 73.1546C386.778 73.1462 385.24 73.6502 384.854 73.1378C384.686 72.8858 384.904 72.3734 385.568 71.861C386.215 71.357 387.324 70.9118 388.592 70.895C389.86 70.8782 390.978 71.2898 391.641 71.777C392.322 72.2642 392.557 72.7682 392.397 73.0286Z" fill="#263238"/>
<path d="M403.326 81.4196C403.174 78.8912 402.376 76.3208 400.646 74.4812C399.697 73.4732 398.496 72.7004 397.656 71.6C395.841 69.2144 396.093 65.9048 395.32 63.0152C394.321 59.2856 391.406 56.1188 387.769 54.8252C384.745 53.75 381.318 53.8928 378.478 52.3892C376.378 51.2804 374.782 49.3484 372.624 48.3572C368.415 46.4336 363.535 48.6008 359.562 50.9696C358.772 54.128 360.771 56.858 362.703 59.4788C364.627 62.0996 367.752 63.8048 371.002 63.998C373.522 64.1492 376.462 63.578 378.235 65.3756C380.1 67.2656 379.377 70.592 380.914 72.7592C383.107 75.8588 388.08 74.6744 391.356 76.5896C393.884 78.068 394.951 81.092 396.228 83.7296C397.504 86.3672 399.705 89.114 402.628 88.9796C403.048 86.468 403.477 83.948 403.326 81.4196Z" fill="#263238"/>
<path d="M365.853 56.7074C358.495 56.5982 351.111 57.9338 344.257 60.6134C342.215 61.4114 340.099 62.4278 338.939 64.2842C337.915 65.9222 337.797 67.9466 337.822 69.8786C337.898 75.9182 340.334 83.3102 342.644 88.8962L350.187 93.407C355.991 92.0294 353.32 81.9998 353.035 76.9766C357.083 75.1958 359.914 70.9202 359.965 66.4934C363.274 64.3598 365.517 60.6386 365.853 56.7074Z" fill="#263238"/>
<path d="M350.078 91.2393C349.842 87.7869 345.609 87.1149 342.635 88.9041C341.006 89.8869 339.779 91.8189 339.989 95.4813C340.56 105.259 350.254 102.672 350.262 102.394C350.262 102.218 350.346 95.2797 350.078 91.2393Z" fill="#AE7461"/>
<path d="M347.062 98.8592C347.02 98.834 346.894 98.9852 346.616 99.1364C346.339 99.2792 345.869 99.3968 345.348 99.2372C344.29 98.918 343.324 97.3304 343.181 95.5664C343.105 94.676 343.24 93.8192 343.517 93.0968C343.777 92.366 344.206 91.8368 344.718 91.7108C345.23 91.5596 345.617 91.8536 345.751 92.1224C345.894 92.3912 345.844 92.5844 345.902 92.6012C345.928 92.6264 346.104 92.4248 346.003 92.0216C345.953 91.8284 345.827 91.61 345.583 91.4336C345.34 91.2572 344.987 91.1816 344.626 91.2404C343.878 91.3328 343.24 92.072 342.937 92.8616C342.593 93.6596 342.416 94.6256 342.509 95.6252C342.685 97.5908 343.802 99.38 345.239 99.7076C345.936 99.8504 346.499 99.6068 346.784 99.3548C347.053 99.0944 347.095 98.876 347.062 98.8592Z" fill="#6F4439"/>
<path d="M340.191 101.37C340.191 101.37 339.603 101.546 338.729 102.218C337.873 102.874 336.755 104.167 336.352 106.124C336.142 107.09 336.134 108.199 336.428 109.333C336.739 110.459 337.327 111.584 338.217 112.55C339.091 113.525 340.258 114.331 341.619 114.785C342.971 115.247 344.525 115.289 345.979 114.877C347.44 114.466 348.742 113.659 349.708 112.601C350.683 111.542 351.271 110.232 351.489 108.938C351.909 106.326 350.943 103.907 349.565 102.504C348.86 101.798 348.053 101.37 347.339 101.068C346.617 100.765 345.953 100.622 345.407 100.564C344.861 100.513 344.433 100.547 344.147 100.606C343.862 100.673 343.727 100.732 343.727 100.74C343.736 100.782 344.315 100.547 345.391 100.706C345.92 100.782 346.558 100.942 347.255 101.261C347.944 101.572 348.717 102.008 349.372 102.689C350.674 104.058 351.573 106.385 351.145 108.88C350.926 110.114 350.363 111.349 349.439 112.349C348.524 113.357 347.272 114.121 345.878 114.508C344.483 114.902 343.022 114.86 341.737 114.424C340.443 113.995 339.317 113.231 338.477 112.307C337.621 111.391 337.041 110.308 336.73 109.241C336.436 108.166 336.428 107.099 336.613 106.166C336.965 104.276 338.015 103 338.822 102.319C339.645 101.639 340.216 101.412 340.191 101.37Z" fill="#323232"/>
<path d="M420.218 39.6306C420.168 39.7062 419.403 38.8242 417.547 38.085C416.623 37.7406 415.43 37.4298 414.027 37.4634C412.633 37.4802 411.028 37.833 409.55 38.757L409.34 38.8914L409.214 38.673C408.265 37.0434 406.509 35.6574 404.317 35.0778C402.158 34.4814 399.504 34.683 397.437 36.1698L397.177 36.3546L396.992 36.1026C395.152 33.5826 392.095 31.6086 388.626 31.0374C385.963 30.5838 383.266 31.0794 381.007 32.1882C378.747 33.297 376.916 34.9938 375.706 36.8922L375.622 37.0266L375.463 37.035C372.481 37.1526 369.768 37.9086 367.575 38.9922C365.349 40.0422 363.619 41.3694 362.317 42.5874C359.721 45.057 358.822 46.9974 358.722 46.9218C358.705 46.9134 358.764 46.7958 358.881 46.569C359.007 46.3506 359.167 46.0062 359.427 45.603C359.948 44.7798 360.788 43.6122 362.073 42.327C363.358 41.0586 365.097 39.6558 367.357 38.547C369.591 37.4046 372.372 36.5814 375.446 36.4386L375.202 36.5814C376.446 34.5738 378.352 32.7846 380.721 31.617C383.073 30.441 385.929 29.9118 388.735 30.3906C392.38 30.9954 395.572 33.0702 397.504 35.7414L397.059 35.6742C399.336 34.0614 402.175 33.8934 404.468 34.5402C406.795 35.187 408.66 36.6906 409.642 38.4546L409.298 38.3706C410.886 37.413 412.582 37.0854 414.036 37.1106C415.497 37.119 416.724 37.4718 417.656 37.875C418.597 38.2866 419.235 38.757 419.655 39.093C420.042 39.4122 420.235 39.6222 420.218 39.6306Z" fill="#263238"/>
<path d="M353.934 36.2199C353.934 36.2199 353.136 36.6987 351.489 36.8079C349.893 36.9087 347.306 36.5559 345.055 34.5063C343.963 33.4899 343.039 32.0199 342.669 30.2811C342.291 28.5507 342.392 26.5599 343.207 24.7035C344.013 22.8471 345.643 21.2259 347.701 20.4027C349.742 19.5627 352.212 19.4283 354.429 20.3439L354.051 20.4363C354.942 19.3611 356.286 18.6051 357.73 18.3363C358.932 18.1011 360.175 18.2187 361.292 18.6387C362.409 19.0839 363.358 19.8735 364.005 20.8395C365.299 22.7631 365.5 25.2579 364.56 27.1983L364.123 26.8035C365.736 25.8375 367.684 25.9887 369.163 26.7027C370.675 27.4083 371.75 28.7691 372.136 30.2055C372.951 33.1119 371.725 35.8251 370.188 37.2363C368.634 38.7147 366.962 39.2355 365.87 39.4707C365.316 39.5883 364.879 39.6219 364.585 39.6387C364.291 39.6471 364.14 39.6387 364.14 39.6219C364.131 39.5715 364.753 39.5547 365.828 39.2691C366.886 38.9751 368.482 38.4039 369.927 36.9591C371.355 35.5815 372.439 33.0111 371.641 30.3483C371.263 29.0379 370.297 27.8451 368.919 27.2151C367.575 26.5767 365.828 26.4843 364.45 27.3243L363.56 27.8703L364.014 26.9295C364.837 25.2075 364.644 22.9311 363.476 21.2091C362.896 20.3439 362.056 19.6551 361.065 19.2603C360.066 18.8823 358.948 18.7815 357.865 18.9915C356.554 19.2351 355.353 19.9155 354.564 20.8563L354.404 21.0411L354.177 20.9487C352.144 20.1003 349.851 20.2095 347.944 20.9823C346.021 21.7467 344.517 23.2167 343.744 24.9387C342.963 26.6607 342.846 28.5339 343.182 30.1719C343.509 31.8183 344.349 33.2043 345.357 34.1871C347.449 36.1695 349.927 36.5979 351.481 36.5727C353.085 36.5391 353.917 36.1443 353.934 36.2199Z" fill="#263238"/>
<path d="M307.43 61.6466C307.414 61.655 307.346 61.529 307.237 61.277C307.128 61.025 306.994 60.647 306.859 60.1346C306.607 59.1266 306.38 57.5558 306.75 55.6406C307.111 53.7506 308.111 51.4658 310.169 49.727C312.185 48.005 315.192 46.8374 318.418 47.2154L318.09 47.3918C319.333 44.7962 321.677 42.4442 324.676 41.1758C326.902 40.235 329.329 40.025 331.538 40.3778C333.756 40.739 335.764 41.6546 337.343 42.8894L337.015 42.8642C339.359 41.621 341.82 41.1506 343.979 41.201C346.138 41.2178 347.994 41.7302 349.43 42.3098C350.867 42.9062 351.892 43.595 352.547 44.1074C353.194 44.6366 353.504 44.9642 353.479 44.981C353.412 45.0818 352.144 43.7294 349.296 42.6374C347.876 42.1166 346.07 41.663 343.97 41.6882C341.887 41.6714 339.527 42.167 337.301 43.3766L337.124 43.469L336.973 43.3514C335.461 42.1922 333.538 41.3354 331.429 40.9994C329.321 40.6718 327.036 40.8734 324.928 41.7638C322.088 42.965 319.854 45.191 318.661 47.6438L318.56 47.8454L318.334 47.8202C315.318 47.4422 312.445 48.509 310.513 50.1134C308.539 51.7262 307.54 53.8766 307.136 55.691C306.725 57.5306 306.884 59.051 307.061 60.059C307.262 61.1006 307.472 61.6298 307.43 61.6466Z" fill="#263238"/>
<path d="M298.536 143.691C297.016 143.691 296.033 144.027 294.647 144.624C291.967 145.783 289.002 146.43 285.886 146.43C273.051 146.43 260.728 138.819 260.728 123.086C260.728 113.703 270.337 104.178 279.804 102.607C284.575 101.817 291.564 104.153 295.311 105.967C296.789 106.681 298.402 107.076 300.048 107.076H302.367L302.518 55.3235C302.518 51.7955 299.376 48.9395 296.512 48.9395H143.094C138.214 48.9395 135.072 51.7955 135.072 55.3235V108.714L141.246 108.386C142.683 108.386 144.102 108.126 145.429 107.639C148.101 106.656 150.889 104.942 153.955 104.942C167.11 104.942 176.283 112.368 175.753 124.447C175.291 135.09 167.404 143.406 155.736 144.145C151.62 144.405 148.067 143.389 144.623 141.919C143.086 141.264 141.28 140.785 139.583 140.785L135.081 140.877V193.151C135.081 197.477 138.936 200.988 143.691 200.988H199.517H239.476H293.916C298.671 200.988 302.526 197.477 302.526 193.151V143.666L298.536 143.691Z" fill="#323232"/>
<path d="M198.677 135.366L197.913 72.5844C197.216 56.9772 205.716 43.554 221.34 43.2852L222.785 43.344C237.334 43.9488 248.976 55.608 249.548 70.1568C250.077 83.6892 250.488 98.6496 250.102 105.882C249.296 120.859 234.218 122.564 234.218 122.564C234.184 122.564 234.125 131.678 234.134 136.08L229.379 145.58L225.322 143.354L198.677 135.366Z" fill="#FFBF9D"/>
<path d="M234.227 121.858C234.227 121.858 224.76 122.026 214.957 115.289C214.957 115.289 219.182 126.747 234.193 126.016L234.227 121.858Z" fill="#FF9A6C"/>
<path d="M198.678 83.0179C198.426 82.9003 188.514 79.5487 188.413 89.8051C188.32 100.062 198.636 98.0455 198.652 97.7515C198.678 97.4575 198.678 83.0179 198.678 83.0179Z" fill="#FFBF9D"/>
<path d="M195.562 93.827C195.52 93.7934 195.385 93.953 195.083 94.0874C194.789 94.2218 194.276 94.3058 193.747 94.1042C192.664 93.6926 191.773 91.9706 191.74 90.1226C191.723 89.1902 191.924 88.2998 192.26 87.569C192.58 86.8214 193.067 86.3006 193.621 86.2082C194.167 86.0906 194.545 86.4182 194.671 86.7038C194.806 86.9894 194.738 87.1994 194.797 87.2162C194.822 87.2414 195.016 87.0482 194.94 86.6198C194.898 86.4182 194.78 86.1746 194.545 85.973C194.302 85.7714 193.94 85.6622 193.562 85.7042C192.773 85.7546 192.05 86.4686 191.681 87.275C191.269 88.0814 191.017 89.081 191.034 90.131C191.084 92.1974 192.118 94.1462 193.596 94.583C194.318 94.7762 194.923 94.5662 195.234 94.331C195.536 94.079 195.595 93.8522 195.562 93.827Z" fill="#FF9A6C"/>
<path d="M270.254 55.9614C270.094 55.3566 269.666 54.8526 269.128 54.5334C267.96 53.8278 266.608 53.9034 265.298 53.8698C262.047 53.7774 258.821 52.9122 255.94 51.4086C256.956 50.9046 257.906 50.2914 258.72 49.5018C260.4 47.8638 261.375 45.3438 260.644 43.1262C260.51 42.7062 260.266 42.2694 259.854 42.135C259.191 41.925 258.603 42.5718 258.132 43.0842C256.587 44.7726 255.167 45.4866 252.891 45.2346C251.48 45.075 250.11 44.739 249.002 44.0334C248.96 43.983 248.918 43.9326 248.876 43.8906C248.346 43.3362 247.834 42.7986 247.33 42.2862C247.33 42.2862 247.33 42.2862 247.33 42.2778C243.516 38.4054 240.224 35.7174 236.83 34.3062C231.849 32.2314 223.482 31.3242 218.249 32.6346C213.016 33.945 208.278 38.1282 207.489 43.4706C204.591 40.959 200.198 40.9338 196.611 42.3282L196.518 42.2862C192.528 43.6554 190.227 47.8302 189.009 51.8622C188.942 52.0806 188.883 52.3074 188.824 52.5258C187.455 54.6426 185.615 56.4402 183.423 57.6834C183.036 57.9018 182.591 58.1706 182.541 58.6158C182.49 59.0526 182.852 59.4222 183.213 59.6826C184.154 60.3714 185.262 60.8334 186.413 61.0518C186.035 62.0094 185.598 62.9418 185.069 63.8238C184.616 64.5798 184.07 65.4786 184.456 66.2766C184.75 66.8898 185.523 67.1502 186.203 67.0578C186.875 66.9654 187.48 66.6042 188.06 66.243C187.606 67.3014 187.152 68.3514 186.699 69.4098C188.135 69.6786 189.622 69.5778 191.025 69.1746C191.823 72.9714 192.377 79.9938 193.326 82.5726C196.048 82.6482 196.712 82.3626 198.081 82.833C199.853 83.4462 199.139 86.5794 201.458 85.7142C202.642 85.269 204.498 80.8338 204.902 79.641C207.606 71.7198 208.572 63.2106 207.716 54.8862C209.379 53.1474 211.378 51.7446 213.579 50.7534L213.402 50.913C217.611 49.5018 222.374 48.1242 226.33 50.1402C229.396 51.7026 231.177 54.9282 233.453 57.507C237.771 62.3958 242.693 65.0418 249.212 65.3946C249.749 69.9306 249.842 77.3394 250.01 81.5646L253.68 73.131V73.1646C253.974 72.669 254.226 72.1734 254.462 71.6778L254.546 71.5266V71.5098C254.924 70.7118 255.285 69.9054 255.764 69.1158C255.78 69.1242 255.789 69.141 255.806 69.1494C258.074 71.1906 261.484 68.1414 259.703 65.6634C259.35 65.1678 258.93 64.731 258.443 64.3698C259.476 65.361 261.03 65.8482 262.408 65.445C263.786 65.0418 264.861 63.6642 264.76 62.2278C264.693 61.2534 264.004 60.3714 263.122 59.9766C264.97 60.1362 266.868 59.7582 268.49 58.8594C269.548 58.2714 270.598 57.2886 270.254 55.9614Z" fill="#263238"/>
<path d="M295.361 180.726C295.361 180.726 269.506 141.456 261.87 139.743L255.058 137.802L234.444 132.208C234.444 132.208 234.595 140.154 223.113 140.406C209.883 140.7 198.778 129.066 198.778 129.066C198.778 129.066 171.276 137.634 165.505 142.296C159.735 146.95 169.235 200.853 169.235 200.853H269.875L269.8 200.265L295.361 180.726Z" fill="#2C71F6"/>
<path d="M165.229 142.246C165.229 142.246 156.535 148.168 154.115 160.264C151.696 172.368 146.656 200.819 146.656 200.819L188.723 200.845C188.723 200.845 186.8 183.263 186.8 181.945C186.8 180.626 179.517 151.805 179.072 151.15C178.635 150.487 165.229 142.246 165.229 142.246Z" fill="#2C71F6"/>
<path d="M288.851 185.699L293.908 201.004L269.884 200.844L269.809 200.248L288.851 185.699Z" fill="#FFBF9D"/>
<path d="M259.216 48.955C259.216 48.955 259.796 48.9382 260.938 48.9298C262.08 48.9214 263.777 48.9214 266.003 48.9046C270.464 48.8962 277.032 48.8794 285.525 48.8626C287.65 48.8626 289.893 48.8542 292.245 48.8542C293.429 48.8626 294.63 48.8374 295.874 48.8626C297.125 48.9046 298.393 49.2826 299.511 49.9714C300.619 50.6686 301.586 51.685 302.123 52.9534C302.409 53.5834 302.56 54.2722 302.602 54.9694C302.644 55.6666 302.61 56.3554 302.619 57.061C302.61 59.875 302.61 62.7982 302.602 65.8222C302.577 77.935 302.543 91.753 302.51 107.075V107.226H302.358C301.401 107.217 300.451 107.243 299.477 107.209C298.503 107.159 297.52 106.965 296.587 106.655C295.638 106.344 294.773 105.848 293.866 105.487C292.959 105.101 292.035 104.748 291.085 104.42C289.195 103.782 287.238 103.236 285.222 102.917C284.214 102.749 283.189 102.639 282.165 102.631C281.14 102.623 280.107 102.673 279.09 102.942C274.999 103.782 271.169 106.016 267.969 108.948C266.356 110.418 264.945 112.131 263.769 114.013C262.601 115.895 261.685 117.978 261.232 120.187C260.761 122.396 260.904 124.715 261.215 126.991C261.308 127.562 261.375 128.133 261.492 128.705L261.946 130.385C262.072 130.956 262.299 131.493 262.517 132.031C262.752 132.569 262.903 133.14 263.206 133.644C265.255 137.861 268.851 141.372 273.236 143.438C274.311 144.001 275.47 144.396 276.612 144.816C277.788 145.143 278.964 145.505 280.182 145.698C282.601 146.135 285.105 146.345 287.591 146.168C290.077 145.975 292.539 145.353 294.857 144.32C296.025 143.799 297.344 143.447 298.654 143.489C299.939 143.489 301.224 143.48 302.518 143.48H302.719V143.682C302.719 154.568 302.728 165.774 302.728 177.257C302.728 180.129 302.728 183.019 302.728 185.925C302.728 187.379 302.728 188.832 302.728 190.293V192.486C302.736 193.208 302.711 193.981 302.56 194.72C302.232 196.199 301.459 197.576 300.367 198.626C299.301 199.701 297.915 200.441 296.461 200.861C295.722 201.045 294.975 201.188 294.21 201.188C293.454 201.213 292.715 201.197 291.967 201.205C290.472 201.205 288.977 201.205 287.474 201.205C263.458 201.205 238.485 201.205 212.865 201.213C189.034 201.205 165.749 201.197 143.271 201.188C140.406 201.096 137.576 199.617 136.047 197.173C135.266 195.972 134.871 194.535 134.862 193.116C134.862 191.73 134.862 190.352 134.862 188.966C134.862 183.447 134.862 177.987 134.862 172.586C134.862 161.775 134.871 151.2 134.871 140.885V140.683H135.072C136.299 140.658 137.517 140.633 138.726 140.607C139.936 140.54 141.204 140.658 142.38 140.96C143.573 141.237 144.699 141.75 145.799 142.195C146.908 142.632 148.042 143.01 149.184 143.304C151.478 143.892 153.838 144.135 156.165 143.909C158.5 143.749 160.785 143.203 162.918 142.355C167.202 140.675 170.848 137.55 173.007 133.627C175.166 129.704 175.947 125.143 175.392 120.851C175.098 118.709 174.485 116.617 173.452 114.744C172.41 112.887 171.007 111.266 169.386 109.939C167.773 108.595 165.909 107.604 163.985 106.865C163.036 106.461 162.036 106.218 161.045 105.932C160.55 105.798 160.045 105.731 159.541 105.63C159.037 105.529 158.542 105.428 158.038 105.386L156.526 105.218C156.022 105.176 155.518 105.176 155.014 105.151C154.006 105.092 153.015 105.092 152.049 105.319C150.108 105.722 148.328 106.629 146.505 107.385C145.598 107.763 144.657 108.108 143.691 108.301C142.733 108.511 141.725 108.545 140.776 108.578C138.852 108.679 136.954 108.78 135.072 108.881L134.904 108.889V108.721C134.913 91.4422 134.93 75.8182 134.938 62.0842C134.938 60.3706 134.938 58.6822 134.946 57.0274C134.963 56.1958 134.913 55.381 135.005 54.5494C135.114 53.7262 135.391 52.9366 135.811 52.2394C136.651 50.8366 137.996 49.8286 139.457 49.2994C140.936 48.7198 142.498 48.8542 143.951 48.8458C149.831 48.8542 155.207 48.8626 160.045 48.8626C169.714 48.8794 177.215 48.8962 182.314 48.9046C184.859 48.913 186.8 48.9214 188.11 48.9298C189.412 48.9382 190.084 48.955 190.084 48.955C190.084 48.955 189.412 48.9718 188.11 48.9802C186.8 48.9886 184.859 48.997 182.314 49.0054C177.215 49.0138 169.706 49.0306 160.045 49.0474C155.207 49.0558 149.839 49.0558 143.951 49.0642C142.481 49.081 140.961 48.955 139.533 49.5178C138.122 50.0302 136.82 51.013 136.013 52.3654C135.61 53.0374 135.341 53.8018 135.24 54.5914C135.148 55.3726 135.198 56.2126 135.19 57.0358C135.19 58.6906 135.19 60.379 135.198 62.0926C135.207 75.8266 135.215 91.459 135.232 108.729L135.064 108.57C136.945 108.469 138.852 108.368 140.776 108.259C141.742 108.225 142.691 108.192 143.632 107.99C144.573 107.805 145.48 107.469 146.387 107.091C148.193 106.344 149.991 105.42 151.99 105C152.981 104.765 154.031 104.765 155.039 104.815C155.543 104.84 156.056 104.84 156.568 104.882L158.097 105.05C158.609 105.092 159.113 105.193 159.625 105.294C160.129 105.395 160.642 105.47 161.146 105.605C162.145 105.882 163.162 106.134 164.128 106.545C166.085 107.293 167.983 108.293 169.621 109.67C171.276 111.023 172.713 112.677 173.78 114.576C174.83 116.491 175.468 118.625 175.77 120.809C176.333 125.185 175.543 129.813 173.351 133.82C171.159 137.827 167.438 141.011 163.078 142.724C160.902 143.581 158.584 144.144 156.215 144.303C153.846 144.539 151.427 144.295 149.1 143.69C147.941 143.388 146.79 143.01 145.665 142.565C144.539 142.111 143.464 141.624 142.296 141.355C141.129 141.061 139.961 140.943 138.743 141.019C137.525 141.044 136.307 141.069 135.089 141.095L135.291 140.893C135.291 151.208 135.299 161.792 135.299 172.595C135.299 177.996 135.299 183.464 135.299 188.975C135.408 191.705 134.82 194.645 136.416 196.955C137.861 199.265 140.566 200.684 143.296 200.768C165.766 200.777 189.042 200.777 212.873 200.785C238.493 200.785 263.466 200.785 287.482 200.793C288.985 200.793 290.481 200.793 291.976 200.793C293.479 200.785 294.958 200.869 296.361 200.466C299.158 199.718 301.569 197.475 302.165 194.645C302.308 193.939 302.333 193.242 302.325 192.503V190.31C302.325 188.849 302.325 187.395 302.325 185.942C302.325 183.036 302.325 180.146 302.325 177.273C302.325 165.791 302.333 154.585 302.333 143.699L302.535 143.9C301.241 143.9 299.956 143.909 298.671 143.909C297.402 143.867 296.184 144.194 295.025 144.707C292.682 145.748 290.162 146.387 287.633 146.58C285.096 146.756 282.576 146.538 280.124 146.093C278.889 145.899 277.696 145.53 276.503 145.202C275.344 144.774 274.168 144.371 273.076 143.799C268.624 141.699 264.962 138.121 262.878 133.82C262.576 133.308 262.416 132.72 262.181 132.182C261.963 131.628 261.727 131.082 261.601 130.502L261.14 128.797C261.022 128.226 260.955 127.638 260.854 127.058C260.535 124.757 260.4 122.396 260.879 120.128C261.341 117.869 262.282 115.752 263.466 113.837C264.659 111.93 266.096 110.191 267.734 108.704C270.984 105.739 274.857 103.479 279.023 102.623C280.048 102.354 281.123 102.295 282.173 102.312C283.223 102.32 284.256 102.438 285.281 102.606C287.322 102.933 289.288 103.488 291.195 104.135C292.144 104.462 293.076 104.823 293.992 105.21C294.916 105.588 295.773 106.083 296.688 106.377C297.604 106.688 298.553 106.873 299.502 106.923C300.451 106.957 301.417 106.932 302.367 106.94L302.215 107.091C302.274 91.7782 302.325 77.9518 302.375 65.839C302.383 62.815 302.4 59.8918 302.409 57.0778C302.4 56.3806 302.434 55.675 302.4 54.9946C302.358 54.3226 302.215 53.659 301.938 53.0542C301.418 51.8278 300.485 50.8366 299.41 50.1562C298.318 49.4926 297.091 49.1146 295.865 49.0726C294.639 49.039 293.421 49.0642 292.245 49.0474C289.884 49.0474 287.641 49.039 285.525 49.039C277.041 49.0222 270.464 49.0054 266.003 48.997C263.777 48.9886 262.089 48.9802 260.938 48.9718C259.796 48.9718 259.216 48.955 259.216 48.955Z" fill="#263238"/>
<path d="M280.4 258.032C284.457 257.772 287.968 258.788 291.362 260.258C292.874 260.913 294.663 261.392 296.335 261.392L300.778 261.3V209.027C300.778 204.701 296.973 201.189 292.286 201.189H237.199H197.761H144.034C139.339 201.189 135.542 204.701 135.542 209.027V346.854C135.542 350.382 138.642 353.238 142.464 353.238H293.865C297.687 353.238 300.787 350.382 300.787 346.854V297.042H294.655C293.235 297.042 291.841 297.302 290.522 297.789C287.884 298.772 285.003 299.327 281.979 299.327C269.001 299.327 258.535 289.381 259.056 277.31C259.518 266.667 268.875 258.78 280.4 258.032Z" fill="#323232"/>
<path d="M280.4 258.033C280.4 258.033 279.904 258.1 278.93 258.209C278.443 258.243 277.838 258.361 277.124 258.503C276.402 258.613 275.587 258.839 274.663 259.1C272.832 259.663 270.58 260.511 268.22 262.065C267.632 262.46 267.019 262.855 266.448 263.359C266.154 263.602 265.843 263.837 265.557 264.098C265.272 264.375 264.986 264.652 264.7 264.938L264.264 265.366L263.86 265.845C263.592 266.164 263.314 266.492 263.029 266.819C262.55 267.542 261.979 268.239 261.567 269.062C261.08 269.843 260.727 270.725 260.341 271.616C260.047 272.54 259.694 273.481 259.534 274.489C259.131 276.488 259.03 278.672 259.366 280.889C259.694 283.107 260.358 285.392 261.542 287.542C262.718 289.684 264.314 291.709 266.305 293.439C270.253 296.908 275.814 299.201 281.853 299.21C284.869 299.243 287.952 298.672 290.942 297.521C291.715 297.269 292.513 297.093 293.328 297.001C294.142 296.9 294.974 296.925 295.789 296.925C297.435 296.925 299.098 296.925 300.787 296.925H300.93V297.068C300.938 304.871 300.938 313.162 300.946 321.898C300.946 326.266 300.955 330.752 300.955 335.338C300.955 337.631 300.955 339.95 300.955 342.302C300.955 343.478 300.955 344.654 300.955 345.838C300.955 346.426 300.972 347.023 300.904 347.644C300.829 348.257 300.652 348.845 300.409 349.417C299.384 351.693 297.015 353.213 294.52 353.407C292.042 353.465 289.59 353.423 287.086 353.44C282.088 353.44 276.998 353.44 271.815 353.449C261.45 353.449 250.706 353.457 239.643 353.457C217.518 353.465 194.073 353.465 169.638 353.474C163.531 353.474 157.357 353.474 151.132 353.474C148.008 353.457 144.908 353.507 141.733 353.44C140.128 353.281 138.558 352.609 137.373 351.491C136.18 350.383 135.408 348.803 135.349 347.157C135.34 334.481 135.34 321.596 135.332 308.542C135.332 289.659 135.332 271.12 135.332 253.06C135.332 244.03 135.332 235.118 135.332 226.331C135.332 221.938 135.332 217.579 135.332 213.261C135.332 212.177 135.332 211.102 135.332 210.027C135.315 208.969 135.34 207.826 135.693 206.776C136.357 204.659 137.97 202.929 139.918 201.971C140.893 201.484 141.951 201.182 143.026 201.073C144.118 200.972 145.16 201.031 146.218 201.014C148.327 201.014 150.427 201.014 152.51 201.014C156.685 201.014 160.826 201.014 164.925 201.014C173.124 201.014 181.154 201.022 189.016 201.022C204.733 201.031 219.744 201.031 233.94 201.039C248.136 201.047 261.5 201.056 273.94 201.064C280.156 201.064 286.137 201.073 291.874 201.073C294.772 200.947 297.679 202.232 299.359 204.475C300.207 205.583 300.728 206.911 300.888 208.263C300.972 209.624 300.913 210.934 300.93 212.245C300.904 233.127 300.888 249.801 300.871 261.334V261.41H300.804C299.056 261.435 297.418 261.502 295.89 261.485C294.352 261.401 292.966 260.998 291.748 260.511C289.354 259.453 287.28 258.789 285.583 258.461C283.886 258.125 282.584 258.067 281.719 258.058C281.29 258.05 280.963 258.067 280.744 258.075C280.509 258.033 280.4 258.033 280.4 258.033C280.4 258.033 280.828 257.983 281.694 257.974C282.559 257.966 283.861 258.016 285.574 258.344C287.28 258.663 289.371 259.327 291.765 260.368C292.975 260.839 294.352 261.233 295.873 261.317C297.393 261.326 299.031 261.259 300.778 261.225L300.711 261.301C300.694 249.776 300.678 233.102 300.652 212.211C300.636 210.909 300.694 209.565 300.61 208.263C300.459 206.961 299.955 205.676 299.132 204.609C297.494 202.45 294.705 201.199 291.866 201.333C286.129 201.333 280.148 201.341 273.932 201.341C261.5 201.35 248.127 201.358 233.931 201.367C219.735 201.375 204.724 201.375 189.008 201.383C181.154 201.383 173.115 201.392 164.917 201.392C160.818 201.392 156.685 201.392 152.502 201.392C150.41 201.392 148.318 201.392 146.21 201.392C145.16 201.409 144.085 201.358 143.068 201.451C142.044 201.56 141.027 201.845 140.095 202.307C138.238 203.223 136.71 204.869 136.088 206.869C135.752 207.868 135.727 208.901 135.752 209.993C135.752 211.069 135.752 212.152 135.752 213.227C135.752 217.553 135.752 221.905 135.752 226.298C135.752 235.076 135.752 243.997 135.752 253.027C135.752 271.087 135.752 289.625 135.752 308.509C135.76 321.554 135.76 334.431 135.769 347.098C135.828 348.627 136.533 350.097 137.659 351.139C138.776 352.189 140.246 352.819 141.766 352.97C144.866 353.037 148.024 352.987 151.132 353.003C157.357 353.003 163.531 353.003 169.638 353.003C194.073 353.012 217.509 353.012 239.643 353.02C250.706 353.02 261.441 353.029 271.815 353.029C276.998 353.029 282.088 353.029 287.086 353.037C289.581 353.029 292.076 353.071 294.487 353.012C296.864 352.827 299.124 351.374 300.09 349.232C300.316 348.694 300.484 348.14 300.56 347.56C300.627 346.989 300.61 346.393 300.61 345.796C300.61 344.612 300.61 343.427 300.61 342.26C300.61 339.916 300.61 337.589 300.61 335.296C300.61 330.71 300.619 326.224 300.619 321.856C300.627 313.12 300.627 304.829 300.636 297.026L300.778 297.169C299.09 297.169 297.427 297.169 295.78 297.169C294.957 297.169 294.142 297.143 293.344 297.244C292.546 297.337 291.765 297.505 291.009 297.757C288.019 298.907 284.869 299.487 281.836 299.445C275.738 299.428 270.127 297.101 266.137 293.582C264.138 291.826 262.525 289.785 261.34 287.609C260.148 285.442 259.484 283.124 259.156 280.889C258.82 278.647 258.93 276.446 259.341 274.43C259.509 273.405 259.862 272.464 260.164 271.532C260.559 270.633 260.912 269.751 261.408 268.961C261.828 268.13 262.407 267.433 262.894 266.71C263.18 266.383 263.457 266.055 263.734 265.727L264.146 265.249L264.591 264.82C264.885 264.535 265.179 264.257 265.456 263.98C265.75 263.72 266.061 263.485 266.355 263.241C266.935 262.737 267.556 262.342 268.144 261.947C270.53 260.402 272.79 259.553 274.629 259.007C275.562 258.755 276.376 258.537 277.099 258.428C277.813 258.293 278.418 258.184 278.913 258.159C279.896 258.075 280.4 258.033 280.4 258.033Z" fill="#263238"/>
<path d="M194.183 248.917C192.116 242.811 190.067 236.653 189.084 230.278C188.093 223.902 188.21 217.241 190.386 211.168C190.714 210.244 193.544 204.061 194.519 204.145C195.216 204.204 193.494 209.967 193.855 210.563C197.282 216.283 198.282 223.205 197.828 229.858C197.366 236.519 196.056 242.517 194.183 248.917Z" fill="#263238"/>
<path d="M194.855 282.292L193.25 224.315C192.528 208.153 201.331 194.26 217.501 193.982L218.996 194.041C234.057 194.663 246.12 206.742 246.708 221.803C247.254 235.814 247.682 251.304 247.279 258.788C246.447 274.286 230.832 276.059 230.832 276.059C230.798 276.059 230.697 292.162 230.706 296.723L219.685 308.424L220.323 304.879L194.855 282.292Z" fill="#FFBF9D"/>
<path d="M230.841 276.068C230.841 276.068 221.038 276.236 210.891 269.264C210.891 269.264 215.267 281.124 230.799 280.368L230.841 276.068Z" fill="#FF9A6C"/>
<path d="M194.04 235.855C193.779 235.729 183.515 232.26 183.414 242.878C183.313 253.495 193.998 251.404 194.015 251.101C194.04 250.799 194.04 235.855 194.04 235.855Z" fill="#FFBF9D"/>
<path d="M190.814 247.053C190.772 247.02 190.629 247.179 190.31 247.322C190.007 247.457 189.478 247.549 188.924 247.339C187.807 246.919 186.874 245.13 186.841 243.215C186.824 242.249 187.034 241.333 187.387 240.569C187.714 239.796 188.227 239.258 188.789 239.166C189.352 239.04 189.747 239.384 189.873 239.687C190.016 239.981 189.94 240.199 189.999 240.216C190.024 240.241 190.226 240.039 190.15 239.603C190.108 239.393 189.982 239.141 189.739 238.931C189.487 238.721 189.109 238.611 188.722 238.653C187.899 238.704 187.16 239.451 186.773 240.283C186.345 241.123 186.085 242.148 186.101 243.24C186.152 245.382 187.227 247.389 188.756 247.851C189.503 248.053 190.125 247.835 190.453 247.583C190.789 247.305 190.847 247.07 190.814 247.053Z" fill="#FF9A6C"/>
<path d="M239.853 204.213C241.575 203.264 236.418 197.695 232.192 195.78C225.808 192.882 216.064 191.093 210.184 192.756C203.095 194.763 197.206 198.283 193.653 204.734C190.092 211.177 188.748 218.695 188.958 226.053C189.016 228.296 189.252 230.64 190.453 232.538C191.931 234.89 194.779 236.368 194.653 239.603C194.602 240.787 194.947 241.98 195.753 242.845C197.694 244.911 200.071 242.971 201.163 241.022C203.498 236.864 203.758 231.9 203.968 227.137C204.12 223.752 204.254 220.291 203.305 217.04C202.784 215.268 201.952 213.596 201.532 211.799C201.112 210.001 201.171 207.968 202.288 206.498C202.473 206.263 202.767 205.961 203.154 205.625C206.161 202.987 210.369 202.206 214.141 203.541C220.122 205.658 230.328 208.825 232.999 206.801C236.838 203.886 237.753 201.979 237.753 201.979L239.853 204.213Z" fill="#263238"/>
<g opacity="0.3">
<path d="M218.811 295.311C217.501 293.119 216.005 291.515 214.703 289.322C214.603 289.146 213.964 288.474 214.04 288.281C214.09 288.163 213.393 288.986 213.149 289.356C211.814 291.414 209.705 293.304 208.294 295.11L190.461 278.906C195.358 285.903 200.936 292.439 206.95 298.008C207.404 298.428 208.017 298.739 208.63 298.671C209.294 298.604 209.789 298.05 210.218 297.529C211.125 296.437 212.032 295.337 212.931 294.245C213.141 293.993 213.368 293.724 213.687 293.648C214.124 293.539 214.552 293.833 214.913 294.11C215.829 294.816 216.745 295.521 217.66 296.227C218.047 296.521 218.635 296.807 218.962 296.445C219.223 296.135 219.021 295.656 218.811 295.311Z" fill="#202020"/>
</g>
<path d="M191.713 279.402C191.713 279.402 166.773 272.984 152.493 289.146C147.151 295.186 144.673 303.233 145.219 311.28C145.597 316.79 146.143 324.745 146.621 332.07C147.478 344.981 150.301 376.867 157.13 384.469C163.959 392.071 182.313 388.375 188.756 385.847C195.199 383.318 205.195 384.032 210.134 379.354C215.073 374.675 222.473 371.794 230.218 368.702C237.963 365.611 234.863 361.504 234.863 361.504L223.28 337.001L181.313 345.384C181.313 345.384 179.583 329.231 181.381 324.359C183.17 319.487 186.202 313.153 187.185 305.728C188.176 298.302 191.713 279.402 191.713 279.402Z" fill="#2C71F6"/>
<g opacity="0.3">
<path d="M180.39 345.124C172.04 346.602 164.875 353.364 162.909 361.613C162.632 362.772 162.599 364.284 163.657 364.847C164.438 365.259 165.446 364.855 166.026 364.183C166.597 363.511 166.849 362.629 167.126 361.789C169.503 354.515 174.947 348.299 181.835 344.973L180.39 345.124Z" fill="#202020"/>
</g>
<path d="M184.001 277.21H188.596L193.846 269.541L213.964 286.013L220.6 295.883L223.834 286.156L230.839 282.679L232.645 287.996L238.5 290.684L231.167 309.038L225.27 316.178C225.27 316.178 216.156 322.915 204.052 311.818C191.956 300.722 191.956 300.722 191.956 300.722L184.001 277.21Z" fill="white"/>
<path d="M184.001 277.211C184.001 277.211 208.067 313.608 217.811 310.164C227.555 306.729 237.224 289.702 237.224 289.702C237.224 289.702 258.4 296.413 264.994 303.57C271.588 310.727 282.617 352.761 282.617 352.761L181.322 345.385C181.322 345.385 166.235 322.764 166.235 321.051C166.235 319.337 170.687 279.051 170.687 279.051L184.001 277.211Z" fill="#2C71F6"/>
<path d="M223.901 337.943C223.901 337.943 237.543 332.861 243.591 333.482C249.639 334.104 273.268 352.769 273.268 352.769L242.524 352.592L239.853 350.156L233.007 357.548L223.901 337.943Z" fill="#FFBF9D"/>
<path d="M479.69 249.143L491.593 251.26C495.869 256.09 501.488 259.837 508.116 261.836C527.176 267.598 547.302 256.796 553.073 237.703C558.844 218.618 548.066 198.475 529.007 192.712C509.947 186.95 489.821 197.752 484.05 216.845C481.639 224.817 482.126 232.965 484.882 240.181L484.873 240.164L479.69 249.143Z" fill="#FAFAFA"/>
<path d="M479.69 249.143C479.69 249.143 479.791 248.95 480.01 248.572C480.236 248.177 480.556 247.597 480.984 246.85C481.858 245.313 483.143 243.053 484.806 240.13C484.831 240.088 484.882 240.071 484.924 240.096C484.932 240.105 484.949 240.113 484.949 240.121L484.957 240.138L484.798 240.222C483.168 235.989 481.748 229.924 482.647 222.717C482.866 220.927 483.252 219.079 483.79 217.206C484.058 216.274 484.436 215.35 484.764 214.392C485.066 213.426 485.528 212.511 485.982 211.561C487.78 207.798 490.358 204.085 493.769 200.885C497.171 197.676 501.396 194.98 506.201 193.224C510.997 191.46 516.382 190.654 521.858 191.124C527.327 191.653 532.846 193.451 537.768 196.509C539.045 197.206 540.154 198.163 541.338 199.029C541.943 199.449 542.438 200.003 542.993 200.482C543.522 200.994 544.11 201.456 544.597 202.011C545.563 203.128 546.647 204.178 547.478 205.421C547.915 206.026 548.377 206.622 548.806 207.244C549.192 207.891 549.578 208.537 549.965 209.184C552.964 214.258 554.484 220.02 554.753 225.648C555.022 231.293 553.946 236.862 551.771 241.768C549.62 246.682 546.445 250.949 542.716 254.284C538.986 257.627 534.71 260.046 530.368 261.55C526.025 263.053 521.615 263.641 517.499 263.515C515.432 263.507 513.458 263.163 511.543 262.869C509.67 262.39 507.839 262.012 506.159 261.357C499.38 258.879 494.575 254.847 491.501 251.335L491.551 251.369C487.67 250.655 484.688 250.101 482.664 249.731C481.681 249.546 480.925 249.403 480.404 249.311C479.934 249.193 479.69 249.143 479.69 249.143C479.69 249.143 479.968 249.185 480.48 249.269C481.009 249.361 481.774 249.487 482.773 249.655C484.789 250 487.754 250.512 491.61 251.167C491.635 251.167 491.652 251.184 491.669 251.201C494.752 254.67 499.548 258.643 506.285 261.071C507.948 261.709 509.771 262.079 511.627 262.549C513.517 262.835 515.483 263.163 517.532 263.171C521.615 263.28 525.974 262.692 530.267 261.189C534.559 259.693 538.784 257.291 542.472 253.981C546.16 250.68 549.293 246.463 551.41 241.6C553.552 236.753 554.618 231.251 554.341 225.665C554.064 220.104 552.577 214.409 549.604 209.394C549.217 208.756 548.839 208.117 548.461 207.479C548.041 206.866 547.588 206.278 547.151 205.681C546.328 204.447 545.261 203.422 544.303 202.313C543.816 201.767 543.236 201.305 542.716 200.801C542.161 200.322 541.674 199.776 541.078 199.365C539.902 198.516 538.81 197.567 537.55 196.878C532.686 193.846 527.226 192.073 521.825 191.544C516.415 191.074 511.09 191.863 506.335 193.594C501.581 195.324 497.389 197.987 494.021 201.154C490.636 204.321 488.074 207.983 486.276 211.713C485.831 212.645 485.36 213.552 485.058 214.51C484.73 215.459 484.361 216.366 484.084 217.299C483.538 219.155 483.16 220.986 482.933 222.767C482.009 229.907 483.378 235.947 484.966 240.172C484.982 240.214 484.957 240.273 484.915 240.289C484.873 240.306 484.831 240.289 484.814 240.256L484.806 240.239L484.957 240.231C483.269 243.112 481.958 245.329 481.068 246.85C480.623 247.597 480.287 248.169 480.052 248.572C479.816 248.941 479.69 249.143 479.69 249.143Z" fill="#263238"/>
<path d="M529.637 228.327C529.637 226.303 531.275 224.656 533.307 224.656C535.332 224.656 536.978 226.294 536.978 228.327C536.978 230.351 535.34 231.998 533.307 231.998C531.275 231.989 529.637 230.351 529.637 228.327Z" fill="#263238"/>
<path d="M514.962 228.327C514.962 226.303 516.6 224.656 518.633 224.656C520.657 224.656 522.304 226.294 522.304 228.327C522.304 230.351 520.666 231.998 518.633 231.998C516.6 231.989 514.962 230.351 514.962 228.327Z" fill="#263238"/>
<path d="M500.321 230.158C499.304 228.402 499.909 226.16 501.665 225.152C503.42 224.135 505.663 224.74 506.671 226.496C507.687 228.251 507.083 230.494 505.327 231.502C503.58 232.51 501.337 231.914 500.321 230.158Z" fill="#263238"/>
<path d="M167.328 83.5125L155.426 85.6293C151.15 90.4593 145.53 94.2057 138.903 96.2049C119.843 101.967 99.7167 91.1649 93.9459 72.0717C88.1751 52.9869 98.9524 32.8437 118.012 27.0813C137.072 21.3189 157.198 32.1213 162.96 51.2145C165.371 59.1861 164.884 67.3341 162.12 74.5497L162.129 74.5329L167.328 83.5125Z" fill="#FAFAFA"/>
<path d="M167.328 83.5134C167.328 83.5134 167.202 83.3118 166.967 82.9254C166.732 82.5306 166.396 81.951 165.95 81.2034C165.06 79.6914 163.75 77.4654 162.061 74.5842L162.212 74.5926L162.204 74.6094C162.179 74.6514 162.12 74.6598 162.078 74.6346C162.044 74.6093 162.036 74.5674 162.044 74.5338C163.632 70.3086 165.001 64.2774 164.077 57.129C163.85 55.3482 163.464 53.5254 162.926 51.6606C162.658 50.7366 162.28 49.821 161.952 48.8717C161.65 47.9142 161.188 47.0069 160.734 46.0745C158.945 42.3533 156.374 38.6825 152.989 35.5157C149.612 32.3489 145.429 29.6861 140.675 27.9557C135.929 26.2253 130.603 25.4357 125.185 25.9061C119.784 26.4353 114.332 28.2161 109.46 31.2401C108.2 31.9289 107.108 32.8782 105.932 33.7266C105.336 34.1382 104.849 34.6842 104.294 35.163C103.774 35.667 103.194 36.1206 102.707 36.6749C101.749 37.7837 100.682 38.8085 99.8592 40.0433C99.4224 40.6397 98.9688 41.2278 98.5488 41.841C98.1708 42.4794 97.7844 43.1178 97.4064 43.7562C94.4412 48.771 92.946 54.4578 92.6688 60.027C92.4 65.6045 93.4584 71.1066 95.6004 75.9618C97.7172 80.8254 100.85 85.0422 104.538 88.3434C108.226 91.653 112.442 94.0638 116.743 95.5506C121.044 97.0542 125.404 97.6422 129.478 97.533C131.527 97.533 133.484 97.197 135.383 96.9114C137.239 96.441 139.062 96.0714 140.725 95.433C147.462 93.0054 152.25 89.0238 155.341 85.563C155.358 85.5462 155.375 85.5378 155.4 85.5294C159.264 84.8658 162.221 84.3618 164.237 84.0174C165.236 83.8494 166.001 83.7234 166.53 83.631C167.051 83.547 167.328 83.5134 167.328 83.5134C167.328 83.5134 167.084 83.5638 166.58 83.6646C166.06 83.7654 165.312 83.8998 164.321 84.0846C162.296 84.4626 159.314 85.0086 155.434 85.7226L155.484 85.689C152.41 89.2002 147.605 93.2322 140.826 95.7102C139.146 96.3654 137.315 96.7434 135.442 97.2222C133.535 97.5162 131.561 97.8606 129.486 97.869C125.37 97.995 120.96 97.407 116.617 95.9034C112.274 94.4082 108.007 91.9806 104.269 88.6374C100.54 85.3026 97.356 81.0438 95.214 76.1214C93.0384 71.2158 91.9632 65.655 92.232 60.0018C92.5092 54.3654 94.0212 48.6114 97.02 43.5378C97.4064 42.891 97.7928 42.2442 98.1792 41.5974C98.6076 40.9758 99.0612 40.3877 99.5064 39.7745C100.346 38.5313 101.422 37.4814 102.388 36.3642C102.883 35.8098 103.463 35.3478 103.992 34.8354C104.546 34.3566 105.042 33.8022 105.647 33.3822C106.831 32.5254 107.94 31.5594 109.217 30.8622C114.148 27.7962 119.666 26.0069 125.126 25.4777C130.603 25.0073 135.988 25.8138 140.784 27.5778C145.589 29.3334 149.814 32.0382 153.216 35.2386C156.626 38.4474 159.205 42.1518 161.003 45.9149C161.448 46.8558 161.918 47.7713 162.221 48.7457C162.548 49.7034 162.918 50.6274 163.195 51.5598C163.733 53.433 164.111 55.281 164.338 57.0702C165.236 64.2774 163.817 70.3422 162.187 74.5758L162.028 74.4918L162.036 74.475C162.061 74.433 162.12 74.4245 162.162 74.4497C162.17 74.4581 162.179 74.4666 162.187 74.475C163.85 77.3982 165.136 79.6578 166.009 81.195C166.429 81.9426 166.757 82.5138 166.984 82.917C167.227 83.3202 167.328 83.5134 167.328 83.5134Z" fill="#263238"/>
<path d="M117.382 62.6903C117.382 60.6659 115.744 59.0195 113.711 59.0195C111.686 59.0195 110.04 60.6575 110.04 62.6903C110.04 64.7147 111.678 66.3527 113.711 66.3527C115.744 66.3611 117.382 64.7147 117.382 62.6903Z" fill="#263238"/>
<path d="M132.056 62.6903C132.056 60.6659 130.418 59.0195 128.386 59.0195C126.361 59.0195 124.715 60.6575 124.715 62.6903C124.715 64.7147 126.353 66.3527 128.386 66.3527C130.41 66.3611 132.056 64.7147 132.056 62.6903Z" fill="#263238"/>
<path d="M146.69 64.5214C147.706 62.7658 147.101 60.523 145.346 59.515C143.59 58.4986 141.347 59.1034 140.339 60.859C139.323 62.6146 139.928 64.8574 141.683 65.8654C143.439 66.8818 145.682 66.277 146.69 64.5214Z" fill="#263238"/>
</svg>
